<svg width="40" height="40" viewBox="0 0 40 40" fill="none" xmlns="http://www.w3.org/2000/svg">
<path d="M11.4287 22.4874V27.1431C11.4287 27.9316 12.0687 28.5716 12.8573 28.5716H14.7073L15.7201 38.7145C15.7944 39.4445 16.4087 40.0002 17.143 40.0002H22.8573C23.5916 40.0002 24.2059 39.4445 24.2787 38.7145L25.2916 28.5716H27.143C27.9316 28.5716 28.5716 27.9316 28.5716 27.1431V22.4874C28.5716 19.5402 26.1744 17.1431 23.2273 17.1431H20.0001H16.773C13.8259 17.1431 11.4287 19.5402 11.4287 22.4874ZM23.2273 20.0002C24.5987 20.0002 25.7144 21.1159 25.7144 22.4874V25.7145H24.0001C23.2659 25.7145 22.6516 26.2702 22.5787 27.0002L21.5644 37.1431H18.4359L17.423 27.0002C17.3487 26.2702 16.7344 25.7145 16.0001 25.7145H14.2859V22.4874C14.2859 21.1159 15.4016 20.0002 16.773 20.0002H23.2273Z" fill="white"/>
<path d="M14.2859 11.4284C14.2859 14.5798 16.8487 17.1427 20.0002 17.1427C23.1516 17.1427 25.7145 14.5798 25.7145 11.4284V9.90411C25.7145 7.59411 23.8345 5.71411 21.5245 5.71411H18.4759C16.1659 5.71411 14.2859 7.59411 14.2859 9.90411V11.4284ZM17.143 9.90411C17.143 9.1684 17.7402 8.57125 18.4759 8.57125H21.5245C22.2602 8.57125 22.8573 9.1684 22.8573 9.90411V11.4284C22.8573 13.0041 21.5759 14.2855 20.0002 14.2855C18.4245 14.2855 17.143 13.0041 17.143 11.4284V9.90411Z" fill="white"/>
<path d="M34.6558 11.4287H31.4287H28.2015C27.4129 11.4287 26.7729 12.0687 26.7729 12.8573C26.7729 13.6459 27.4129 14.2859 28.2015 14.2859H34.6558C36.0272 14.2859 37.143 15.4016 37.143 16.773V20.0001H35.4287C34.6944 20.0001 34.0801 20.5559 34.0072 21.2859L32.9929 31.4287H28.5715C27.783 31.4287 27.143 32.0687 27.143 32.8573C27.143 33.6459 27.783 34.2859 28.5715 34.2859H34.2858C35.0201 34.2859 35.6344 33.7301 35.7072 33.0001L36.7201 22.8573H38.5715C39.3601 22.8573 40.0001 22.2173 40.0001 21.4287V16.773C40.0001 13.8259 37.603 11.4287 34.6558 11.4287Z" fill="white"/>
<path d="M1.42857 22.8573H3.27857L4.29143 33.0001C4.36571 33.7301 4.98 34.2859 5.71429 34.2859H11.4286C12.2171 34.2859 12.8571 33.6459 12.8571 32.8573C12.8571 32.0687 12.2171 31.4287 11.4286 31.4287H7.00714L5.99429 21.2859C5.92 20.5559 5.30571 20.0001 4.57143 20.0001H2.85714V16.773C2.85714 15.4016 3.97286 14.2859 5.34429 14.2859H11.7986C12.5871 14.2859 13.2271 13.6459 13.2271 12.8573C13.2271 12.0687 12.5871 11.4287 11.7986 11.4287H8.57143H5.34429C2.39714 11.4287 0 13.8259 0 16.773V21.4287C0 22.2173 0.64 22.8573 1.42857 22.8573Z" fill="white"/>
<path d="M37.1427 5.71429V4.19C37.1427 1.88 35.2627 0 32.9527 0H29.9041C27.5941 0 25.7141 1.88 25.7141 4.19V5.71429C25.7141 8.86572 28.277 11.4286 31.4284 11.4286C34.5798 11.4286 37.1427 8.86572 37.1427 5.71429ZM34.2855 5.71429C34.2855 7.29 33.0041 8.57143 31.4284 8.57143C29.8527 8.57143 28.5713 7.29 28.5713 5.71429V4.19C28.5713 3.45429 29.1684 2.85714 29.9041 2.85714H32.9527C33.6884 2.85714 34.2855 3.45429 34.2855 4.19V5.71429Z" fill="white"/>
<path d="M14.2855 5.71429V4.19C14.2855 1.88 12.4055 0 10.0955 0H7.04693C4.73693 0 2.85693 1.88 2.85693 4.19V5.71429C2.85693 8.86572 5.41979 11.4286 8.57122 11.4286C11.7226 11.4286 14.2855 8.86572 14.2855 5.71429ZM11.4284 5.71429C11.4284 7.29 10.1469 8.57143 8.57122 8.57143C6.9955 8.57143 5.71408 7.29 5.71408 5.71429V4.19C5.71408 3.45429 6.31122 2.85714 7.04693 2.85714H10.0955C10.8312 2.85714 11.4284 3.45429 11.4284 4.19V5.71429Z" fill="white"/>
</svg>
