<svg width="37" height="39" viewBox="0 0 37 39" fill="none" xmlns="http://www.w3.org/2000/svg">
<path d="M10 6H6C3.79086 6 2 7.7349 2 9.875V33.125C2 35.2652 3.79086 37 6 37H10M22 6H26C28.2092 6 30 7.7349 30 9.875V13.75" stroke="white" stroke-width="3" stroke-linecap="round" stroke-linejoin="round"/>
<path d="M21.4873 36.1026L17 37L17.8974 32.5129C17.977 32.1156 18.1721 31.7508 18.4586 31.4643L26.8186 23.1042L30.9227 19L35 23.0773L30.8958 27.1814L22.5359 35.5414C22.2494 35.8279 21.8846 36.0232 21.4873 36.1026Z" stroke="white" stroke-width="3" stroke-linecap="round" stroke-linejoin="round"/>
<path d="M9 5.5C9 3.567 10.9401 2 13.3333 2H17.6667C20.06 2 22 3.567 22 5.5V9H9V5.5Z" stroke="white" stroke-width="3" stroke-linecap="round" stroke-linejoin="round"/>
</svg>
