<svg width="40" height="40" viewBox="0 0 40 40" fill="none" xmlns="http://www.w3.org/2000/svg">
<path fill-rule="evenodd" clip-rule="evenodd" d="M20 3.63636C10.9626 3.63636 3.63636 10.9626 3.63636 20C3.63636 21.4851 3.83418 22.9238 4.20489 24.2915C4.95245 23.7362 5.78242 23.2495 6.68862 22.8578C5.91285 21.8031 5.45453 20.5005 5.45453 19.0909C5.45453 15.5764 8.30362 12.7273 11.8182 12.7273C15.3327 12.7273 18.1818 15.5764 18.1818 19.0909C18.1818 20.5005 17.7235 21.8033 16.9476 22.8578C17.7755 23.2155 18.5405 23.6527 19.2378 24.1502C19.2605 24.1665 19.2831 24.1833 19.3049 24.2005C20.0382 23.4145 20.8975 22.6953 21.8698 22.0822C20.1776 20.7505 19.0909 18.684 19.0909 16.3636C19.0909 12.347 22.3469 9.09091 26.3636 9.09091C30.3802 9.09091 33.6364 12.347 33.6364 16.3636C33.6364 17.8355 33.1991 19.2053 32.4475 20.35C33.8531 20.6676 35.1295 21.1869 36.2604 21.848C36.3285 21.2415 36.3636 20.6247 36.3636 20C36.3636 10.9626 29.0375 3.63636 20 3.63636ZM17.2558 27.1951C17.2116 27.1689 17.1684 27.1407 17.1258 27.1104C15.7421 26.1233 13.9617 25.4545 11.8182 25.4545C9.20287 25.4545 7.11042 26.4529 5.62775 27.83C8.40364 32.9144 13.799 36.3636 20 36.3636C27.0642 36.3636 33.0829 31.8873 35.3744 25.6164C35.3429 25.596 35.312 25.5745 35.2815 25.552C33.7611 24.426 31.7353 23.6364 29.2556 23.6364C23.2429 23.6364 20 28.2345 20 30.9091C20 31.9133 19.186 32.7273 18.1818 32.7273C17.1776 32.7273 16.3636 31.9133 16.3636 30.9091C16.3636 29.7064 16.6725 28.4322 17.2558 27.1951ZM0 20C0 8.95431 8.95431 0 20 0C31.0456 0 40 8.95431 40 20C40 31.0456 31.0456 40 20 40C8.95431 40 0 31.0456 0 20ZM26.3636 12.7273C24.3553 12.7273 22.7273 14.3553 22.7273 16.3636C22.7273 18.372 24.3553 20 26.3636 20C28.372 20 30 18.372 30 16.3636C30 14.3553 28.372 12.7273 26.3636 12.7273ZM9.09089 19.0909C9.09089 17.5847 10.3119 16.3636 11.8182 16.3636C13.3244 16.3636 14.5454 17.5847 14.5454 19.0909C14.5454 20.5971 13.3244 21.8182 11.8182 21.8182C10.3119 21.8182 9.09089 20.5971 9.09089 19.0909Z" fill="white"/>
</svg>
