<svg width="38" height="39" viewBox="0 0 38 39" fill="none" xmlns="http://www.w3.org/2000/svg">
<path d="M26.625 9.75C28.9032 9.75 30.75 7.90317 30.75 5.625C30.75 3.34683 28.9032 1.5 26.625 1.5C24.3468 1.5 22.5 3.34683 22.5 5.625C22.5 7.90317 24.3468 9.75 26.625 9.75Z" stroke="white" stroke-width="3" stroke-miterlimit="10" stroke-linecap="round" stroke-linejoin="round"/>
<path d="M6 9.7501L9.85 5.9001C11.5 4.2501 14.25 4.2501 15.9 5.9001L26.7625 16.7626C28.275 18.2751 30.6125 18.4126 32.4 17.0376L36.25 13.8751" stroke="white" stroke-width="3" stroke-miterlimit="10" stroke-linecap="round" stroke-linejoin="round"/>
<path d="M18.3751 9.75L11.9126 16.2125C9.85011 18.275 10.5376 21.9875 13.2876 23.0875L18.6501 25.15C20.1626 25.7 21.2626 27.2125 21.2626 28.8625V37.1125" stroke="white" stroke-width="3" stroke-miterlimit="10" stroke-linecap="round" stroke-linejoin="round"/>
<path d="M14.25 23.5L10.675 27.075C9.575 28.175 7.7875 28.175 6.825 27.075L1.875 22.125" stroke="white" stroke-width="3" stroke-miterlimit="10" stroke-linecap="round" stroke-linejoin="round"/>
<path d="M17 20.75L23.875 13.875" stroke="white" stroke-width="3" stroke-miterlimit="10" stroke-linecap="round" stroke-linejoin="round"/>
</svg>
