<svg width="72" height="45" viewBox="0 0 72 45" fill="none" xmlns="http://www.w3.org/2000/svg">
<g clip-path="url(#clip0_112_3746)">
<path d="M5.70161 1.97074C7.41438 1.97074 9.12715 1.96845 10.8399 1.9715C11.4807 1.97303 11.9342 2.294 12.0907 2.83607C12.1544 3.0564 12.1514 3.18906 11.8459 3.18372C11.3341 3.17457 10.8315 3.2653 10.3304 3.37966C9.26144 3.62439 8.70816 4.31589 8.52476 5.35123C8.42731 5.90245 8.37512 6.45671 8.37512 7.01708C8.37819 15.3219 8.37896 23.6268 8.38126 31.9316C8.38126 32.6101 7.90396 33.1347 7.21947 33.1385C4.93194 33.1507 2.64364 33.1423 0.355344 33.1499C0.135109 33.1499 0.0990424 33.0813 0.142015 32.8823C0.251749 32.3784 0.65999 31.9522 1.21787 31.8759C2.91606 31.6427 3.60822 30.9481 3.78779 29.0688C3.82002 28.728 3.83844 28.3849 3.83844 28.0426C3.8415 21.0582 3.84074 14.0739 3.84074 7.08951C3.84074 6.40258 3.79163 5.72176 3.61206 5.05237C3.37648 4.17256 2.8163 3.62744 1.93536 3.40253C1.65143 3.3301 1.35906 3.28512 1.07744 3.20659C0.581718 3.06707 0.27784 2.74077 0.145085 2.24216C0.0844624 2.01496 0.147387 1.96312 0.370691 1.9654C1.34218 1.97531 2.31367 1.96998 3.28516 1.97074C4.09013 1.97074 4.89587 1.97074 5.70084 1.97074H5.70161Z" fill="#010005"/>
<path d="M47.0522 2.21385C48.2278 2.21385 49.4041 2.22605 50.5798 2.20622C50.9067 2.20089 50.942 2.32211 50.8821 2.58514C50.7969 2.96024 50.6066 3.27587 50.3043 3.50231C49.9812 3.74475 49.9144 4.04056 49.9966 4.40804C50.2168 5.38925 50.6043 6.31633 50.9327 7.26247C52.8335 12.7281 54.7565 18.1862 56.6443 23.6564C57.3188 25.6112 58.0148 27.5568 58.71 29.504C58.7799 29.6992 58.7722 29.8631 58.6962 30.0507C58.2558 31.1317 57.8237 32.2166 57.3909 33.3008C57.084 34.0685 56.3204 34.2523 55.6943 33.7056C55.3781 33.4296 55.1886 33.0774 55.0528 32.6855C52.5135 25.3611 49.9712 18.0383 47.4289 10.7154C46.8879 9.1578 46.4022 7.57887 45.5942 6.12726C45.1521 5.33436 44.648 4.58949 43.9167 4.02455C43.4962 3.69977 43.0342 3.45961 42.4924 3.42683C42.2922 3.41463 42.2638 3.33763 42.2991 3.16456C42.4096 2.61335 42.9022 2.21995 43.5246 2.2169C44.7002 2.21156 45.8765 2.21537 47.0522 2.21537V2.21385Z" fill="#010005"/>
<path d="M34.1234 19.6748C34.1234 22.6588 34.1226 25.6436 34.1257 28.6277C34.1257 28.8427 34.1426 29.0607 34.1771 29.2726C34.468 31.0475 35.3351 31.7695 37.3525 31.9266C37.8996 31.9693 37.971 32.1027 37.6748 32.5754C37.4154 32.9909 37.0241 33.1495 36.5383 33.1487C33.7512 33.1434 30.9649 33.1464 28.1778 33.1472C27.7435 33.1472 27.3076 33.1296 26.8741 33.154C26.5978 33.1693 26.5794 33.0458 26.6277 32.8399C26.7306 32.3977 27.0007 32.0981 27.4212 31.9319C27.5148 31.8945 27.6169 31.874 27.7166 31.8549C29.4294 31.524 30.153 30.7304 30.3081 28.9974C30.3372 28.6688 30.3503 28.3379 30.351 28.0086C30.3541 23.6903 30.3541 19.3721 30.3526 15.0546C30.3526 13.802 29.81 13.2866 28.5393 13.3057C27.9614 13.3148 27.4343 13.5039 26.9201 13.728C26.5901 13.8721 26.5763 13.7288 26.6339 13.4772C26.772 12.8673 27.1158 12.3984 27.6982 12.1674C29.2383 11.5552 30.7869 10.9628 32.34 10.3841C32.7821 10.2195 33.2609 10.1867 33.7313 10.1333C34.0352 10.099 34.1142 10.1897 34.1134 10.4932C34.1019 13.5542 34.1065 16.6145 34.1065 19.6755C34.1127 19.6755 34.118 19.6755 34.1242 19.6755L34.1234 19.6748Z" fill="#010005"/>
<path d="M35.9912 36.2309C47.7043 36.2309 59.4167 36.2309 71.1298 36.2309C71.258 36.2309 71.3876 36.2195 71.5127 36.2386C71.7813 36.279 71.9686 36.42 71.9662 36.712C71.9639 37.0025 71.7798 37.1435 71.5081 37.1801C71.3953 37.1954 71.2787 37.1855 71.1636 37.1855C47.7765 37.1855 24.3893 37.1855 1.0022 37.1855C0.835684 37.1855 0.669932 37.1885 0.503412 37.1824C0.207975 37.171 0.00922642 37.0368 0.000785355 36.7257C-0.00842308 36.3926 0.197232 36.2515 0.508017 36.2325C0.610077 36.2264 0.712904 36.2309 0.814965 36.2309C12.5404 36.2309 24.2658 36.2309 35.992 36.2309H35.9912Z" fill="#AA4942"/>
<path d="M60.481 25.5214C59.9231 23.8121 59.9753 22.218 60.5953 20.6299C61.6558 17.9104 62.8261 15.2328 63.7584 12.4653C64.3846 10.6081 64.888 8.71887 64.9095 6.73967C64.9302 4.8695 64.0938 3.85855 62.2429 3.50937C61.6766 3.40264 61.2967 3.11598 61.1225 2.55409C61.0335 2.26818 61.1148 2.20872 61.3934 2.20948C63.8352 2.21787 66.2762 2.21405 68.7179 2.21405C69.4086 2.21405 70.0984 2.20719 70.7891 2.21634C71.3638 2.2232 71.8549 2.60745 71.9616 3.12817C71.9831 3.2311 72.0775 3.39501 71.8511 3.41484C70.7062 3.51547 69.9534 4.23442 69.2904 5.0601C68.3097 6.28147 67.6413 7.68124 67.0627 9.12218C64.9164 14.4697 62.777 19.8194 60.6345 25.1684C60.5969 25.2622 60.5547 25.3529 60.481 25.5207V25.5214Z" fill="#010005"/>
<path d="M19.9116 34.2972C19.4082 34.2545 19.01 34.1021 18.789 33.7071C18.5419 33.2665 18.1743 33.1407 17.7054 33.143C16.3503 33.1498 14.9951 33.146 13.6399 33.146C13.2301 33.146 13.201 33.1087 13.3261 32.7153C13.5087 32.1389 13.887 31.7607 14.4794 31.5999C15.9735 31.195 17.2519 30.4448 18.2556 29.2608C19.0752 28.2949 19.6292 27.1871 19.983 25.9802C20.2431 25.0905 20.781 24.4905 21.6988 24.2633C22.1447 24.1527 22.1731 24.184 22.0825 24.614C21.4233 27.7566 20.7634 30.8992 20.105 34.0418C20.0751 34.1844 20.0651 34.3369 19.9124 34.2972H19.9116Z" fill="#010005"/>
<path d="M32.1926 0.000108984C33.5531 0.0130698 34.5576 1.02935 34.5407 2.37652C34.5246 3.64515 33.491 4.63246 32.1857 4.62484C30.8919 4.61721 29.8674 3.59636 29.8805 2.3262C29.8943 1.00114 30.9011 -0.0120894 32.1926 0.000108984Z" fill="#010005"/>
<path d="M3.63722 41.4992C4.16901 41.3246 4.54732 41.0524 4.61562 40.5012C4.70924 39.751 4.22196 39.1639 3.38092 39.1235C2.43936 39.0785 1.49396 39.1136 0.463379 39.1136C1.1095 39.2829 1.12639 39.3004 1.12946 39.9408C1.13406 40.842 1.13022 41.7439 1.13176 42.645C1.13176 42.8486 1.13943 43.0545 1.0696 43.2473C0.980586 43.4921 0.712007 43.4151 0.541651 43.5477H2.76165C2.36364 43.4069 2.16438 43.1066 2.16387 42.6466C2.16387 42.3927 2.15466 42.1381 2.16771 41.8849C2.17308 41.7713 2.08637 41.6097 2.25212 41.5525C2.42401 41.4938 2.5276 41.6059 2.62276 41.7439C2.99954 42.2867 3.38706 42.8227 3.77151 43.3602C3.82906 43.441 3.86666 43.5683 3.9764 43.5706C4.42454 43.582 4.87345 43.5752 5.3216 43.5752C4.54041 43.0247 4.22809 42.1708 3.63722 41.4992ZM3.38783 40.9647C3.12538 41.352 2.71484 41.3093 2.32195 41.3208C2.17538 41.3253 2.1608 41.2445 2.16234 41.1294C2.16694 40.8511 2.16387 40.5728 2.16387 40.2946C2.16387 40.1688 2.14545 40.0392 2.16771 39.9164C2.20531 39.7136 2.02574 39.43 2.29049 39.3187C2.62966 39.1769 3.18754 39.3682 3.36941 39.6259C3.60039 39.9522 3.61343 40.6323 3.38783 40.9647Z" fill="#020202"/>
<path d="M65.4397 43.8846C65.3859 43.4896 65.0759 43.2464 64.5464 43.2144C64.1896 43.1931 63.8305 43.2053 63.4729 43.1946C63.3071 43.19 63.1583 43.1313 63.1529 42.94C63.1468 42.7394 63.2864 42.6487 63.4683 42.6236C63.5565 42.6114 63.6471 42.619 63.7361 42.6236C64.2403 42.648 64.6823 42.5046 64.9815 42.0899C65.2517 41.7155 65.1442 41.3259 64.8848 40.9402C64.9915 40.9402 65.0552 40.9501 65.1135 40.9379C65.2386 40.9104 65.4381 41.0317 65.4397 40.7541C65.4412 40.4926 65.2639 40.5582 65.1243 40.5552C64.7559 40.5475 64.3891 40.5567 64.0208 40.4835C63.6241 40.4042 63.2327 40.4591 62.8874 40.7054C62.2482 41.162 62.2842 42.0068 62.9618 42.4078C63.0416 42.4551 63.159 42.4574 63.1882 42.5755C62.4316 42.9979 62.341 43.3974 62.9066 43.944C62.6602 44.0332 62.4385 44.1217 62.4446 44.4083C62.4515 44.6904 62.6756 44.7979 62.8943 44.8612C63.522 45.0434 64.1574 45.0549 64.779 44.8406C65.244 44.6805 65.4949 44.2947 65.4397 43.8846ZM63.4453 40.9356C63.5205 40.7648 63.6386 40.6802 63.8282 40.681C64.01 40.681 64.1121 40.7778 64.1666 40.9333C64.3055 41.3282 64.3016 41.7315 64.1873 42.1272C64.1367 42.3018 64.0039 42.4391 63.7913 42.4238C63.5895 42.4093 63.4598 42.282 63.4161 42.0967C63.3724 41.9138 63.3662 41.7224 63.3516 41.6004C63.3762 41.3321 63.3616 41.1285 63.4453 40.9356ZM64.7191 44.6127C64.4705 44.7766 64.1896 44.7598 63.9118 44.7674C63.6601 44.7575 63.4015 44.7941 63.1744 44.6409C63.0501 44.557 62.968 44.4495 62.9925 44.2947C63.0171 44.1392 63.1291 44.05 63.2787 44.0348C63.733 43.9875 64.1888 43.973 64.6401 44.0622C64.769 44.0881 64.8833 44.1598 64.8987 44.3039C64.9132 44.4411 64.8327 44.5379 64.7191 44.6127Z" fill="#030303"/>
<path d="M35.5085 39.0981H37.8789C37.6149 39.2346 37.3202 39.1446 37.2143 39.4199C37.1292 39.6417 37.1622 39.872 37.1614 40.0984C37.1568 40.9866 37.156 41.8748 37.1614 42.763C37.1645 43.2197 37.242 43.2898 37.6947 43.2959C37.8351 43.2975 37.9756 43.2921 38.116 43.2982C38.6693 43.3226 39.0384 43.0619 39.2578 42.5724C39.343 42.3826 39.4198 42.1882 39.4996 41.9953C39.5364 42.0006 39.5732 42.0067 39.6093 42.012C39.5517 42.5107 39.4973 43.0093 39.4336 43.5071C39.4244 43.5826 39.3369 43.5811 39.2747 43.5811C38.0155 43.5826 36.7562 43.5818 35.4885 43.5818C35.5 43.4225 35.596 43.4545 35.6558 43.4553C35.9735 43.4568 36.0802 43.2746 36.0802 42.9917C36.0802 41.8748 36.074 40.7587 36.0832 39.6417C36.0871 39.2346 35.8024 39.1934 35.5069 39.0989L35.5085 39.0981Z" fill="#020202"/>
<path d="M59.0684 43.5657H57.493C57.9166 43.3492 57.8575 43.029 57.8559 42.7255C57.8536 42.2437 57.8536 41.7619 57.8513 41.2793C57.8506 41.1214 57.8237 40.9705 57.6533 40.9042C57.4799 40.8363 57.3618 40.9484 57.2528 41.0528C57.1001 41.1992 57.0218 41.3769 57.0264 41.5964C57.0349 42.015 57.0318 42.4335 57.0279 42.8521C57.0256 43.1167 57.0164 43.3804 57.2981 43.5535H55.8186C56.1248 43.4148 56.1094 43.1532 56.1109 42.9047C56.114 42.3337 56.1125 41.7634 56.1109 41.1924C56.1109 40.9308 56.1209 40.6632 55.8086 40.4948C56.1577 40.4948 56.5077 40.5024 56.8568 40.4925C57.1576 40.4841 56.9458 40.757 57.0809 40.8592C57.2298 40.7593 57.374 40.6388 57.5382 40.5557C58.1376 40.2531 58.7277 40.5893 58.7607 41.2648C58.7875 41.8213 58.7745 42.3809 58.7798 42.9383C58.7821 43.1807 58.7668 43.4346 59.0676 43.5657H59.0684Z" fill="#020202"/>
<path d="M50.8038 40.4952C51.2703 40.4952 51.6333 40.4868 51.9947 40.4982C52.205 40.5051 52.1244 40.6842 52.1252 40.7917C52.1321 41.5015 52.1259 42.2113 52.1298 42.9219C52.1313 43.1628 52.1275 43.4152 52.4429 43.576C52.063 43.576 51.6816 43.5958 51.3041 43.5676C51.1276 43.5547 51.2703 43.342 51.1713 43.2246C50.9411 43.4136 50.7094 43.5989 50.3848 43.6149C49.8806 43.6385 49.5292 43.3847 49.4969 42.8853C49.4601 42.3165 49.4747 41.7455 49.4662 41.1752C49.4601 40.7719 49.4563 40.765 49.0496 40.4959C49.52 40.4959 49.8921 40.4868 50.2635 40.4997C50.44 40.5058 50.3855 40.6621 50.3863 40.765C50.3909 41.4245 50.384 42.084 50.3971 42.7427C50.4009 42.9425 50.3479 43.2215 50.6787 43.2246C50.9757 43.2276 51.1798 43.0126 51.1936 42.758C51.2274 42.1397 51.1905 41.5175 51.1913 40.8962C51.1913 40.6926 51.004 40.6621 50.803 40.4944L50.8038 40.4952Z" fill="#020202"/>
<path d="M26.2294 40.4586C25.3899 40.4647 24.8029 41.1302 24.8144 42.0619C24.8259 43.0103 25.3937 43.6164 26.2708 43.6157C27.1472 43.6141 27.7219 42.9699 27.7089 42.0039C27.6958 41.0799 27.0942 40.4517 26.2294 40.4586ZM26.7389 42.1305C26.7067 42.4027 26.742 42.7328 26.6553 43.0553C26.6 43.2619 26.4903 43.4022 26.2678 43.4068C26.0475 43.4113 25.901 43.2794 25.8611 43.0759C25.7237 42.3745 25.7421 41.6692 25.8787 40.9694C25.9171 40.7742 26.066 40.6789 26.2724 40.6789C26.5072 40.6789 26.6169 40.8283 26.6683 41.022C26.7604 41.3673 26.7382 41.7234 26.7389 42.1305Z" fill="#030303"/>
<path d="M44.4314 40.4586C43.5889 40.4502 42.9819 41.1059 42.978 42.0291C42.9742 42.9722 43.5482 43.6111 44.4069 43.6172C45.2809 43.6241 45.8733 43.005 45.8841 42.0756C45.8956 41.1264 45.3039 40.4677 44.4314 40.4586ZM44.8251 43.0622C44.7668 43.2604 44.6563 43.4121 44.4299 43.4106C44.2104 43.4091 44.0662 43.2741 44.0301 43.0698C43.9073 42.3676 43.9066 41.6632 44.0493 40.9633C44.0846 40.7895 44.2135 40.6926 44.4077 40.682C44.621 40.6705 44.7445 40.7742 44.8128 40.9572C44.951 41.3231 44.8957 41.7059 44.9118 42.0924C44.8819 42.4096 44.9187 42.742 44.8251 43.0622Z" fill="#030303"/>
<path d="M70.2398 43.0459C69.8561 42.9339 69.698 42.6121 69.6028 42.2553C69.543 42.0335 69.566 41.8985 69.8637 41.9184C70.2574 41.945 70.6541 41.929 71.0493 41.9252C71.136 41.9245 71.2588 41.9725 71.2473 41.7903C71.2158 41.2779 71.0447 40.835 70.5751 40.5842C70.1446 40.3539 69.7118 40.4195 69.3166 40.7039C68.7273 41.1277 68.6022 41.7392 68.6943 42.3949C68.8362 43.4127 69.7709 43.9387 70.5874 43.4798C70.9074 43.2991 71.1475 43.0345 71.2373 42.6106C71.1491 42.6495 71.1015 42.6548 71.0846 42.6808C70.8805 42.9827 70.6073 43.1542 70.2398 43.0459ZM70.0349 40.6817C70.3034 40.6833 70.4339 40.9654 70.4508 41.4617C70.4654 41.8871 70.1484 41.6218 69.998 41.7232C69.8568 41.6157 69.5545 41.8802 69.5445 41.5074C69.5322 41.0454 69.7555 40.681 70.0349 40.6817Z" fill="#030303"/>
<path d="M9.52298 41.9215C9.91741 41.9413 10.3134 41.9291 10.7086 41.9253C10.8106 41.9238 10.9572 41.9756 10.9388 41.7759C10.892 41.2742 10.7377 40.8236 10.2558 40.5789C9.81919 40.357 9.39023 40.4203 8.99964 40.7108C8.27064 41.2513 8.13711 42.5558 8.74564 43.2321C9.08789 43.6125 9.5368 43.6857 10.0072 43.5812C10.4929 43.4737 10.7631 43.1238 10.8705 42.629C10.8398 42.6488 10.7999 42.6625 10.7799 42.69C10.5658 42.9759 10.2988 43.1596 9.92816 43.0453C9.52912 42.921 9.37872 42.5863 9.29047 42.2135C9.24443 42.0168 9.27512 41.9101 9.52298 41.9215ZM9.23752 41.4968C9.24289 41.0402 9.44318 40.691 9.70025 40.678C9.9788 40.6635 10.1123 40.9327 10.1438 41.4358C10.1722 41.8803 9.84451 41.6318 9.67569 41.721C9.54217 41.615 9.23369 41.8826 9.23752 41.4968Z" fill="#030303"/>
<path d="M19.6079 40.7938C20.096 40.3592 20.5195 39.9132 20.8595 39.314C20.9807 39.6441 20.9293 39.9285 20.9216 40.2006C20.9147 40.4339 20.9784 40.53 21.2186 40.4957C21.3184 40.4812 21.4227 40.4942 21.5248 40.4942C21.6453 40.4942 21.6683 40.5681 21.6721 40.6688C21.676 40.7785 21.6253 40.8151 21.521 40.8426C21.3276 40.8937 21.049 40.6932 20.9485 40.9554C20.8756 41.1445 20.9301 41.3816 20.9301 41.5974C20.9301 41.9397 20.9216 42.2828 20.9339 42.6251C20.9416 42.8302 20.8541 43.0879 21.0997 43.2076C21.3468 43.328 21.4373 43.0474 21.6054 42.9506C21.5662 43.3631 21.2608 43.6162 20.8111 43.6177C20.373 43.6192 20.0484 43.3608 20.0323 42.9483C20.01 42.3781 20.0039 41.8055 20.0284 41.2352C20.0407 40.9402 19.9839 40.774 19.6087 40.7938H19.6079Z" fill="#030303"/>
<path d="M16.1048 40.4292C16.2069 40.8165 16.1701 41.1642 16.1923 41.5141C15.989 41.5309 16.0143 41.3723 15.9721 41.2884C15.8501 41.0429 15.7012 40.818 15.438 40.7174C15.2577 40.6488 15.0497 40.6312 14.9331 40.8447C14.8287 41.0368 14.963 41.1535 15.1011 41.2549C15.3973 41.4745 15.7089 41.6757 15.9913 41.9113C16.3811 42.2361 16.4586 42.6768 16.2368 43.1098C16.0112 43.5489 15.5262 43.7167 14.9446 43.5497C14.7504 43.4941 14.5571 43.3812 14.376 43.6656C14.2662 43.2554 14.2877 42.9062 14.2762 42.5403C14.4611 42.5799 14.4473 42.721 14.4964 42.8109C14.6169 43.0275 14.7704 43.2104 14.9891 43.3286C15.194 43.4392 15.4157 43.4834 15.5746 43.2661C15.7388 43.042 15.6145 42.8514 15.4319 42.708C15.1717 42.5037 14.8878 42.3291 14.6323 42.1194C14.1949 41.7604 14.1051 41.338 14.3476 40.908C14.5793 40.4978 15.0382 40.3362 15.5462 40.526C15.7549 40.6038 15.923 40.6236 16.1048 40.43V40.4292Z" fill="#040404"/>
</g>
<defs>
<clipPath id="clip0_112_3746">
<rect width="72" height="45" fill="white"/>
</clipPath>
</defs>
</svg>
