<svg width="58" height="61" viewBox="0 0 58 61" fill="none" xmlns="http://www.w3.org/2000/svg">
<g clip-path="url(#clip0_112_3778)">
<path d="M5.82128 56.8834C5.39345 58.1054 5.01105 59.1659 4.65326 60.2359C4.53778 60.5799 4.45827 60.846 3.985 60.846C3.53066 60.846 3.3849 60.6217 3.26374 60.2701C2.89838 59.1982 2.52165 58.132 1.99917 57.0544C1.90641 58.0807 1.73603 59.1051 1.73981 60.1295C1.7436 61.1558 1.04884 60.7776 0.569895 60.8327C-0.166511 60.9182 0.0549789 60.3557 0.083375 60.006C0.229142 58.1795 0.397625 56.3531 0.57936 54.5305C0.613436 54.196 0.499851 53.66 1.10185 53.7284C1.62434 53.7874 2.30016 53.3654 2.59548 54.2625C2.96463 55.3857 3.44547 56.4728 3.95282 57.7652C4.43745 56.5146 4.92018 55.4541 5.25715 54.348C5.52407 53.4757 6.15446 53.7589 6.70535 53.7094C7.3755 53.6486 7.27138 54.1827 7.30734 54.5476C7.49287 56.4025 7.65946 58.2612 7.8109 60.12C7.83551 60.4165 8.01157 60.9106 7.40011 60.827C6.95713 60.7662 6.30591 61.1862 6.19611 60.2492C6.07306 59.1906 6.20368 58.1016 5.81939 56.8853L5.82128 56.8834Z" fill="#212121"/>
<path d="M21.2195 56.3799C21.2195 57.0432 21.2346 57.7084 21.2176 58.3717C21.1703 60.0746 20.2578 60.964 18.5427 60.9983C16.7291 61.0344 15.7239 60.1981 15.6557 58.499C15.5989 57.1097 15.6652 55.7166 15.6179 54.3273C15.5933 53.588 16.059 53.7382 16.4849 53.7077C16.9866 53.6716 17.3122 53.7153 17.2819 54.3862C17.2289 55.5532 17.2554 56.7239 17.2819 57.8947C17.3084 58.9913 17.6397 59.3733 18.4632 59.3543C19.4267 59.3296 19.5479 58.6625 19.5517 57.9118C19.5574 56.7429 19.6028 55.5703 19.5384 54.4052C19.4949 53.6279 19.9492 53.7287 20.4282 53.7096C20.928 53.6887 21.2857 53.7249 21.2308 54.3938C21.1759 55.0533 21.2195 55.7204 21.2195 56.3837V56.3799Z" fill="#212121"/>
<path d="M55.8494 60.9941C54.193 60.9998 52.7088 60.0191 52.1277 58.5899C51.5787 57.2405 51.927 55.7524 53.0401 54.6957C54.2025 53.5915 56.0425 53.2532 57.4226 53.9051C57.752 54.0609 58.2006 54.1882 57.8107 54.7052C57.5608 55.034 57.6687 55.7581 56.8206 55.3742C55.9025 54.958 54.9502 55.1157 54.2138 55.8797C53.6459 56.4689 53.4907 57.1911 53.769 57.9817C54.1551 59.0803 55.5049 59.7169 56.7562 59.1905C57.7122 58.7895 57.6289 59.5611 57.8542 59.9564C58.2177 60.5988 57.5456 60.6102 57.2484 60.7375C56.7922 60.9333 56.2868 61.0283 55.8513 60.9941H55.8494Z" fill="#212121"/>
<path d="M31.7411 60.9907C31.1315 61.0192 30.5579 60.8653 30.0033 60.6296C29.0018 60.2039 28.9848 60.05 29.5489 59.1358C29.8121 58.7101 30.0279 58.75 30.3686 58.9781C30.8173 59.2802 31.2962 59.5311 31.8642 59.4342C32.1841 59.3791 32.4927 59.2593 32.5495 58.883C32.5987 58.5599 32.4056 58.349 32.1368 58.2045C31.7468 57.9974 31.353 57.8016 30.9669 57.5888C29.9313 57.0205 29.5016 56.1652 29.7439 55.1751C29.9597 54.2932 30.9082 53.6394 31.9778 53.6147C32.4567 53.6033 32.9394 53.6242 33.3559 53.8637C33.6437 54.029 34.3176 53.9568 34.0015 54.6239C33.7762 55.1009 33.6134 55.7775 32.8183 55.2283C32.6271 55.0971 32.3393 55.0819 32.0913 55.0667C31.7582 55.0477 31.4477 55.1694 31.3284 55.5057C31.1902 55.8916 31.478 56.0854 31.7638 56.2394C32.0686 56.4028 32.381 56.5492 32.6952 56.6974C34.0431 57.3322 34.5467 58.1247 34.3138 59.2441C34.0791 60.3674 33.1666 60.9888 31.7449 60.9926L31.7411 60.9907Z" fill="#212121"/>
<path d="M43.9685 57.3264C43.9685 58.307 43.9363 59.2896 43.9818 60.2684C44.012 60.9621 43.5691 60.831 43.1772 60.8272C42.7948 60.8234 42.3632 60.9811 42.3783 60.276C42.4181 58.2842 42.4143 56.2887 42.3783 54.2969C42.3651 53.6241 42.7588 53.702 43.1715 53.7096C43.571 53.7172 44.0083 53.6089 43.9799 54.2893C43.9382 55.3004 43.9685 56.3134 43.9704 57.3264H43.9685Z" fill="#212121"/>
<path d="M5.14717 18.863C7.1614 17.354 9.17563 15.845 11.1899 14.3359C11.5855 14.8966 11.1709 15.2007 10.8094 15.5105C10.6182 15.6758 10.3455 15.7119 10.1506 15.8792C9.98397 16.0217 9.68865 16.2897 9.79277 16.3809C10.5727 17.0651 9.91393 18.3043 10.7904 18.9144C11.595 19.4731 11.7426 20.2466 11.5798 21.1418C10.1335 22.5463 8.39568 23.5783 6.85851 24.8688C6.28301 25.3515 5.99716 25.7297 6.54236 26.4196C7.3242 27.4098 7.44725 27.4953 8.33321 26.8244C10.9116 24.8726 13.471 22.8979 16.0191 20.9061C16.3977 20.6096 16.7725 20.3493 17.2174 20.182C17.5033 20.4614 17.3745 20.7066 17.1171 20.8871C16.8255 21.0924 16.6684 21.4117 16.4091 21.6416C15.879 22.1073 16.0797 22.5254 16.5037 22.9131C16.7366 23.126 17.0167 23.2742 17.2685 23.4662C17.7153 23.8045 17.9141 24.2226 17.721 24.7871C17.6433 25.017 17.4578 25.3135 17.7115 25.4827C18.0371 25.6993 18.1942 25.3135 18.3892 25.1463C18.7962 24.8023 19.1938 24.5134 19.7106 24.9429C18.6826 26.1155 17.3196 26.8739 16.1175 27.8279C14.2529 29.3085 12.3276 30.7168 10.3834 32.0909C9.1283 32.9784 7.72175 33.4593 6.13535 33.2787C5.30997 33.1837 4.60764 32.7618 4.06622 32.2562C2.5139 30.8118 1.26447 29.0823 0.416376 27.1399C-0.36357 25.3496 -0.0341755 23.6258 1.27962 22.1206C1.86079 21.4535 2.44197 20.7997 3.21813 20.355C3.56456 20.1383 3.83148 19.819 4.17981 19.6024C4.5641 19.437 4.98436 19.3173 5.14527 18.8611L5.14717 18.863Z" fill="#AC2F01"/>
<path d="M19.7107 24.9446C19.0481 24.7678 18.6752 25.1955 18.2682 25.6041C18.0808 25.7903 17.9009 26.2046 17.5128 25.8492C17.2516 25.6098 17.1248 25.2848 17.3368 25.0054C17.9975 24.1311 17.3614 23.7624 16.748 23.3994C16.0893 23.0098 15.4324 22.4701 15.9454 21.746C16.1725 21.4267 16.3675 20.7862 16.9809 20.714C17.2724 20.6798 17.2402 20.408 17.2175 20.1837C18.5389 19.0947 19.6974 17.7529 21.3993 17.2322C25.2801 16.0481 29.3143 19.2106 29.727 23.1809C30.045 26.2427 29.1647 28.7818 26.4879 30.5417C25.0018 31.5186 23.6956 32.7501 22.1679 33.6738C21.1419 34.014 21.0377 33.9703 20.9601 32.9592C20.9298 32.5753 20.6648 32.524 20.4357 32.3757C19.599 31.836 19.5138 31.4236 20.0685 30.5911C20.2086 30.3821 20.4925 30.1445 20.379 29.9335C19.8224 28.9015 20.6856 28.4017 21.1116 27.7213C21.3122 27.3982 21.636 27.1701 21.7666 26.8014C21.4088 26.3035 21.051 25.8036 20.6951 25.3057C20.449 24.9617 20.1783 24.6823 19.7107 24.9408V24.9446Z" fill="#CC5301"/>
<path d="M40.3092 13.1215C43.1147 10.8351 46.1133 11.1373 48.2885 13.9501C49.0589 14.946 49.8692 15.9324 50.4787 17.0271C51.7831 19.3705 51.5275 21.3394 49.6534 23.24C48.1276 24.7889 46.3424 26.0433 44.5269 27.2387C43.675 27.558 42.7796 27.8108 42.3688 28.7668C42.2817 28.9682 42.083 29.0005 41.8842 28.9226C41.5775 28.8048 41.3579 28.4855 41.4866 28.2574C42.1303 27.1133 41.816 26.0832 41.3693 24.9657C41.2103 24.5685 41.3863 24.0135 41.0304 23.5802C40.8619 23.3749 40.9206 23.0556 41.2197 22.9568C41.5737 22.8409 41.6476 22.5197 41.8331 22.2783C42.56 21.5466 43.3987 20.9479 44.2562 20.3911C45.0627 19.8665 44.8241 19.3287 44.4096 18.7395C43.675 17.6961 43.4005 17.6087 42.6414 18.1579C42.2382 18.4506 41.835 18.7452 41.4317 19.0379C40.5098 19.3192 39.9419 20.1421 39.1108 20.564C38.8439 20.699 38.63 21.0582 38.2911 20.7788C37.9712 20.5146 38.2306 20.2276 38.2968 19.9254C38.4596 19.1842 38.4237 18.3233 38.0091 17.7854C37.585 17.2343 37.5699 16.628 37.3408 16.0673C37.1326 15.558 37.6664 15.2995 37.9958 15.041C38.7833 14.4195 39.6106 13.8513 40.3073 13.1215H40.3092Z" fill="#FE8900"/>
<path d="M21.7665 26.8056C21.74 27.3358 21.2611 27.6228 21.0907 28.0789C20.8806 28.6434 19.8981 29.0273 20.7575 29.8464C20.9127 29.9928 20.5663 30.3957 20.36 30.639C19.6785 31.4391 19.8015 31.9446 20.7916 32.2886C21.1607 32.4179 21.5147 32.3666 21.2554 32.9918C20.7632 34.1816 21.8479 33.4556 22.1679 33.6741C20.1366 35.5329 17.8176 37.0153 15.6557 38.703C15.1881 39.0679 14.6978 39.4043 14.2169 39.7521C13.8043 39.9555 13.401 40.174 13.0735 40.5066C12.8161 40.6282 12.5567 40.7499 12.2993 40.8734C10.8321 41.3238 10.0124 40.3375 9.29874 39.3701C8.94473 38.8911 8.53204 38.4863 8.16289 38.034C7.84864 37.576 8.08338 37.3042 8.45632 37.0229C10.4365 35.5272 12.4072 34.02 14.3741 32.5072C16.8407 30.6105 19.3017 28.7042 21.7646 26.8018L21.7665 26.8056Z" fill="#B13703"/>
<path d="M36.1577 12.9579C34.8685 14.3016 33.2499 15.2328 31.8301 16.4112C31.2735 16.873 30.6697 17.2797 30.0866 17.7112C29.8443 17.8898 29.6266 18.0133 29.3483 17.7245C27.8528 16.1679 25.9408 15.5616 23.6729 15.3659C25.1343 14.2332 26.4557 13.1936 27.7922 12.173C29.5944 10.7951 31.4061 9.43237 33.2139 8.06208C33.3635 7.94994 33.4941 7.8036 33.7061 7.82071C34.1889 8.32435 34.4937 8.93253 34.7341 9.57872C34.789 9.72696 34.8742 9.89231 34.8287 10.0329C34.594 10.7457 34.1586 11.388 35.1127 12.0399C35.4572 12.2756 34.7435 12.7811 34.4198 13.243C34.825 13.186 35.037 12.9579 35.2925 12.8325C35.6087 12.6766 35.9286 12.4923 36.1577 12.9579Z" fill="#EA7303"/>
<path d="M27.8528 32.9041C29.2158 31.5624 30.8154 30.5133 32.3337 29.371C33.9787 28.1338 35.5405 26.7806 37.2973 25.6973C37.5548 26.1325 37.1534 26.3111 36.9566 26.5601C36.506 27.1246 35.8283 27.461 35.3607 28.1566C35.9816 28.263 36.2258 28.6051 36.0308 29.2019C35.9513 29.447 35.9532 29.7264 36.0895 29.9393C36.5741 30.7014 36.6215 31.5129 36.3413 32.4803C37.055 31.9919 37.5302 31.1309 38.4426 31.779C38.3309 32.3207 37.8046 32.4233 37.4488 32.6951C35.7393 34.0103 34.0166 35.3121 32.2882 36.6026C31.2338 37.3894 30.0033 37.283 28.9716 36.3498C28.6119 35.6999 28.2787 35.0404 27.76 34.4854C27.0917 33.7727 27.1201 33.5807 27.8547 32.9022L27.8528 32.9041Z" fill="#DC6403"/>
<path d="M36.1578 12.9578C35.5937 12.5814 35.3324 13.182 34.9368 13.3455C34.6699 13.4557 34.3708 13.7845 34.1379 13.4462C33.9656 13.1953 34.2004 12.9349 34.4692 12.7658C35.1053 12.3648 35.3059 12.017 34.3992 11.6578C34.0982 11.538 33.1819 11.3651 34.278 10.7664C35.1678 10.2818 34.4446 9.42844 34.1493 8.86587C33.9694 8.52187 33.8142 8.18738 33.7063 7.82057C35.0598 6.75817 36.4077 5.68816 37.7707 4.63715C39.1735 3.55384 40.5233 3.72109 41.644 5.11229C42.1191 5.70146 42.528 6.34575 43.0259 6.91211C43.4708 7.41766 43.2871 7.70464 42.8328 8.04104C40.6141 9.68881 38.4844 11.4582 36.1578 12.9578Z" fill="#FA8804"/>
<path d="M40.3092 13.1216C39.9988 14.0643 39.0314 14.3664 38.4408 15.0392C38.0697 15.4631 37.2084 15.4231 37.7877 16.4894C38.2458 17.3332 38.5809 18.3519 38.7569 19.3649C38.8156 19.6994 38.7493 19.8932 38.4919 20.0852C38.3102 20.2201 38.1568 20.4368 38.3802 20.6383C38.6168 20.8492 38.7626 20.5983 38.9159 20.4539C39.4574 19.9465 40.2278 19.7336 40.667 19.095C40.9018 18.7529 41.1763 19.0399 41.4318 19.0399C39.499 20.5014 37.5681 21.9629 35.6352 23.4245C34.5013 23.911 33.6305 24.7776 32.6631 25.5037C32.0043 25.9978 31.7279 25.8838 31.6068 25.0817C31.586 25.0266 31.5935 24.9772 31.6295 24.9316C31.921 23.9167 31.9646 22.9056 31.6011 21.8983C31.0105 20.1992 30.9783 20.1574 32.3451 19.1216C34.9916 17.1127 37.517 14.9404 40.3073 13.1235L40.3092 13.1216Z" fill="#EE7702"/>
<path d="M17.2496 9.76315C18.022 9.13407 18.7149 8.39665 19.6822 8.04125C20.8181 7.62503 21.7248 8.04125 22.4594 8.87179C23.0386 9.52748 23.5252 10.2668 24.0552 10.9681C24.2691 11.2513 24.3581 11.5326 24.023 11.7853C22.2208 13.1366 20.4148 14.486 18.6088 15.8335C18.0087 16.2554 17.3935 16.6108 16.6173 16.3619C16.0494 16.1794 15.6973 15.8677 15.7901 15.193C15.8942 14.4309 15.6765 13.6878 15.3698 13.0264C14.923 12.0666 14.9439 11.6371 15.8412 11.103C16.4223 10.759 16.9127 10.3504 17.2477 9.76315H17.2496Z" fill="#C84F02"/>
<path d="M38.4427 31.7792C37.3883 31.4713 36.9528 32.5033 36.0536 32.948C36.3168 31.7944 36.4323 30.77 35.8 29.8292C35.7072 29.6924 35.7091 29.4624 35.7318 29.2837C35.8624 28.3012 35.87 28.3031 34.9045 28.6699C34.9973 27.9572 35.4725 27.5828 35.9325 27.1874C36.4474 26.7484 37.0002 26.3398 37.2974 25.6974C38.7588 24.4887 40.2298 23.2951 41.8332 22.2783C42.1664 23.0081 41.1271 22.9663 41.1593 23.4434C41.1858 23.8349 42.1948 23.8463 41.6552 24.5666C41.3807 24.9334 41.536 25.228 41.7972 25.5739C42.3235 26.2695 42.5469 27.0088 41.8237 27.7652C41.5719 28.0294 41.5076 28.4532 41.8502 28.6832C42.3633 29.0272 42.3084 28.3791 42.4106 28.2118C42.9122 27.387 43.6221 27.1304 44.5251 27.2388C43.1451 28.5425 41.553 29.5669 40.0291 30.6806C39.5104 31.0608 38.9709 31.4143 38.4408 31.7792H38.4427Z" fill="#F27C01"/>
<path d="M17.2496 9.76318C17.2799 10.5614 16.7044 10.9225 16.1289 11.2342C15.1578 11.7607 15.1616 12.0191 15.7049 12.9333C16.0286 13.475 16.0078 14.2257 16.1535 14.8776C16.2236 15.1911 15.6916 15.6131 16.216 15.9419C16.7593 16.2821 17.3594 16.322 17.9217 16.0407C18.1526 15.9248 18.3419 15.7879 18.6088 15.8335C16.6154 17.449 14.6372 19.0854 12.4564 20.45C12.144 20.6457 11.8714 20.908 11.5818 21.1399C11.4966 21.1076 11.4095 21.0752 11.3243 21.0429C11.8297 19.7924 10.5425 19.3039 10.215 18.4088C10.0768 18.0325 9.2741 17.7284 10.0957 17.2114C10.2793 17.0974 10.0086 16.9929 9.87041 16.9492C9.12644 16.7135 9.30439 16.3391 9.72654 15.9419C9.92721 15.7518 10.1317 15.5903 10.4137 15.4857C10.904 15.3014 11.2561 14.9403 11.1918 14.3378C13.1644 12.7489 15.1672 11.2038 17.2515 9.76508L17.2496 9.76318Z" fill="#B93F02"/>
<path d="M53.6269 10.7097C53.093 11.4319 52.3737 11.9317 51.5407 12.1921C50.9406 12.3802 50.3462 12.1731 49.9448 11.6352C49.3637 10.8541 48.8147 10.0483 48.2278 9.27094C47.8114 8.71978 47.8454 8.15722 48.2998 7.73149C49.4659 6.64248 50.6813 5.60668 52.0594 4.78564C51.4536 6.19775 52.1446 7.42171 52.5421 8.72358C52.7769 9.4933 52.9738 10.2041 53.6269 10.7097Z" fill="#AF3806"/>
<path d="M29.0094 8.24833C28.7349 8.68355 28.3279 8.98954 27.8868 9.1986C27.3018 9.47608 26.6771 9.56161 26.1736 8.99524C25.4239 8.1533 24.7481 7.25434 24.1234 6.31737C23.7769 5.80042 23.7788 5.24356 24.2067 4.84825C25.2781 3.85616 26.3894 2.90398 27.6521 2.15137C27.6521 4.0082 28.326 5.70159 28.9318 7.41209C29.0283 7.68576 29.0567 7.96134 29.0132 8.24833H29.0094Z" fill="#AE3404"/>
<path d="M22.8911 43.3514C22.3402 43.9482 21.7174 44.4442 21.015 44.8642C20.3411 45.2671 19.7543 45.0847 19.3226 44.5943C18.6203 43.798 17.9805 42.9352 17.3917 42.0495C16.943 41.3729 16.9771 40.6944 17.7173 40.1604C18.5787 39.5408 19.3245 38.7635 20.2711 38.2617C20.7462 39.556 21.2271 40.8522 21.5905 42.1806C21.7458 42.7432 21.759 43.2298 22.5238 43.0929C22.6734 43.0663 22.8078 43.2088 22.8911 43.3533V43.3514Z" fill="#AE3605"/>
<path d="M22.3062 36.6633C22.5485 36.2927 22.9858 36.1844 23.2981 35.9088C23.7298 35.791 24.1595 35.7016 24.5797 35.9468C25.3729 36.7926 26.1453 37.6535 26.8003 38.6133C27.338 39.4001 27.2736 39.9969 26.5561 40.6051C26.009 41.0688 25.4714 41.5572 24.8088 41.8632C23.726 42.0134 23.5935 41.9792 23.3398 40.9415C22.9915 39.516 22.2096 38.1952 22.3043 36.6633H22.3062Z" fill="#F68104"/>
<path d="M29.0094 8.24818C28.3431 6.60041 27.6369 4.96213 27.4666 3.16231C27.4325 2.81261 27.4647 2.46671 27.6483 2.15312C28.3033 1.59436 28.9242 0.988087 29.7023 0.592773C29.9749 1.40811 29.8727 2.30137 30.2702 3.1034C30.5333 3.63745 30.6867 4.23042 30.8608 4.80249C31.0312 5.35935 31.2773 5.82878 31.7884 6.13097C30.9498 6.95391 29.9825 7.602 29.0113 8.24818H29.0094Z" fill="#D56005"/>
<path d="M31.7867 6.13139C31.2112 6.06677 30.8874 5.87862 30.7341 5.18112C30.488 4.05979 30.028 2.97648 29.5755 1.91407C29.3578 1.40282 29.9958 1.05883 29.7005 0.593192L29.7346 0.577987C30.1832 0.273899 30.6281 -0.056796 31.2149 0.226386C32.3054 1.05502 33.0683 2.17445 33.7895 3.30337C34.1681 3.89634 33.9694 4.60715 33.3522 4.96065C32.7748 5.29515 32.3394 5.78739 31.7848 6.13139H31.7867Z" fill="#F78505"/>
<path d="M53.6271 10.7097C52.8339 10.5596 52.4287 10.0939 52.4458 9.2691C52.4609 8.5488 52.0747 7.91211 51.7662 7.35335C51.2096 6.34036 51.6166 5.59724 52.0596 4.78571C52.4893 4.30867 52.9607 3.88675 53.5438 3.60547C54.0587 4.66788 54.4808 5.7759 54.7478 6.91622C54.9352 7.71826 55.6829 8.26561 55.6337 9.13987C55.1396 9.88868 54.2101 10.0749 53.6271 10.7097Z" fill="#D76105"/>
<path d="M55.6337 9.13966C54.4997 7.84919 54.4316 6.08168 53.6516 4.62776C53.5021 4.34838 53.574 3.94736 53.5437 3.60336C54.8064 2.77853 55.1206 2.80703 56.105 3.94166C56.6559 4.57645 57.2352 5.18462 57.6914 5.90303C58.159 6.63854 58.1136 7.27332 57.4302 7.81308C56.8471 8.27491 56.2338 8.69873 55.6337 9.13966Z" fill="#F78606"/>
<path d="M22.3061 36.6636C22.6355 37.7412 22.9668 38.8188 23.2943 39.8964C23.3208 39.9857 23.3095 40.0884 23.3435 40.1739C23.637 40.9075 23.6275 41.9091 24.8107 41.8635C24.292 42.5154 23.5404 42.867 22.893 43.3516C22.7415 43.3155 22.5466 43.1996 22.4443 43.2566C21.2574 43.9199 21.5148 43.019 21.3842 42.3633C21.2214 41.5442 20.9677 40.7212 20.6043 39.9743C20.326 39.4042 20.2578 38.8568 20.273 38.26C20.8731 37.6272 21.5622 37.1102 22.3061 36.6636Z" fill="#D45E04"/>
<path d="M31.6086 25.0796C31.8187 25.7315 32.1727 25.7828 32.593 25.2811C33.1779 24.5855 34.1226 24.3536 34.6734 23.6086C34.9101 23.2874 35.3038 23.4299 35.637 23.4204C34.2608 24.6767 32.6838 25.6612 31.0671 26.9479C31.228 26.1648 31.317 25.5947 31.6086 25.0796Z" fill="#C96821"/>
<path d="M27.8528 32.9042C27.3152 33.5599 27.565 34.0313 28.1254 34.5501C28.6214 35.0101 28.9886 35.6087 28.9716 36.3499C28.1557 35.6638 27.5707 34.7763 27.0558 33.8735C26.6469 33.1532 27.4079 33.0886 27.8528 32.9023V32.9042Z" fill="#A45020"/>
<path d="M31.605 21.896C31.8056 21.9207 31.9893 21.9872 31.9912 22.221C31.9968 23.0363 31.9987 23.8536 31.9779 24.6689C31.9741 24.8418 31.7962 24.9046 31.6334 24.9293C31.6239 23.9182 31.6144 22.9071 31.605 21.896Z" fill="#C96821"/>
<path d="M24.5796 35.9468C24.1518 35.9335 23.724 35.9221 23.2961 35.9088C23.7353 35.5344 24.1651 35.4736 24.5796 35.9468Z" fill="#D45E04"/>
<path d="M31.2167 0.224374C30.6601 0.0742309 30.2399 0.501854 29.7363 0.575976C30.1339 0.0514243 30.5901 -0.222255 31.2167 0.224374Z" fill="#D56005"/>
</g>
<defs>
<clipPath id="clip0_112_3778">
<rect width="58" height="61" fill="white"/>
</clipPath>
</defs>
</svg>
