<svg width="148" height="30" viewBox="0 0 148 30" fill="none" xmlns="http://www.w3.org/2000/svg">
<g clip-path="url(#clip0_112_3765)">
<path d="M29.8051 23.1427C29.7823 27.0069 26.9007 30.0066 23.2122 30.0033C19.3931 30 16.2796 27.0069 16.3841 23.182C16.4756 19.845 14.241 18.0406 12.0684 16.2952C10.2225 14.815 8.13488 13.7638 5.59312 13.4887C2.18234 13.122 -0.2222 9.75878 0.0162939 6.35959C0.254788 2.99315 2.96643 0.304575 6.40988 0.0196715C9.71286 -0.252133 12.8525 2.12534 13.4373 5.54745C13.7836 7.5778 13.7999 9.64417 15.0185 11.4518C16.358 13.4331 18.0536 14.9918 20.1282 16.1347C20.811 16.5113 21.5787 16.4196 22.3563 16.3509C26.512 15.9743 29.8247 19.0231 29.8019 23.1394L29.8051 23.1427Z" fill="#008805"/>
<path d="M6.63871 29.9839C2.86855 29.8922 -0.0456448 26.791 0.029497 22.9432C0.101372 19.2492 3.35534 16.1841 7.08303 16.3052C10.5363 16.4166 13.7608 19.7666 13.6661 23.1462C13.5583 27.0595 10.4579 30.0756 6.63871 29.9839Z" fill="#2F60DD"/>
<path d="M16.3286 6.81172C16.3384 3.02283 19.3833 0.0100599 23.1894 0.0264336C26.8452 0.0395326 29.913 3.12107 29.9358 6.79862C29.9587 10.5679 26.8975 13.6461 23.1273 13.6396C19.3114 13.633 16.3188 10.6268 16.3286 6.81172Z" fill="#FDD002"/>
<path d="M125.814 8.58316C125.814 8.10177 125.895 7.47957 125.311 7.32238C124.203 7.01783 122.988 6.91303 121.945 7.3191C121.122 7.64003 121.593 8.68467 121.531 9.4084C121.468 10.1059 121.518 10.8165 121.518 11.7269C117.734 9.56558 114.68 10.9443 114.003 14.9918C113.383 18.6923 115.34 23.5684 120.825 21.2597C121.014 21.1779 121.223 20.9748 121.4 21.191C122.302 22.3044 123.527 21.6134 124.595 21.7739C125.513 21.9114 125.827 21.3973 125.823 20.5131C125.804 16.5375 125.82 12.5587 125.814 8.58316ZM119.802 18.1258C118.763 18.0275 118.228 17.2318 118.29 16.1577C118.348 15.0901 118.91 14.3172 119.998 14.4188C121.027 14.5105 121.576 15.28 121.518 16.5441C121.387 17.3955 120.907 18.2338 119.802 18.1258Z" fill="#038906"/>
<path d="M100.697 16.1412C100.697 14.8313 100.742 13.5214 100.684 12.2148C100.631 11.0621 101.147 10.5578 102.235 10.7281C103.314 10.8951 104.673 10.1059 105.401 11.6548C105.509 11.8873 105.957 11.514 106.234 11.3634C109.485 9.61465 112.291 11.2029 112.468 14.9067C112.553 16.7012 112.559 18.5023 112.654 20.2969C112.713 21.4398 112.223 21.8262 111.112 21.8066C107.695 21.7443 108.273 22.0423 108.211 18.9411C108.188 17.8507 108.188 16.7602 108.119 15.6729C108.064 14.7822 107.564 14.2615 106.633 14.3074C105.725 14.3532 105.235 14.887 105.215 15.781C105.179 17.307 105.146 18.8364 105.205 20.3591C105.244 21.4103 104.872 21.7836 103.807 21.8131C100.697 21.895 100.697 21.9375 100.697 18.7545C100.697 17.8834 100.697 17.009 100.697 16.138V16.1412Z" fill="#048608"/>
<path d="M73.8383 16.2656C73.8383 17.736 73.8187 19.2096 73.8448 20.68C73.8579 21.4266 73.5508 21.8785 72.7994 21.7672C71.6461 21.6002 70.3034 22.3959 69.3559 21.0402C69.088 20.6571 68.6895 21.1286 68.3595 21.276C64.854 22.8282 62.126 21.0762 62.077 17.2349C62.0574 15.5452 62.1227 13.8554 62.0541 12.1689C62.0116 11.1243 62.3416 10.6265 63.4295 10.7313C63.913 10.7771 64.4129 10.7739 64.8964 10.7247C66.0726 10.6068 66.4091 11.1767 66.3633 12.2704C66.3045 13.6294 66.3339 14.995 66.3862 16.3573C66.4254 17.3397 66.6574 18.2698 67.9348 18.2108C69.1403 18.1584 69.4572 17.2513 69.4801 16.2754C69.5095 14.9721 69.4376 13.6622 69.3494 12.3588C69.2677 11.1505 69.797 10.6494 70.9731 10.7215C71.5154 10.7542 72.061 10.7477 72.6034 10.7346C73.4887 10.7116 73.8742 11.1046 73.8481 12.0183C73.8056 13.433 73.835 14.8509 73.835 16.2689L73.8383 16.2656Z" fill="#018908"/>
<path d="M98.7365 16.3277C98.7365 17.69 98.7038 19.0556 98.7495 20.4178C98.7822 21.3643 98.462 21.9439 97.4558 21.7736C96.3809 21.5935 95.0349 22.4515 94.2704 20.9156C94.1201 20.6143 93.7379 21.0761 93.4733 21.2136C90.4317 22.8117 87.475 21.4101 87.0731 18.024C86.8314 15.9773 86.9817 13.888 86.949 11.8151C86.9359 11.0455 87.3476 10.741 88.0631 10.741C88.3342 10.741 88.6054 10.7279 88.8798 10.7246C90.5787 10.6962 91.4292 11.5116 91.4314 13.1708C91.4314 14.2613 91.4444 15.3518 91.4412 16.4423C91.4412 17.4444 91.7973 18.1877 92.9081 18.2041C94.0156 18.2172 94.4109 17.5 94.4142 16.4849C94.4174 15.0669 94.4664 13.6457 94.4142 12.231C94.3717 11.0914 94.8422 10.6263 95.9562 10.7115C96.4985 10.7541 97.0441 10.7442 97.5865 10.7246C98.4196 10.6951 98.7887 11.0881 98.7332 11.91C98.7299 11.9657 98.7332 12.0181 98.7332 12.0738C98.7332 13.4918 98.7332 14.9097 98.7332 16.3277H98.7365Z" fill="#048706"/>
<path d="M75.8018 14.7988C75.8018 12.8897 75.8312 10.9805 75.7887 9.0713C75.7691 8.17074 76.0827 7.7876 77.0106 7.8007C79.4576 7.83672 81.9111 7.85964 84.3581 7.8007C85.9067 7.76468 85.5473 8.8257 85.6061 9.70005C85.6715 10.6759 85.5735 11.4455 84.2732 11.3538C83.2996 11.285 82.3162 11.3473 81.3361 11.3473C80.6925 11.3473 80.3168 11.5896 80.3135 12.3035C80.3135 13.0108 80.6664 13.2826 81.3198 13.2794C81.591 13.2794 81.8654 13.2826 82.1366 13.2859C83.8975 13.3121 84.4986 14.1766 83.9988 15.8697C83.7537 16.7015 83.1069 16.5508 82.5417 16.5476C80.2809 16.5345 80.0816 16.1611 80.1175 19.1215C80.1175 19.1772 80.1175 19.2296 80.1175 19.2853C80.1175 21.5907 78.5526 22.6026 76.3572 21.7446C75.7299 21.499 75.8279 21.0078 75.7952 20.5329C75.792 20.4773 75.7952 20.4249 75.7952 20.3692C75.7952 18.5157 75.7952 16.6589 75.7952 14.8054H75.8018V14.7988Z" fill="#028807"/>
<path d="M132.844 16.9598C133.55 16.9368 134.256 16.9532 134.961 16.9532C135.504 16.9565 136.046 16.9598 136.592 16.9565C138.503 16.9467 138.803 16.5897 138.428 14.7689C137.947 12.4406 135.899 10.7606 133.419 10.6591C130.384 10.5347 128.163 11.8217 127.529 14.2417C127.287 15.1652 127.365 16.1869 127.382 17.1628C127.414 19.4027 128.999 21.2235 131.286 21.7147C134.056 22.3074 136.892 21.2202 137.804 19.1997C138.15 18.4334 138.225 17.7883 137.059 17.8603C135.775 17.9422 134.452 17.6016 133.213 18.2435C132.74 18.4891 132.266 18.4432 131.884 18.0142C131.698 17.8079 131.495 17.5721 131.658 17.3003C131.933 16.8484 132.426 16.9696 132.844 16.9598ZM132.841 13.9372C133.36 13.9273 133.955 14.0976 133.958 14.6511C133.965 15.4828 133.161 15.103 132.808 15.2765C132.302 15.2078 131.662 15.3551 131.655 14.7919C131.645 14.1467 132.259 13.9503 132.841 13.9372Z" fill="#038907"/>
<path d="M45.9575 7.82646C47.3721 7.82646 48.7868 7.85593 50.2014 7.81991C51.7957 7.78061 51.6356 8.86456 51.6944 9.93212C51.7532 11.0488 51.2632 11.3206 50.2471 11.3337C48.0713 11.3632 48.0647 11.409 48.0549 13.5966C48.0451 15.7776 47.9896 17.9618 48.0811 20.1428C48.1366 21.4658 47.6302 21.9406 46.379 21.7998C46.0555 21.7638 45.7223 21.7605 45.4021 21.8064C44.1084 21.9832 43.6869 21.4331 43.7359 20.1461C43.8241 17.749 43.6934 15.3453 43.7915 12.9482C43.847 11.6186 43.3635 11.2649 42.1089 11.2944C39.9135 11.3435 39.9658 11.2813 40.1062 9.12654C40.1716 8.11136 40.642 7.80681 41.5503 7.81664C43.0204 7.83628 44.4906 7.82318 45.9575 7.82318V7.82973V7.82646Z" fill="#028806"/>
<path d="M139.852 16.1872C139.852 14.7693 139.868 13.3513 139.846 11.9333C139.832 11.1114 140.221 10.594 141.009 10.7675C142.175 11.0229 143.808 9.79164 144.462 11.8416C144.612 12.3132 144.991 11.8613 145.243 11.7303C145.72 11.4814 146.177 11.1867 146.667 10.964C146.902 10.8559 147.317 10.738 147.435 10.8527C148.471 11.8285 147.729 13.0991 147.915 14.2289C148.016 14.8544 147.699 15.1786 147.004 15.2932C144.351 15.7288 144.354 15.7582 144.351 18.4665C144.351 18.7939 144.351 19.1214 144.351 19.4489C144.351 21.0208 143.576 21.8023 142.028 21.7936C140.586 21.7849 139.864 21.0612 139.862 19.6224C139.862 18.4763 139.862 17.3334 139.862 16.1872H139.852Z" fill="#038806"/>
<path d="M60.8225 12.9943C61.123 14.5302 60.7571 15.4176 58.9701 15.3816C57.9998 15.362 57.428 16.0497 57.4084 17.1107C57.3888 18.1979 57.2451 19.2851 57.2745 20.3691C57.3039 21.4301 56.8922 21.8787 55.8402 21.7969C55.3535 21.7576 54.8601 21.7543 54.3733 21.8034C53.2005 21.9213 52.8868 21.3646 52.9097 20.2643C52.9685 17.5986 52.9685 14.9264 52.9097 12.2608C52.8836 11.1474 53.2593 10.5415 54.3897 10.738C55.4515 10.9214 57.0294 9.94881 57.3692 11.9693C57.4084 12.2018 57.7221 12.1396 57.9148 12.0021C58.0488 11.9071 58.1729 11.8023 58.2971 11.7008C58.9341 11.1703 59.6823 10.5219 60.4631 10.9181C61.257 11.3177 60.6722 12.3132 60.8192 12.9943H60.8225Z" fill="#028805"/>
</g>
<defs>
<clipPath id="clip0_112_3765">
<rect width="148" height="30" fill="white"/>
</clipPath>
</defs>
</svg>
