<svg width="62" height="50" viewBox="0 0 62 50" fill="none" xmlns="http://www.w3.org/2000/svg">
<g clip-path="url(#clip0_112_4742)">
<path d="M54.8597 32.8462C52.125 33.1498 49.425 33.0608 46.7699 32.2513C41.2421 30.5666 35.9051 28.3415 30.3907 26.6146C25.9525 25.2245 21.4964 23.9057 16.8326 23.5087C13.5974 23.2318 10.4105 23.5176 7.39181 24.7898C3.97031 26.2331 1.77871 28.6217 1.62385 32.4904C1.54305 34.4997 2.07272 36.2723 3.71221 37.5678C5.8679 39.2725 8.35688 39.6327 11.0041 39.1902C13.3326 38.801 15.0832 37.4688 16.5678 35.7352C17.8258 34.2673 18.8683 32.6394 20.0196 31.0926C20.4561 30.5054 20.6907 30.4398 21.4077 30.6522C22.0889 30.8524 22.7016 31.2071 23.3558 31.4684C27.3362 33.0608 31.3558 34.5498 35.4214 35.9109C40.8112 37.7157 46.2493 38.0426 51.7367 36.3501C54.8406 35.3916 57.6629 33.8893 60.4111 31.891C58.4663 32.298 56.6754 32.6449 54.8597 32.8462ZM9.66645 34.1862C9.07956 34.5932 8.42645 34.8189 7.68133 34.8C6.20343 34.7622 5.32926 33.589 5.77252 32.1879C6.01603 31.4151 6.50866 30.8112 7.16401 30.3664C9.18729 28.9931 11.4406 28.9909 13.8263 29.3134C12.6514 31.1882 11.4631 32.9429 9.66645 34.1862Z" fill="#03153B"/>
<path d="M30.1943 0C31.542 0.04448 32.7933 0.209056 33.9435 0.807313C34.1567 0.918513 34.3609 1.05418 34.5461 1.20652C34.885 1.48674 34.9635 1.72471 34.5663 2.09946C33.8571 2.76666 33.4576 3.66738 32.9908 4.50583C32.4779 5.42545 32.0235 6.37732 31.5117 7.29806C28.5907 12.5589 26.242 18.0923 23.679 23.5233C23.5241 23.8513 23.3973 23.9236 23.018 23.838C21.2394 23.4332 19.4484 23.0829 17.6294 22.8994C17.3948 22.8761 17.2467 22.8627 17.3533 22.5425C18.6438 18.6705 19.3384 14.6406 20.5279 10.743C21.2327 8.43341 21.9217 6.10933 23.1886 4.02099C24.7888 1.38889 27.1712 0.071168 30.1943 0Z" fill="#03153B"/>
<path d="M27.9724 20.7622C28.7568 19.2521 29.6052 17.9622 30.7835 16.9458C33.5967 14.5194 36.8768 13.463 40.6025 13.8522C43.5425 14.1591 46.3446 15.0754 49.1859 15.8093C51.2227 16.3353 53.2684 16.8157 55.3332 17.216C55.5599 17.2605 55.8 17.2772 55.5015 17.5563C54.119 18.8529 52.769 20.1873 51.1733 21.2359C49.3543 22.4324 47.3187 22.577 45.2471 22.2867C42.7593 21.9387 40.3354 21.2426 37.8531 20.8467C35.5325 20.4775 33.2107 20.1161 30.8508 20.1406C29.9025 20.1506 28.9622 20.2395 27.9724 20.7611V20.7622Z" fill="#A42069"/>
<path d="M33.9009 8.668C35.0511 6.47625 36.143 4.359 38.1023 2.83334C39.4366 1.79362 40.9851 1.49338 42.6101 1.43778C45.4346 1.34214 48.2422 1.66574 51.0566 1.81697C53.145 1.92928 55.23 2.07495 57.3172 2.20506C58.0063 2.24731 58.6953 2.28401 59.4931 2.3296C58.4495 3.60395 58.0006 5.1552 56.9391 6.34281C55.6979 7.73059 54.1 8.31439 52.2843 8.43004C50.8782 8.52011 49.4878 8.30661 48.0941 8.19874C43.84 7.86959 39.5937 7.72836 35.3709 8.53568C35.0231 8.6024 34.6684 8.62797 34.3161 8.66578C34.2072 8.67801 34.095 8.668 33.9009 8.668Z" fill="#A42069"/>
<path d="M2.33963 46.7487C3.12852 46.8088 3.85681 47.0512 4.57949 46.6931C4.82524 46.5708 4.91614 46.7887 5.00703 46.9344C5.14057 47.1479 4.94868 47.228 4.80392 47.3036C4.19907 47.6216 3.54372 47.6461 2.89511 47.5349C2.04001 47.3881 1.19389 47.3347 0.343287 47.5316C0.211993 47.5616 0.0616216 47.6261 0.0358117 47.437C0.0111239 47.2524 -0.0808942 47.0167 0.176083 46.9044C0.309622 46.8466 0.463359 46.7899 0.604753 46.7999C1.33865 46.8488 1.7662 46.4173 2.14998 45.8869C2.61905 45.2386 2.93102 44.5058 3.32602 43.8175C3.74122 43.0925 4.16989 42.3808 4.80953 41.8237C5.20902 41.4745 5.65116 41.2176 6.21 41.231C6.74977 41.2432 7.00113 41.4812 6.97532 42.0227C6.93492 42.8556 6.50626 43.5217 5.99342 44.1477C5.79592 44.3879 5.60627 44.2134 5.45029 44.1288C5.24157 44.0154 5.41999 43.8797 5.49742 43.7697C5.80041 43.3415 6.00128 42.8689 6.12472 42.3641C6.15838 42.224 6.20102 42.0583 6.04616 41.9593C5.9014 41.867 5.75552 41.9382 5.62759 42.0194C5.24157 42.2618 4.95541 42.6054 4.7119 42.9779C4.39769 43.4572 4.1093 43.952 3.81641 44.4458C3.59085 44.8272 3.39111 45.2242 3.15321 45.5967C2.91643 45.9692 2.64598 46.3206 2.34075 46.7509L2.33963 46.7487Z" fill="#172536"/>
<path d="M23.9708 44.0775C23.5399 43.7295 23.5163 43.3036 23.7755 42.8844C24.3995 41.8736 25.3185 41.3109 26.5204 41.2375C26.8963 41.2153 27.2285 41.3309 27.4035 41.6979C27.5943 42.0982 27.5202 42.4963 27.3328 42.871C27.2026 43.1323 26.9266 43.0412 26.7291 43.0056C26.4396 42.9544 26.6483 42.7576 26.673 42.6186C26.7717 42.0693 26.5338 41.8324 25.9918 41.9592C25.3881 42.1004 24.8786 42.3918 24.579 42.9544C24.3209 43.4381 24.432 43.6083 24.9706 43.6972C25.1457 43.7262 25.4767 43.5538 25.4711 43.943C25.4655 44.271 25.2826 44.3989 24.9415 44.4278C24.2132 44.4879 23.5735 44.7748 23.0686 45.3174C22.8632 45.5387 22.7173 45.79 22.659 46.0914C22.5782 46.5117 22.7229 46.7641 23.1651 46.8498C23.7688 46.9665 24.3546 46.8364 24.9415 46.743C25.13 46.713 25.3196 46.6062 25.3533 46.9087C25.3757 47.1066 25.4363 47.3146 25.1277 47.3791C24.2637 47.5592 23.3985 47.7149 22.5277 47.4569C21.9778 47.2935 21.7399 46.8742 21.8375 46.2949C22.0373 45.1095 22.8969 44.5335 23.9708 44.0764V44.0775Z" fill="#182436"/>
<path d="M12.5067 44.4602C11.233 44.3324 9.62717 45.5789 9.42405 46.8544C9.33765 47.397 9.60248 47.675 10.1613 47.5705C10.4767 47.5116 10.7763 47.3648 11.1286 47.2425C11.0254 47.625 10.8313 47.9152 10.6315 48.191C10.2309 48.7425 9.9223 49.4242 9.00885 49.2774C8.84165 49.2507 8.52968 49.4776 8.52519 49.73C8.52071 50.0002 8.83267 49.9724 9.00885 49.9913C9.44762 50.0369 9.84936 49.8901 10.2152 49.6444C10.82 49.2374 11.2173 48.6569 11.5438 48.032C12.0208 47.119 12.4472 46.1794 12.9264 45.2664C13.2226 44.7049 13.1497 44.5247 12.5067 44.4602ZM10.5193 46.8499C10.4351 46.8877 10.3431 46.94 10.2612 46.8766C10.1725 46.8077 10.2264 46.7109 10.2489 46.6231C10.4385 45.9081 11.3811 45.1841 12.1588 45.1586C11.8468 45.9815 11.2801 46.5097 10.5193 46.8499Z" fill="#192537"/>
<path d="M15.9528 44.4599C14.6668 44.3487 13.0632 45.6297 12.8982 46.8996C12.8365 47.3722 13.0396 47.589 13.5233 47.5879C13.9048 47.5879 14.2089 47.3577 14.7027 47.1854C14.4233 47.6702 14.2527 48.0427 14.0126 48.3652C13.6456 48.8578 13.3101 49.4138 12.5111 49.2693C12.3461 49.2404 12.0185 49.4694 12.0072 49.7074C11.9938 50.0021 12.3271 49.9921 12.5234 49.9988C13.107 50.0177 13.6086 49.783 14.0294 49.3883C14.5377 48.9123 14.8912 48.3274 15.1976 47.7125C15.5993 46.9041 15.9764 46.0823 16.3972 45.2839C16.7035 44.7034 16.6216 44.5177 15.9528 44.4599ZM13.7657 46.9352C13.7286 46.0701 14.7263 45.156 15.6397 45.176C15.3053 46.0567 14.6634 46.6172 13.7657 46.9352Z" fill="#182536"/>
<path d="M48.9582 47.4104C49.4474 46.8466 49.9513 46.374 50.2689 45.7646C50.3553 45.5989 50.5752 45.3988 50.4103 45.2275C50.2015 45.0096 49.9535 45.1908 49.7572 45.3254C49.1164 45.7624 48.7495 46.3984 48.4723 47.099C48.4162 47.2402 48.4409 47.4571 48.2119 47.4726C48.047 47.4838 47.8371 47.5216 47.7249 47.4415C47.5611 47.3236 47.7249 47.1402 47.7821 46.9989C48.0975 46.2316 48.5912 45.5455 48.8258 44.7393C48.8965 44.4936 49.1961 44.5092 49.2948 44.587C49.5911 44.8227 49.8088 44.6037 50.0579 44.5403C50.4204 44.448 50.803 44.3268 51.0813 44.6915C51.2384 44.8972 51.3316 44.7293 51.4449 44.6793C52.1092 44.3857 52.7825 44.3624 52.9542 44.6926C53.2359 45.232 52.9049 45.6834 52.631 46.1216C52.4268 46.4463 52.0049 46.6542 52.162 47.1635C52.2158 47.337 52.0644 47.536 51.8197 47.4826C51.556 47.4248 51.2306 47.6595 51.0275 47.2747C50.8793 46.9945 51.0297 46.8799 51.2036 46.7276C51.5829 46.3951 51.9331 46.0337 52.1474 45.5711C52.1956 45.4688 52.3213 45.3432 52.1912 45.2175C52.0655 45.0952 51.9185 45.1419 51.7771 45.1997C51.528 45.302 51.3327 45.4699 51.1745 45.6812C50.8524 46.1115 50.5124 46.5308 50.2206 46.9811C49.93 47.4304 49.5619 47.595 48.9593 47.4115L48.9582 47.4104Z" fill="#182434"/>
<path d="M17.0188 46.913C17.7549 46.7284 18.1712 46.3314 18.4899 45.8199C18.6268 45.6009 18.7346 45.3629 18.8423 45.1283C19.0521 44.6668 19.363 44.4166 19.9555 44.6223C19.0633 45.9967 18.6571 47.6214 17.6348 48.9269C17.1512 49.5451 16.5789 50.0433 15.7226 49.991C15.5442 49.9799 15.1739 50.0188 15.2502 49.6864C15.3018 49.4628 15.5431 49.2049 15.8281 49.2816C16.3163 49.4128 16.6148 49.1615 16.9009 48.8646C17.3307 48.4164 17.5787 47.8571 17.8783 47.2144C17.5967 47.3345 17.3924 47.4245 17.1848 47.5091C16.9301 47.6136 16.6597 47.6525 16.4442 47.4601C16.2119 47.2522 16.3073 46.9653 16.3937 46.7318C16.4947 46.4582 16.6698 46.2113 16.8067 45.95C16.9851 45.6086 17.2499 45.3028 17.2892 44.9014C17.3307 44.4777 17.6494 44.5222 17.9053 44.5767C18.2666 44.6534 18.059 44.9348 18.0096 45.1071C17.903 45.483 17.6561 45.7944 17.4519 46.1246C17.3128 46.3504 17.1961 46.5905 17.0199 46.9152L17.0188 46.913Z" fill="#182535"/>
<path d="M43.0779 44.738C42.9455 44.4822 42.6538 44.4722 42.39 44.4622C41.1478 44.4144 39.5611 45.7332 39.4028 46.9431C39.3456 47.3779 39.5465 47.598 40.0054 47.5914C40.4981 47.5847 40.8796 47.3089 41.3464 47.0165C41.3823 47.3145 41.4171 47.5747 41.7661 47.588C42.0366 47.5992 42.0938 47.4057 42.0781 47.2244C42.0096 46.4571 42.5135 45.9234 42.8389 45.3162C42.9399 45.1294 43.2025 44.9771 43.0779 44.738ZM40.5968 46.823C40.4801 46.8775 40.3511 46.9753 40.2388 46.8686C40.1233 46.7563 40.2557 46.6239 40.295 46.5194C40.5699 45.7833 41.4227 45.1783 42.1533 45.1817C41.8581 45.9367 41.3375 46.4816 40.5968 46.823Z" fill="#182536"/>
<path d="M8.14351 44.4531C7.04939 44.452 6.00465 45.3205 5.81837 46.3858C5.67473 47.212 6.07647 47.6401 6.93829 47.5801C7.91234 47.5134 8.83364 46.7739 9.14448 45.8109C9.42503 44.9413 9.06593 44.4531 8.14351 44.4531ZM8.40273 45.5029C8.39936 46.1478 7.65312 46.8995 7.03704 46.9095C6.77558 46.914 6.60164 46.8395 6.57583 46.5559C6.51748 45.8865 7.39053 45.0514 8.06047 45.1203C8.32305 45.147 8.4218 45.2738 8.40273 45.5029Z" fill="#182436"/>
<path d="M27.9321 47.4737C27.6841 47.4815 27.4619 47.5216 27.3317 47.2091C27.1982 46.8899 27.4451 46.8266 27.5909 46.6853C27.9512 46.3351 28.2945 45.9781 28.51 45.5111C28.6761 45.153 28.4909 45.1141 28.2238 45.153C27.876 45.2042 27.6201 45.4288 27.3901 45.6745C26.9771 46.116 26.6932 46.6397 26.5305 47.2113C26.4171 47.6116 26.1175 47.5104 25.9122 47.4604C25.5822 47.3803 25.8112 47.139 25.8729 46.9856C26.1815 46.2172 26.6797 45.5344 26.9176 44.7338C26.9962 44.468 27.2902 44.5136 27.3744 44.5792C27.6953 44.8294 27.9366 44.6137 28.2149 44.5281C28.5582 44.4224 28.9364 44.3557 29.2214 44.6281C29.511 44.905 29.3505 45.262 29.2405 45.5667C29.1552 45.8046 28.9948 46.0181 28.8579 46.2361C28.6873 46.5063 28.3282 46.6409 28.4831 47.1146C28.6132 47.5104 28.2048 47.4882 27.9332 47.476L27.9321 47.4737Z" fill="#182535"/>
<path d="M55.8976 47.4446C55.9548 47.0187 56.1826 46.6751 56.3599 46.3148C56.5956 45.8356 56.8862 45.3785 57.0276 44.8614C57.1084 44.569 57.3407 44.4756 57.5191 44.5879C57.8446 44.7936 58.0903 44.6435 58.3709 44.5456C58.7176 44.4244 59.0969 44.3555 59.3674 44.6435C59.6412 44.9348 59.5189 45.3029 59.3685 45.6287C59.2776 45.8278 59.1631 46.019 59.0464 46.2047C58.8669 46.4883 58.4158 46.644 58.6638 47.1288C58.7143 47.2278 58.629 47.5314 58.3574 47.4802C58.0769 47.4279 57.7391 47.6659 57.518 47.2656C57.3542 46.9687 57.5427 46.8719 57.7077 46.7285C58.0892 46.3971 58.4326 46.0335 58.6436 45.5698C58.6929 45.4619 58.804 45.3263 58.6918 45.2128C58.5774 45.0961 58.4191 45.1328 58.2755 45.1906C57.4597 45.5175 57.0478 46.2025 56.7976 46.9654C56.6394 47.4457 56.4003 47.5736 55.8965 47.4446H55.8976Z" fill="#182436"/>
<path d="M46.3726 47.4766C46.1224 47.4811 45.9159 47.5233 45.8014 47.232C45.6825 46.9284 45.8923 46.8317 46.0494 46.6938C46.4007 46.3846 46.7093 46.0421 46.9258 45.6251C46.9965 45.4906 47.0829 45.3238 46.9887 45.2115C46.8709 45.0703 46.6778 45.1414 46.5219 45.2026C45.9877 45.4128 45.6668 45.8464 45.3929 46.3124C45.2358 46.5815 45.0844 46.8706 45.0159 47.1697C44.9093 47.6368 44.5334 47.5311 44.3123 47.4544C44.0374 47.3599 44.2876 47.0985 44.3516 46.9518C44.6748 46.2089 45.1315 45.5262 45.3806 44.7478C45.4737 44.4553 45.8295 44.5243 45.8822 44.5888C46.1257 44.8857 46.3131 44.6533 46.5207 44.5843C46.6273 44.5487 46.7317 44.5054 46.8406 44.4831C47.6294 44.3208 47.9908 44.72 47.7417 45.4739C47.6485 45.7575 47.5116 46.0177 47.3164 46.2468C47.1177 46.4792 46.8383 46.6126 46.9718 47.0618C47.0874 47.4477 46.6958 47.5422 46.3737 47.4777L46.3726 47.4766Z" fill="#182435"/>
<path d="M34.729 44.65C34.5203 44.3442 34.1634 44.4287 33.8571 44.5199C33.1367 44.7323 32.5565 45.1637 32.1144 45.752C31.78 46.1968 31.4063 46.7283 31.7923 47.2632C32.175 47.7925 32.7978 47.5779 33.3476 47.4833C33.6439 47.4322 33.6282 47.271 33.5799 47.0452C33.4812 46.576 33.1726 47.0408 33.048 46.9196C32.7888 46.8706 32.4768 47.0141 32.4342 46.6393C32.3915 46.2601 32.717 46.3791 32.901 46.3391C33.5261 46.2045 34.1477 46.0644 34.5528 45.5151C34.7414 45.2593 34.931 44.948 34.729 44.65ZM32.8191 45.8131C33.1075 45.3272 33.4621 45.1337 34.0176 45.1848C33.7202 45.6219 33.498 45.7319 32.8191 45.8131Z" fill="#182432"/>
<path d="M56.2478 44.6491C56.0391 44.3633 55.7159 44.4356 55.4253 44.5167C54.6386 44.7347 54.027 45.2084 53.5636 45.8589C53.2606 46.2837 52.9531 46.7819 53.3111 47.2823C53.6533 47.7604 54.2133 47.6137 54.7082 47.5214C54.9236 47.4813 55.1829 47.5058 55.1211 47.1077C55.0561 46.6885 54.8137 46.9231 54.5847 46.8997C54.3996 46.8364 54.0035 47.0888 53.9653 46.6384C53.9272 46.1981 54.3412 46.3838 54.5466 46.3304C55.1492 46.1725 55.7451 46.0235 56.1098 45.4653C56.2691 45.2195 56.4599 44.9393 56.2478 44.6491ZM55.2064 45.5798C54.9326 45.7255 54.6442 45.8333 54.2503 45.8211C54.5107 45.5186 54.7564 45.3429 55.0404 45.2106C55.1975 45.1383 55.4196 45.0549 55.4903 45.1917C55.5936 45.3885 55.3613 45.4975 55.2064 45.5798Z" fill="#182434"/>
<path d="M31.9932 43.1747C31.8226 43.5439 31.6531 43.9064 31.4871 44.2723C31.4399 44.3768 31.3086 44.5414 31.5342 44.5569C31.7878 44.5736 31.8069 44.6815 31.7586 44.8727C31.7126 45.054 31.6722 45.2775 31.4253 45.2297C30.9293 45.1352 30.7936 45.461 30.6522 45.8101C30.5557 46.0492 30.4401 46.2805 30.338 46.5163C30.2762 46.6597 30.2134 46.8054 30.4771 46.8021C30.5983 46.8009 30.7734 46.762 30.7431 46.9711C30.7195 47.1312 30.6825 47.3903 30.5905 47.4203C30.2774 47.5226 29.9171 47.5593 29.6153 47.407C29.3235 47.2602 29.4077 46.9622 29.4997 46.7175C29.6097 46.4251 29.7612 46.1482 29.8689 45.8546C29.9553 45.6189 30.2201 45.4065 29.9373 45.1007C29.8554 45.0117 29.9239 44.637 30.0877 44.6214C30.6634 44.5658 30.6656 44.071 30.834 43.7307C31.0775 43.2403 31.3917 42.9935 31.9932 43.1736V43.1747Z" fill="#182535"/>
<path d="M39.8203 43.1899C39.6688 43.5213 39.5173 43.816 39.3994 44.124C39.3355 44.2897 39.0145 44.5621 39.542 44.5855C39.6789 44.591 39.6194 44.7701 39.5969 44.869C39.561 45.0292 39.5262 45.1915 39.322 45.2438C39.1447 45.2894 38.909 45.1281 38.7946 45.4128C38.6229 45.8387 38.4243 46.2535 38.2436 46.6749C38.2021 46.7706 38.2705 46.8006 38.3547 46.7995C38.5702 46.7984 38.7733 46.7717 38.6745 47.1186C38.5971 47.3933 38.4849 47.49 38.1841 47.4856C37.329 47.4756 37.1932 47.2899 37.5333 46.4937C37.6343 46.2568 37.7566 46.0277 37.8452 45.7864C37.9215 45.5796 38.1763 45.3861 37.8699 45.1292C37.8048 45.0748 37.8643 44.6622 37.999 44.6466C38.6105 44.5732 38.6442 44.0562 38.8013 43.6692C38.9932 43.1932 39.2637 42.9942 39.8203 43.1899Z" fill="#192536"/>
<path d="M62.0001 43.1788C61.9148 43.5746 61.6836 43.9138 61.5344 44.2841C61.4917 44.3897 61.3211 44.5765 61.632 44.571C61.8205 44.5676 61.862 44.6666 61.8183 44.8156C61.77 44.9813 61.7891 45.2649 61.5501 45.2326C61.0283 45.1603 60.9486 45.5295 60.8049 45.8598C60.6804 46.1456 60.5502 46.4302 60.4144 46.7338C60.548 46.9073 61.0619 46.6582 60.8756 47.1764C60.677 47.7302 60.2585 47.4466 59.9431 47.4633C59.5908 47.4822 59.5122 47.1775 59.5997 46.9106C59.7445 46.4747 59.9566 46.0622 60.1272 45.6352C60.1821 45.4984 60.3898 45.3683 60.1025 45.1893C59.997 45.1236 60.0733 44.6555 60.2472 44.6321C60.8397 44.551 60.87 44.0528 61.0137 43.6858C61.2056 43.1977 61.4682 42.9997 62.0001 43.1788Z" fill="#182437"/>
<path d="M35.9197 46.7241C36.0903 46.9265 36.5268 46.5662 36.4842 47.0844C36.4471 47.5381 36.1396 47.4825 35.8423 47.4758C35.1375 47.4613 34.9423 47.1611 35.2082 46.5172C35.3092 46.2726 35.463 46.0647 35.6414 45.8767C35.8187 45.6888 36.014 45.5164 36.2126 45.3263C35.9421 45.1662 35.766 45.2384 35.6223 45.4675C35.454 45.7355 35.2543 45.5665 35.0949 45.4697C34.848 45.3185 35.0702 45.1873 35.1555 45.0716C35.4742 44.6446 36.7288 44.3266 37.2259 44.5901C37.4604 44.7147 37.5603 44.9727 37.2932 45.2151C36.9622 45.5142 36.6267 45.81 36.3125 46.1258C36.1475 46.2915 35.9601 46.4583 35.9208 46.7252L35.9197 46.7241Z" fill="#182438"/>
<path d="M44.603 44.6347C44.3168 45.2585 44.0441 45.8401 43.7872 46.4283C43.7266 46.5662 43.5683 46.7041 43.8175 46.8798C43.9768 46.9921 43.8175 47.2579 43.7311 47.3802C43.5908 47.5781 43.3237 47.4847 43.1127 47.4569C42.9242 47.4314 42.849 47.2868 42.8378 47.0966C42.8232 46.8642 42.9096 46.6585 42.9972 46.4584C43.1947 46.0024 43.4516 45.5676 43.6143 45.1006C43.7804 44.6247 44.0486 44.4512 44.6041 44.6347H44.603Z" fill="#192434"/>
<path d="M44.9923 42.4549C45.3492 42.4227 45.4681 42.515 45.4625 42.753C45.4546 43.101 45.265 43.3067 44.934 43.3401C44.723 43.3612 44.6007 43.2122 44.6175 42.9876C44.6411 42.6762 44.7959 42.4816 44.9923 42.4549Z" fill="#1C2129"/>
</g>
<defs>
<clipPath id="clip0_112_4742">
<rect width="62" height="50" fill="white"/>
</clipPath>
</defs>
</svg>
