<svg width="59" height="55" viewBox="0 0 59 55" fill="none" xmlns="http://www.w3.org/2000/svg">
<g clip-path="url(#clip0_112_4766)">
<path d="M58.9483 33.1534C58.9147 33.317 58.9147 33.4805 58.9483 33.6441C59.0022 33.8838 59.0067 34.1236 58.9483 34.3634C58.9102 34.742 58.9125 35.1185 58.9483 35.4971C58.9439 37.9686 58.9371 40.4401 58.9349 42.9093C58.9349 46.7902 58.9304 50.6733 58.9439 54.5542C58.9439 54.9127 58.8474 55.0001 58.4931 55.0001C39.26 54.9867 20.0247 54.9822 0.791588 54.9777C0.0268393 54.9777 0.123274 55.0718 0.123274 54.3189C0.116546 47.3482 0.114303 40.3774 0.112061 33.4066C0.112061 33.2452 0.123274 33.0862 0.127759 32.9248C0.183826 32.9293 0.226436 32.954 0.255591 33.0033C0.316143 33.1444 0.298202 33.2945 0.300444 33.4402C0.383423 36.9558 0.356511 40.4715 0.358754 43.9871C0.358754 44.1485 0.358754 44.3098 0.376695 44.4689C0.208495 45.2688 0.376695 46.071 0.363239 46.8731C0.33857 48.2534 0.367724 49.6359 0.34754 51.0162C0.343055 51.3321 0.41482 51.4778 0.737764 51.4553C0.744492 52.2732 0.769161 53.0933 0.746734 53.9111C0.737764 54.2741 0.82747 54.3862 1.20648 54.3839C9.45051 54.3705 17.6945 54.3705 25.9386 54.3682C36.441 54.366 46.9456 54.3638 57.448 54.3615C57.596 54.3615 57.744 54.3526 57.8921 54.3503C58.0356 54.3369 58.1926 54.2316 58.3069 54.4108C58.2374 54.5721 58.0939 54.599 57.9414 54.608C57.7126 54.6214 57.4839 54.6192 57.2551 54.6192C48.2105 54.6192 39.1636 54.6192 30.1189 54.6192C29.8094 54.6192 29.5022 54.6058 29.1949 54.5766C28.7935 54.5385 28.3898 54.5385 27.9951 54.6349C25.8197 54.5946 23.6443 54.6259 21.469 54.6192C19.9372 54.6147 18.4077 54.6192 16.876 54.6192C16.6091 54.6192 16.3557 54.6125 16.1157 54.8007C15.9004 54.9688 15.6829 54.906 15.5797 54.6237C15.6448 54.8657 15.8152 54.9396 16.0305 54.85C16.2906 54.7402 16.5553 54.7492 16.8221 54.7492C19.843 54.7492 22.8661 54.7492 25.887 54.7492C26.1292 54.7492 26.3692 54.7447 26.6114 54.7245C27.5488 54.8567 28.4862 54.8276 29.4259 54.7581C29.6412 54.7424 29.8565 54.7469 30.0718 54.7447C39.2981 54.7447 48.5267 54.7447 57.753 54.7447C58.372 54.7447 58.6815 54.4325 58.6815 53.8081C58.6815 48.3946 58.6837 42.9811 58.677 37.5675C58.677 37.032 58.8138 36.4987 58.7039 35.961C58.659 35.4523 58.6972 34.9437 58.6837 34.4351C58.6747 34.0474 58.659 33.6643 58.5985 33.2766C58.5335 32.8464 58.6703 32.405 58.7129 31.9681C58.7465 31.6073 58.7757 31.251 58.7779 30.8903C58.7801 30.0724 58.7779 29.2546 58.7779 28.4367C58.7779 29.3084 58.7555 30.18 58.7869 31.0494C58.8048 31.5692 58.6366 32.0532 58.5873 32.5574C58.5738 32.6963 58.529 32.8509 58.3832 32.936C58.3294 32.9495 58.2823 32.936 58.2442 32.8935C58.1477 32.7478 58.1746 32.582 58.1724 32.4229C58.1544 30.9754 58.1589 29.5257 58.1387 28.0782C58.1208 26.8369 58.0266 25.5888 58.1679 24.3475C58.1814 24.2287 58.1589 24.1055 58.2442 24.0024C58.4325 23.8904 58.4437 24.0562 58.4953 24.1615C58.603 24.8942 58.5559 25.6291 58.5222 26.3618C58.5133 26.5456 58.5178 26.736 58.4841 26.8907C58.4281 26.4873 58.7308 26.1243 58.6904 25.6829C58.6501 25.2437 58.6501 24.7978 58.6927 24.3587C58.7353 23.9173 58.742 23.4781 58.7174 23.0367C58.6949 22.7476 58.52 22.4317 58.8564 22.2031C58.9775 22.3264 58.9214 22.4832 58.9214 22.6221C58.9214 24.7261 58.9192 26.8324 58.917 28.9364C58.917 29.082 58.9327 29.2299 58.9394 29.3756C59.0224 30.0769 58.9775 30.7827 58.9775 31.4841C58.9775 32.0398 59.0268 32.5999 58.9416 33.1556L58.9483 33.1534Z" fill="#CCB746"/>
<path d="M0.192767 32.9045C0.170341 32.9067 0.150157 32.9134 0.129973 32.9224C0.11876 32.5168 0.107546 32.1113 0.0940903 31.7057C0.0940903 31.5981 0.0940903 31.4906 0.0940903 31.383C-0.0606536 30.9528 0.00438369 30.5226 0.0940903 30.0946C0.0940903 29.772 0.0940903 29.4493 0.0940903 29.1267C-0.00682963 28.9653 -0.00682963 28.804 0.0940903 28.6427V28.3223C-0.0651389 27.8383 0.0380237 27.3408 0.0245677 26.8501C0.0178397 26.5633 -0.0539256 26.2608 0.0940903 25.983C0.0940903 25.8754 0.0940903 25.7701 0.0940903 25.6626C-0.0449549 24.9903 -0.0292563 24.3181 0.0940903 23.6459C0.0940903 23.4846 0.0940903 23.3255 0.0940903 23.1642C-0.0135576 22.976 -0.0135576 22.7877 0.0940903 22.5973C0.1524 22.4718 0.0514796 22.306 0.192767 22.2007C0.210709 22.2208 0.22865 22.2388 0.248834 22.2589C0.325085 22.4091 0.302658 22.5726 0.302658 22.7317C0.304901 23.5877 0.304901 24.4459 0.302658 25.304C0.298173 27.4327 0.381151 29.5591 0.381151 31.6878C0.269018 32.0866 0.392365 32.5213 0.192767 32.9045Z" fill="#EFAB11"/>
<path d="M11.4242 34.9818C13.3013 36.1245 14.0459 38.0874 15.304 39.7231C14.9407 39.8284 14.6357 39.7813 14.3396 39.7791C13.7364 39.7746 13.0411 39.9852 12.559 39.7029C12.0925 39.4295 11.8413 38.7909 11.4982 38.3092C10.9555 37.5429 10.4083 36.7788 9.83638 36.0326C9.20619 35.2103 8.32258 35.2081 7.42327 35.2394C7.18779 35.2484 7.2775 35.4613 7.2775 35.589C7.27077 36.8505 7.25955 38.1142 7.27974 39.3758C7.28422 39.7186 7.18106 39.8105 6.84915 39.7948C6.29969 39.7679 5.74576 39.7813 5.1963 39.7925C4.98549 39.797 4.91821 39.7208 4.91821 39.5124C4.92494 37.5115 4.92494 35.5106 4.91821 33.5096C4.91821 33.3057 4.98325 33.2206 5.1963 33.2228C5.78837 33.2318 6.38043 33.2228 6.97249 33.2251C7.09808 33.2251 7.25058 33.1982 7.28198 33.3954C7.29992 33.5029 7.3986 33.4895 7.47485 33.4872C8.60291 33.4693 9.7534 33.6284 10.8545 33.3797C11.8346 33.1578 12.8034 33.2878 13.7745 33.2206C14.1064 33.1982 14.1131 33.3102 13.9561 33.5522C13.4942 34.258 12.8124 34.6277 12.0252 34.8406C11.8503 34.8877 11.6709 34.9257 11.4219 34.984L11.4242 34.9818Z" fill="#F9F651"/>
<path d="M35.1404 36.3662C36.3873 38.6607 39.0179 38.3425 40.6125 37.3028C40.7515 37.2132 40.8031 37.0989 40.8121 36.9376C40.8599 36.1712 40.5048 35.7858 39.7468 35.7814C39.3162 35.7814 38.8856 35.7746 38.455 35.7836C38.2465 35.7881 38.1276 35.7388 38.1343 35.4946C38.1455 35.0643 38.141 34.6341 38.1343 34.2062C38.1298 33.9978 38.2128 33.9238 38.4214 33.9238C39.915 33.9306 41.4086 33.9328 42.9 33.9261C43.1175 33.9261 43.1758 34.0023 43.1758 34.2084C43.1691 35.4856 43.1669 36.7605 43.1736 38.0377C43.1736 38.2372 43.0973 38.3582 42.9516 38.4769C42.3707 38.9542 41.6755 39.2141 41.0004 39.5121C40.913 39.8191 40.6371 39.8549 40.3949 39.8841C40.2222 39.9042 40.0563 39.9535 39.8858 39.9782C39.6683 40.0992 39.4552 39.9782 39.24 39.9692C39.0987 39.9625 38.9529 39.9423 38.8138 39.9983C37.8876 39.9916 36.9659 39.9827 36.0711 39.6891C35.0529 39.3553 34.167 38.8332 33.5144 37.9638C33.4382 37.8607 33.3171 37.7733 33.3507 37.6165C33.2812 37.2288 33.6019 37.1213 33.8396 37.063C34.2119 36.9712 34.4519 36.7942 34.5976 36.4446C34.7232 36.1444 34.9228 36.1309 35.1426 36.3662H35.1404Z" fill="#CDB742"/>
<path d="M23.0254 33.2359C23.3483 33.1441 23.4448 33.2718 23.4403 33.5944C23.4246 34.9075 23.4403 36.2183 23.4246 37.5313C23.4201 37.8316 23.4784 37.9638 23.8171 37.9481C24.593 37.9123 25.3735 37.9503 26.1494 37.8966C27.356 37.8114 28.0378 37.1325 28.2037 35.9203C28.3226 35.0867 28.3315 34.2487 28.3024 33.4085C28.2979 33.2516 28.3652 33.1934 28.5154 33.1934C29.186 33.1934 29.8566 33.1934 30.5271 33.1934C30.6976 33.1934 30.8052 33.2695 30.8568 33.4309C30.9016 33.572 30.9667 33.7177 30.933 33.8611C30.776 34.5019 30.9599 35.1853 30.6796 35.8082C30.5495 36.3146 30.4172 36.8166 30.1907 37.2916C29.4304 38.8825 28.114 39.6622 26.4073 39.7407C24.7298 39.8168 23.0478 39.7743 21.3681 39.7922C21.1595 39.7922 21.0833 39.7295 21.0855 39.5188C21.0945 37.5336 21.0967 35.5461 21.1012 33.5608C21.3187 33.5877 21.3322 33.7603 21.3344 33.9193C21.3456 35.1248 21.3591 36.3281 21.3277 37.5313C21.5609 37.426 21.8188 37.3162 22.0633 37.2692C22.5612 37.1728 22.7944 36.8166 23.0725 36.4782C23.1779 36.3483 23.1779 36.2071 23.1779 36.0614C23.1824 35.3489 23.1622 34.6364 23.1891 33.9261C23.1981 33.6684 23.0075 33.4847 23.0321 33.2404L23.0254 33.2359Z" fill="#DDD146"/>
<path d="M37.1877 43.9714C36.885 42.3021 35.9094 41.4887 34.214 41.4237C33.7699 41.408 33.3259 41.4215 32.8818 41.4215V41.4103C32.3705 41.4103 31.8592 41.417 31.3478 41.408C31.1415 41.4035 31.0271 41.4461 31.0294 41.6926C31.0339 43.8549 31.0294 46.0171 31.0249 48.1794C31.0249 48.3586 31.072 48.464 31.2716 48.4595C32.4535 48.4303 33.6421 48.5401 34.8195 48.3833C35.7637 48.2578 36.4611 47.7514 36.8805 46.8865C37.3358 45.9521 37.3672 44.9595 37.1877 43.9714ZM35.5932 46.1224C35.4273 46.8193 35.0505 47.1621 34.3373 47.2293C33.817 47.2786 33.29 47.2473 32.7652 47.2652C32.5409 47.2719 32.5432 47.133 32.5454 46.9784C32.5477 46.6423 32.5454 46.3062 32.5454 45.9701V44.964H32.5432C32.5432 44.3075 32.5634 43.6487 32.5342 42.9922C32.5208 42.6583 32.6396 42.5709 32.9491 42.5933C33.364 42.6247 33.7811 42.6135 34.196 42.6426C34.9653 42.6987 35.4474 43.0997 35.6089 43.8481C35.7726 44.6032 35.7726 45.3696 35.5932 46.1224Z" fill="#D6BD4A"/>
<path d="M44.3286 41.5422C44.1649 41.1703 43.8083 41.2263 43.5033 41.168C42.7026 41.1165 41.902 41.1076 41.1373 41.4011C40.7291 41.5579 40.2985 41.7036 40.137 42.1831C40.0249 42.331 39.9128 42.4789 39.8029 42.629C38.9551 43.7897 38.8991 45.9474 39.7177 47.1238C40.6685 48.4906 42.0545 48.7304 43.5728 48.5041C44.9363 48.3002 45.8267 47.5137 46.2214 46.1872C46.2752 46.0102 46.3133 45.8287 46.3604 45.6494C46.3649 45.5015 46.3671 45.3559 46.3739 45.208C46.4456 43.5656 45.9007 42.2682 44.3286 41.5422ZM44.6156 46.1558C44.3084 46.9065 43.6603 47.3412 42.826 47.3524C41.9334 47.3636 41.2494 46.9468 40.9242 46.1917C40.7538 45.7884 40.6865 45.3693 40.6842 44.9324C40.7044 44.7195 40.7089 44.5022 40.747 44.2938C40.9668 43.0883 41.6845 42.4811 42.8462 42.5057C43.9361 42.5304 44.6313 43.1779 44.7928 44.3722C44.8735 44.9727 44.8534 45.5777 44.6156 46.1558Z" fill="#DFC354"/>
<path d="M24.0369 41.4481C24.5684 42.0397 24.9249 42.7477 25.3623 43.3998C25.8714 44.1571 26.3558 44.9301 26.8559 45.692C26.9187 45.7883 26.9972 45.8757 27.1474 46.0639C27.1474 45.7861 27.1474 45.6203 27.1474 45.4522C27.1474 44.2176 27.1519 42.983 27.1385 41.7484C27.1362 41.4907 27.2057 41.4011 27.4749 41.3966C28.5379 41.3764 28.5356 41.3674 28.5356 42.4273C28.5356 44.2781 28.5312 46.1312 28.5468 47.982C28.5491 48.3338 28.4661 48.4256 28.0916 48.4727C27.2618 48.5802 26.8133 48.224 26.4096 47.5383C25.6919 46.3149 24.8779 45.1475 24.1019 43.9554C23.9427 44.0339 24.0055 44.1549 24.0055 44.2445C24.0032 45.4791 24.0055 46.7137 24.0055 47.9484C24.0055 48.094 23.983 48.2396 23.9696 48.3853C23.5995 48.4727 23.2228 48.4099 22.8505 48.4234C22.6105 48.4323 22.6643 48.2419 22.6643 48.1074C22.6621 46.9535 22.6643 45.7995 22.6643 44.6456C22.6643 43.7336 22.6643 42.8217 22.6643 41.9097C22.6643 41.4907 22.7383 41.4145 23.1555 41.4167C23.4493 41.419 23.7453 41.3809 24.0369 41.4459V41.4481Z" fill="#D0BA41"/>
<path d="M27.6005 29.0593C29.0425 29.5388 29.9149 30.5762 30.4487 31.9498C30.5742 32.3285 30.5742 32.3217 30.2042 32.315C29.6144 32.3038 29.0268 32.315 28.437 32.3083C28.3092 32.3083 28.1679 32.3576 28.0513 32.2568C27.7978 31.468 27.2484 30.9953 26.4522 30.8362C25.5238 30.6502 24.5774 30.7376 23.6377 30.7197C23.4448 30.7152 23.4246 30.825 23.4291 30.9773C23.4358 31.3134 23.4201 31.6495 23.4336 31.9834C23.4426 32.2052 23.3775 32.2949 23.1421 32.2904C22.5522 32.2769 21.9602 32.2769 21.3681 32.2949C21.1237 32.3016 21.0833 32.1963 21.0855 31.9856C21.0923 31.0468 21.09 30.1079 21.0855 29.1669C21.0855 28.9898 21.0878 28.8554 21.33 28.8621C23.2228 28.9092 25.1178 28.768 27.0084 28.9674C27.208 28.9876 27.4054 29.0302 27.6027 29.0638L27.6005 29.0593Z" fill="#F5F553"/>
<path d="M33.1263 31.1724C34.9653 28.748 38.0691 27.9323 40.8209 29.158C41.8749 29.6263 42.5567 30.4352 42.9245 31.5219C43.0142 31.7886 42.9716 31.9073 42.6688 31.9499C42.1239 32.0261 41.5834 32.1314 41.0451 32.2412C40.8164 32.286 40.6908 32.2546 40.5854 32.0104C40.2086 31.1432 39.4999 30.6817 38.5849 30.592C37.181 30.4531 35.9633 30.7915 35.2075 32.1135C35.1402 32.23 35.064 32.2882 34.9227 32.286C34.2633 32.2815 33.604 32.277 32.9469 32.2905C32.7383 32.295 32.6935 32.2009 32.7092 32.0283C32.8056 31.7213 32.9491 31.439 33.1285 31.1724H33.1263Z" fill="#E2D948"/>
<path d="M10.3365 30.7131C9.46413 30.7131 8.59173 30.74 7.72158 30.7087C7.33135 30.6952 7.21922 30.8319 7.27304 31.1815C7.27977 31.2218 7.27304 31.2621 7.27304 31.3024C7.27304 31.9597 6.9359 32.2884 6.2616 32.2884C5.91175 32.2884 5.56413 32.2816 5.21428 32.2884C5.02365 32.2928 4.916 32.2525 4.91825 32.0262C4.92722 31.0605 4.92722 30.097 4.92497 29.1312C4.92497 28.9452 4.99001 28.8623 5.18064 28.8646C7.34032 28.9072 9.50225 28.7593 11.6597 28.9654C11.884 28.9878 12.115 29.0013 12.3213 29.1111C12.2854 29.297 12.3684 29.4113 12.5343 29.4965C12.7137 29.5883 12.8461 29.7295 12.7698 29.9513C12.6936 30.1731 12.4805 30.2852 12.2876 30.2336C11.6978 30.079 11.2156 30.5653 10.6415 30.4734C10.489 30.4487 10.4442 30.637 10.3388 30.7109L10.3365 30.7131Z" fill="#FBE039"/>
<path d="M16.5082 36.5009C16.5082 35.5352 16.5217 34.5694 16.5015 33.6059C16.4948 33.281 16.6002 33.1959 16.9119 33.2093C17.4479 33.234 17.9862 33.2317 18.5222 33.2093C18.798 33.1981 18.8586 33.3012 18.8563 33.5522C18.8451 35.5217 18.8429 37.4935 18.8473 39.4631C18.8473 39.7051 18.7846 39.7925 18.5334 39.7858C17.9705 39.7701 17.4053 39.7656 16.8424 39.788C16.5553 39.7992 16.5105 39.676 16.5127 39.434C16.5217 38.4548 16.5172 37.4779 16.5172 36.4987H16.5105L16.5082 36.5009Z" fill="#EEE84F"/>
<path d="M52.586 44.4262C53.8128 44.7623 54.3241 45.7169 54.0214 47.1016C53.5638 48.1144 52.7071 48.4886 51.6666 48.5581C50.9534 48.6051 50.2425 48.6006 49.5697 48.3183C48.6457 47.9307 48.2016 47.189 48.0581 46.2345C48.3003 45.7818 48.7287 45.9925 49.0808 45.9701C49.2041 45.9633 49.3656 45.9858 49.5001 46.0463C49.6571 46.4742 49.7827 46.9044 50.229 47.1621C50.5093 47.3234 50.7874 47.3683 51.0902 47.3548C51.3279 47.3279 51.5634 47.2966 51.8011 47.2741C51.985 47.2741 52.1218 47.1554 52.2474 47.0568C52.7542 46.6557 52.7071 46.165 52.1442 45.8177C51.7428 45.8984 51.4266 45.7057 51.1171 45.4973C50.8233 45.439 50.5273 45.3785 50.2335 45.3203H50.2357C49.7446 45.0715 49.1593 44.9864 48.8049 44.5002C48.7668 44.4486 48.7331 44.3926 48.6973 44.3388C48.6524 44.0588 48.8834 44.1193 48.9552 44.191C49.6257 44.8564 50.4667 44.4285 51.2203 44.5495C51.5746 44.6055 51.9671 44.6212 52.3124 44.4083C52.3887 44.3613 52.4963 44.4016 52.586 44.4307V44.4262Z" fill="#EDCB67"/>
<path d="M17.347 48.5579C16.1046 48.6364 14.9675 48.41 14.0929 47.4219C13.8596 47.1575 13.7363 46.8416 13.5905 46.5323C13.613 46.4405 13.5793 46.3486 13.5771 46.2567C13.5614 45.9386 13.678 45.8176 13.9673 45.9072C14.1265 45.9542 14.2185 45.9744 14.3373 45.8288C14.4764 45.6585 14.6536 45.7257 14.7948 45.8512C14.8801 45.9251 14.9429 46.0215 15.0258 46.0999C15.0415 46.1178 15.0595 46.1335 15.0797 46.1514C15.0729 46.1626 15.0617 46.1738 15.0505 46.185C15.0729 46.2164 15.0998 46.2478 15.12 46.2814C15.5977 47.1149 16.3669 47.4824 17.3223 47.3323C18.1566 47.2023 18.7554 46.5727 18.9236 45.6405C19.0626 44.8698 18.9931 44.1191 18.6657 43.3999C18.641 43.4088 18.6163 43.4111 18.5962 43.4111C18.6006 43.3887 18.6096 43.3685 18.6208 43.3483C18.6432 43.3058 18.6724 43.2699 18.6948 43.2296C18.8563 42.9607 18.9348 42.954 19.1052 43.2184C19.168 43.317 19.2196 43.438 19.3407 43.355C19.704 43.1131 19.9888 43.2945 20.2804 43.494C21.3457 45.7526 19.8162 48.4011 17.347 48.5579Z" fill="#D1BE3F"/>
<path d="M20.2804 43.4939C19.861 43.3931 19.4708 43.4939 19.0604 43.5835C18.8294 43.6328 19.0806 43.2586 18.9303 43.1354C18.7576 43.1533 18.9146 43.4715 18.6657 43.3998C18.641 43.4088 18.6163 43.411 18.5961 43.411C18.6006 43.3886 18.6096 43.3684 18.6208 43.3483C18.3405 43.0301 18.0579 42.7298 17.6206 42.5931C16.3938 42.2167 15.2411 42.8396 14.9473 44.081C14.7859 44.7577 14.8285 45.4343 15.0258 46.0998C15.0415 46.1178 15.0595 46.1334 15.0796 46.1514C15.0729 46.1626 15.0617 46.1738 15.0505 46.185C14.8576 46.241 14.8285 46.0393 14.7141 45.9699C14.6378 45.9273 14.5907 45.813 14.4808 45.8534C14.371 45.8959 14.3956 46.0057 14.3889 46.0953C14.3754 46.2544 14.3754 46.4225 14.1467 46.25C13.743 45.9452 13.7408 45.9475 13.6309 46.4651C13.6264 46.4897 13.604 46.5099 13.5905 46.5323C12.8773 44.8988 13.4021 42.7881 14.7522 41.8582C16.0014 40.9978 18.271 41.1098 19.325 42.0845C19.4596 42.2234 19.6031 42.3534 19.7242 42.5058C19.7489 42.5326 19.7713 42.5595 19.796 42.5864C19.8946 42.75 20.027 42.8889 20.1055 43.0659C20.1638 43.2093 20.2221 43.3505 20.2804 43.4939Z" fill="#DBCE47"/>
<path d="M5.35784 46.8571C5.23674 46.6577 5.09321 46.4672 5.10442 46.2163C5.04611 46.0908 5.22104 45.9138 5.01696 45.8197C4.96538 45.2438 4.96538 44.6702 5.01696 44.0966C5.09321 43.3616 5.40494 42.7387 5.92524 42.2189C7.04881 41.0985 9.20177 40.9551 10.4666 41.9119C10.877 42.2234 11.1349 42.6379 11.3166 43.1084C11.3861 43.2877 11.3547 43.384 11.1484 43.4042C11.0295 43.4177 10.9129 43.4557 10.7941 43.4826C10.3321 43.5879 9.92615 43.8008 9.60993 43.1152C9.33857 42.5259 8.64559 42.4318 8.01091 42.5326C7.36727 42.6334 6.90304 42.9897 6.66532 43.6104C6.42311 44.2422 6.47469 44.9032 6.4859 45.5598C6.57561 45.7659 6.47917 45.8869 6.29303 45.9631C6.01719 46.0751 5.8445 46.2701 5.75255 46.5569C5.69648 46.7339 5.59781 46.9042 5.3556 46.8594L5.35784 46.8571Z" fill="#E9E24E"/>
<path d="M52.5859 44.4263C52.097 44.8027 51.5252 44.6503 50.9802 44.6862C50.5451 44.7153 50.1145 44.6347 49.6682 44.787C49.4933 44.8475 49.1636 44.6279 48.9865 44.3949C48.9169 44.3053 48.8384 44.1305 48.6972 44.3344C48.4886 44.1798 48.4034 43.9602 48.3652 43.7137C48.2957 43.4471 48.3249 43.1782 48.3585 42.9093C48.4034 42.6741 48.4505 42.441 48.6119 42.2506C49.6907 41.2266 51.5005 40.9554 52.7833 41.6276C53.3641 41.9324 53.7275 42.4007 53.862 43.0482C53.9181 43.3239 53.8844 43.4941 53.5436 43.4583C53.3843 43.4426 53.2206 43.4583 53.0614 43.4695C52.6779 43.5009 52.3258 43.5412 52.2226 43.0057C52.171 42.7368 51.8862 42.5979 51.6149 42.5329C51.2179 42.4388 50.8165 42.4477 50.4195 42.5419C50.0831 42.6225 49.8364 42.8018 49.7602 43.1603C49.6593 43.3351 49.6817 43.3911 49.9194 43.5345C49.9441 43.5614 49.971 43.5883 49.9957 43.6151C50.0831 43.7742 50.2199 43.8258 50.3926 43.8034C50.4621 43.7944 50.5182 43.8146 50.5631 43.8683C50.6707 43.9849 50.8097 43.9938 50.9533 43.9737C51.0206 43.9624 51.0811 43.9737 51.126 44.0274C51.4489 44.2134 51.7898 44.321 52.1666 44.2829C52.3235 44.2829 52.4671 44.3232 52.5904 44.4218L52.5859 44.4263Z" fill="#E2C557"/>
<path d="M35.1404 36.3663C34.8421 36.2565 34.7188 36.4537 34.6537 36.6778C34.5528 37.0296 34.3084 37.1573 33.9764 37.1819C33.6782 37.2043 33.5526 37.4665 33.3485 37.6166C32.9785 37.285 32.8641 36.8167 32.6914 36.382C32.6376 36.2476 32.595 36.1109 32.5479 35.9764C32.2967 35.7524 32.3079 35.4342 32.3258 35.1586C32.3617 34.6006 32.3101 34.0382 32.3774 33.4825C32.3842 33.431 32.3886 33.3772 32.3954 33.3257C32.4716 33.2316 32.5748 33.2204 32.6847 33.2204C33.3014 33.2204 33.9181 33.2293 34.5326 33.2204C34.7681 33.2159 34.8309 33.3033 34.8062 33.5318C34.6941 34.5021 34.795 35.4521 35.1426 36.3708L35.1404 36.3663Z" fill="#DACC44"/>
<path d="M23.0255 33.236C23.2677 33.3211 23.3619 33.469 23.3552 33.7446C23.3328 34.6006 23.3485 35.4588 23.344 36.3147C23.344 36.476 23.4023 36.6889 23.1085 36.6665C23.0794 36.6665 23.03 36.7046 23.0188 36.7359C22.7699 37.4709 22.0747 37.4104 21.5117 37.5964C21.2875 37.6703 21.4938 37.9146 21.3368 38.0669C21.1552 37.928 21.1686 37.7219 21.1686 37.5202C21.1686 36.355 21.1686 35.1899 21.1641 34.0247C21.1641 33.8679 21.1978 33.7021 21.0968 33.5564C21.0363 33.301 21.1215 33.1957 21.3974 33.2069C21.9401 33.2293 22.4828 33.2248 23.0255 33.2337V33.236Z" fill="#E8E34C"/>
<path d="M0.192871 22.2006C0.293791 22.1042 0.421623 22.1423 0.538241 22.1401C3.81702 22.1401 7.09579 22.1378 10.3746 22.1401C10.536 22.1401 10.7625 22.046 10.7962 22.3619C10.8321 22.7025 10.6818 22.763 10.3813 22.763C8.60735 22.7518 6.8334 22.7563 5.05945 22.7563C3.78338 22.7563 2.50506 22.7719 1.22898 22.7451C0.820817 22.7361 0.744566 22.8795 0.749052 23.2492C0.766993 24.3494 0.746809 25.4496 0.740081 26.5475C0.623463 26.7021 0.675044 26.8836 0.666073 27.0539C0.657103 27.2556 0.681772 27.4572 0.652617 27.6567C0.630191 27.8113 0.515815 27.8852 0.363314 27.874C0.210812 27.8628 0.224268 27.7373 0.222026 27.6298C0.222026 27.4819 0.222026 27.334 0.222026 27.1861C0.222026 25.6557 0.224268 24.1253 0.219783 22.5927C0.219783 22.3395 0.239967 22.1446 0.500116 22.2252C0.448535 22.2252 0.327431 22.2454 0.20857 22.214L0.192871 22.1938V22.2006Z" fill="#EFAB11"/>
<path d="M5.35767 46.8572C5.55726 46.725 5.55951 46.4853 5.66491 46.3082C5.77929 46.1133 5.87124 45.8265 6.20764 45.8175C6.30856 45.8153 6.50591 45.7615 6.48797 45.5576C6.53058 45.7234 6.57095 45.8915 6.61804 46.0573C6.84231 46.8438 7.4097 47.3143 8.17221 47.3434C9.01321 47.3771 9.57836 47.0096 9.85196 46.194C9.95064 45.8982 10.065 45.8444 10.3341 45.9609C10.5292 46.0438 10.7445 46.0864 10.9509 46.1424C11.2813 46.235 11.3837 46.4352 11.2581 46.7429C10.6907 48.1299 9.33615 48.8066 7.67658 48.5153C6.64271 48.3338 5.82638 47.8342 5.35767 46.8572Z" fill="#D9CC44"/>
<path d="M16.5129 30.5385C16.5129 30.097 16.5241 29.6534 16.5084 29.212C16.4994 28.9633 16.5599 28.849 16.8403 28.8579C17.4032 28.8781 17.9661 28.8736 18.529 28.8579C18.7645 28.8512 18.8587 28.9072 18.8542 29.1672C18.8385 30.1038 18.843 31.0426 18.8497 31.9792C18.8497 32.1854 18.8206 32.2996 18.5694 32.2929C17.9796 32.2772 17.3897 32.2795 16.7999 32.2929C16.5622 32.2974 16.4994 32.1988 16.5039 31.9837C16.5129 31.502 16.5061 31.0202 16.5061 30.5362H16.5084L16.5129 30.5385Z" fill="#F9F44F"/>
<path d="M12.6218 9.54331C12.6308 9.15567 12.6487 8.76803 12.651 8.38039C12.6532 6.63713 12.651 4.89387 12.651 3.14838C12.651 3.03186 12.6106 2.90638 12.6936 2.79883C12.8999 2.93327 12.8663 3.14838 12.8663 3.34332C12.873 4.40092 12.8663 5.46077 12.8708 6.51838C12.873 7.00012 12.8416 7.48187 12.9358 7.95914C13.0143 8.36022 12.8573 8.74338 12.8147 9.04812C12.8282 9.18704 12.9134 9.11982 12.8618 9.1355C12.8394 9.14222 12.8282 9.1355 12.8259 9.11982C12.8125 8.63359 12.9739 8.52379 13.4157 8.73218C13.5234 8.6067 13.4808 8.45209 13.4808 8.31093C13.4808 7.46619 13.4897 6.62369 13.492 5.77895C13.492 5.5728 13.4583 5.2972 13.8217 5.34649C13.8284 6.34808 13.8418 7.34967 13.8396 8.35126C13.8373 9.92871 13.8239 11.5062 13.8149 13.0836C13.714 13.1799 13.7342 13.3054 13.7387 13.4242C13.7544 13.7872 13.7319 14.1345 13.5211 14.4571C13.4269 14.5983 13.3821 14.856 13.1892 14.7753C13.0008 14.6947 12.6913 14.7036 12.66 14.3832C12.6555 14.3294 12.6487 14.2779 12.6465 14.2241C12.6151 13.2763 12.651 12.3307 12.6129 11.3852C12.5882 10.7959 12.6622 10.1931 12.6129 9.59708C12.633 9.57916 12.633 9.56123 12.6129 9.54331H12.6218Z" fill="#F4CE0E"/>
<path d="M10.3365 30.7131C10.2894 30.4129 10.4665 30.3412 10.7177 30.3345C11.2986 30.3188 11.8278 29.9692 12.4333 30.0701C12.5432 30.088 12.6733 30.0006 12.6756 29.8505C12.6778 29.7183 12.5769 29.6824 12.4647 29.6466C12.3638 29.6152 12.2562 29.5726 12.1822 29.5032C11.9534 29.2881 12.0297 29.1603 12.319 29.1133C13.5659 29.3732 14.5661 30.805 14.3957 32.071C14.371 32.2503 14.2903 32.2906 14.1355 32.2883C13.4919 32.2861 12.8505 32.2883 12.2068 32.2861C12.1014 32.2861 11.9781 32.2951 11.9781 32.1337C11.9781 31.7035 11.8906 31.3204 11.5071 31.0448C11.1505 30.7893 10.7514 30.74 10.3387 30.7109L10.3365 30.7131Z" fill="#FBF14A"/>
<path d="M13.8215 20.816C13.9067 21.1857 13.7497 21.5711 13.9067 21.9341C14.0457 21.8601 14.1848 21.8758 14.3328 21.9162C15.49 22.2276 16.6584 22.5032 17.8134 22.8281C17.9569 22.8685 18.0937 22.9133 18.1834 23.0432C18.3449 23.2404 18.5647 23.2875 18.8024 23.2673C18.9078 23.2583 19.0065 23.2068 19.1164 23.2135C19.2846 23.2359 19.4528 23.2561 19.5021 23.4622C19.482 23.5474 19.4236 23.6101 19.3474 23.637C19.0065 23.758 18.6253 23.7871 18.383 24.1188C18.336 24.1837 18.1947 24.1837 18.1184 24.1255C17.7686 23.8611 17.3671 23.9485 16.9769 23.9395C15.5483 23.572 14.1197 23.2046 12.6912 22.8371C12.5745 22.5996 12.6934 22.3486 12.6553 22.1066C12.68 21.9923 12.6844 21.8669 12.7764 21.7795C12.8795 21.6831 12.9648 21.5308 13.1397 21.5957C13.3034 21.6562 13.2473 21.8176 13.2496 21.8534C13.1173 21.542 13.29 21.2283 13.5322 20.9303C13.6084 20.8361 13.6757 20.7286 13.8215 20.816Z" fill="#F9CF26"/>
<path d="M16.9771 23.9419C17.1228 23.8523 17.309 23.8903 17.4435 23.7357C17.5848 23.5744 17.7306 23.7044 17.8629 23.8052C18.2666 24.1167 18.2711 24.1167 18.5178 23.6999C18.5626 23.6215 18.6209 23.5542 18.7017 23.5744C18.9753 23.6394 19.2197 23.4982 19.4799 23.4825C19.6189 23.3122 19.8028 23.366 19.9665 23.4064C21.3211 23.7492 22.6689 24.1032 24.0145 24.4774C24.1289 24.5088 24.2455 24.5558 24.3173 24.6634C24.315 24.7015 24.3891 24.7575 24.2904 24.7732C24.7344 24.9524 24.4317 25.0824 24.2455 25.1519C24.0011 25.2437 24.1132 25.349 24.1917 25.47C24.2074 25.5081 24.2141 25.5485 24.2074 25.591C24.1468 25.7591 24.0078 25.768 23.88 25.712C23.5929 25.5843 23.3103 25.6202 23.0233 25.6941C22.6375 25.6941 22.3146 25.526 22.0051 25.3221C21.0923 25.0398 20.1751 24.7821 19.2377 24.5939C18.4841 24.3766 17.7306 24.157 16.9771 23.9396V23.9419Z" fill="#F9E33F"/>
<path d="M0.192871 32.9045C0.192871 32.5101 0.195114 32.118 0.197356 31.7236C0.484417 31.7752 0.426108 32.0104 0.430593 32.1919C0.45302 32.9807 0.428351 33.7671 0.421623 34.5111C0.524785 34.2758 0.204084 33.8388 0.740081 33.7223C0.746809 36.0728 0.758022 38.4233 0.758022 40.7738C0.758022 42.2907 0.746809 43.8077 0.740081 45.3269C0.686257 45.3874 0.670559 45.4703 0.62122 45.533C0.549455 45.6271 0.450777 45.6585 0.338644 45.6226C0.226511 45.5868 0.226511 45.4927 0.222026 45.3963C0.20857 45.105 0.253423 44.8137 0.197356 44.5247C0.197356 40.6528 0.192871 36.7786 0.192871 32.9067V32.9045Z" fill="#F3EE55"/>
<path d="M0.742233 33.7225C0.526937 33.8569 0.587489 34.0765 0.589732 34.2692C0.591974 34.5918 0.583004 34.9078 0.356495 35.1946C0.219692 35.0781 0.271274 34.9235 0.269031 34.7935C0.262303 33.9129 0.264546 33.0323 0.26006 32.1517C0.26006 32.0083 0.2937 31.856 0.197266 31.7238C0.201751 28.5554 0.203994 25.3871 0.208479 22.2188C0.448444 22.2188 0.688409 22.2188 0.94183 22.2188C0.917161 22.2434 0.903705 22.2636 0.890249 22.2658C0.262303 22.3061 0.26006 22.3061 0.26006 22.947C0.26006 24.446 0.26006 25.9473 0.269031 27.4463C0.269031 27.5628 0.19278 27.7622 0.387892 27.7734C0.583004 27.7824 0.558335 27.5874 0.589732 27.4418C0.650284 27.146 0.421532 26.7987 0.742233 26.5478C0.742233 28.9386 0.742233 31.3316 0.742233 33.7225Z" fill="#FACB32"/>
<path d="M0.199554 44.5225C0.304959 44.695 0.24665 44.8855 0.264591 45.067C0.28029 45.2193 0.190583 45.4165 0.345327 45.5128C0.529225 45.6271 0.576321 45.3291 0.740036 45.3269C0.740036 47.3681 0.740036 49.4094 0.740036 51.4529C0.542681 51.4977 0.540439 51.686 0.466431 51.8226C0.428305 51.8943 0.376724 51.9683 0.282532 51.9391C0.208524 51.9167 0.204039 51.8383 0.199554 51.7711C0.197311 51.7308 0.195068 51.6904 0.195068 51.6501C0.195068 49.275 0.195068 46.8998 0.197311 44.5247L0.199554 44.5225Z" fill="#E3DB52"/>
<path d="M24.0369 41.4483C23.7409 41.4506 23.4448 41.4551 23.151 41.4573C22.8528 41.4618 22.7047 41.6186 22.7047 41.9099C22.7047 43.9624 22.707 46.0171 22.7025 48.0696C22.7025 48.3205 22.8101 48.399 23.0434 48.39C23.3529 48.381 23.6624 48.39 23.9696 48.39C23.5816 48.5401 23.1802 48.437 22.7855 48.455C22.6128 48.4639 22.615 48.3228 22.615 48.1973C22.615 46.0126 22.615 43.8279 22.6128 41.641C22.6128 41.5088 22.6307 41.3901 22.8012 41.4013C23.2138 41.4282 23.6287 41.3385 24.0369 41.4461V41.4483Z" fill="#BAAD79"/>
<path d="M5.01689 44.0967C5.01689 44.6703 5.01689 45.2439 5.01689 45.8153C4.88009 45.2417 4.8756 44.6681 5.01689 44.0967Z" fill="#D9CC44"/>
<path d="M5.01688 45.8198C5.44523 45.8646 5.17611 46.0618 5.10434 46.2164C5.01463 46.0977 5.00791 45.961 5.01688 45.8198Z" fill="#D9CC44"/>
<path d="M20.1056 43.0659C19.9755 42.9248 19.7423 42.8463 19.7983 42.5864C19.9845 42.6917 20.063 42.8688 20.1056 43.0659Z" fill="#D1BE3F"/>
<path d="M19.7243 42.5057C19.5225 42.4295 19.4036 42.2772 19.3274 42.0845C19.5001 42.1853 19.6683 42.2951 19.7243 42.5057Z" fill="#D1BE3F"/>
<path d="M24.1536 25.497C23.9652 25.5105 23.8194 25.3581 23.8172 25.2416C23.8127 25.0601 24.0258 25.0332 24.1805 25.0198C24.3891 24.9996 24.4384 24.9436 24.2635 24.7934C24.2747 24.7867 24.2859 24.78 24.2971 24.7755C24.3083 24.771 24.3218 24.7688 24.3353 24.7643C24.6425 24.5761 24.9385 24.7621 25.2211 24.8226C26.6609 25.1363 28.076 25.5463 29.5024 25.9183C29.7737 25.99 30.0316 25.9586 30.294 25.8869C35.026 24.5895 39.7558 23.2899 44.4811 21.9747C44.6942 21.9164 44.9162 21.8066 45.1449 21.9366C45.2616 21.7954 45.201 21.6273 45.201 21.4727C45.2055 17.0944 45.2077 12.7184 45.21 8.34005C45.21 8.20561 45.2234 8.07341 45.2302 7.93896C45.5038 7.97033 45.4679 8.18992 45.4724 8.3647C45.4925 8.91367 45.4769 9.46487 45.4813 10.0138C45.4813 10.1572 45.4612 10.3051 45.5127 10.4396C45.5957 10.4553 45.6204 10.397 45.663 10.3679C45.9344 10.1797 46.0084 10.211 46.0285 10.527C46.0398 10.7017 46.0285 10.8765 46.0308 11.0132C46.0196 10.7779 46.0555 10.5023 46.0084 10.2312C45.9859 10.1012 46.042 9.99592 46.0846 9.88388C46.1272 9.76737 46.1766 9.60828 46.2999 9.62396C46.4659 9.64413 46.3919 9.82114 46.3919 9.92646C46.3963 14.1233 46.3963 18.3223 46.3941 22.5191C46.3941 22.5864 46.3963 22.6536 46.3694 22.7163C46.3649 22.7567 46.3582 22.7947 46.3537 22.8351C46.181 23.039 45.9433 23.0121 45.7123 23.0121C45.6451 23.0009 45.5867 23.0211 45.5396 23.0703C44.3757 23.3818 43.2073 23.6865 42.0456 24.0092C38.1546 25.0825 34.2635 26.158 30.3748 27.2403C30.0406 27.3344 29.7289 27.3478 29.3925 27.2515C28.8654 27.1014 28.3429 26.9243 27.7979 26.8504C27.5871 26.8862 27.392 26.8571 27.2283 26.7025C27.0534 26.6017 26.8605 26.5658 26.6654 26.5457C26.5084 26.6286 26.3738 26.6174 26.2819 26.4448C25.9926 26.3216 25.6898 26.2409 25.3781 26.2073C25.0282 26.3306 24.7277 26.2544 24.481 25.9788C24.176 25.8376 23.8508 25.7749 23.5234 25.7188C23.3261 25.7413 23.1085 25.8197 23.03 25.5329C23.2835 25.4612 23.5279 25.4679 23.7724 25.5754C23.9159 25.6382 24.0796 25.73 24.1648 25.4925H24.1626L24.1536 25.497Z" fill="#F2F052"/>
<path d="M46.3672 22.7185C46.3604 22.3711 46.3492 22.0216 46.3492 21.6743C46.3492 17.7038 46.3492 13.7355 46.3492 9.73141C45.9523 10.3633 46.2102 11.0624 46.0285 11.6943C45.8962 11.2573 45.9949 10.8069 45.9209 10.3095C45.728 10.5694 45.562 10.7913 45.3983 11.0131C45.3692 11.0086 45.3378 11.0041 45.3086 11.0019C45.3086 10.8092 45.3086 10.6142 45.3086 10.4215C45.3086 9.73813 45.3086 9.05248 45.3019 8.36907C45.3019 8.22566 45.3355 8.07106 45.2324 7.94334C45.1584 6.76473 45.2144 5.58613 45.2055 4.40753C45.201 3.88544 45.2077 3.88544 44.6829 3.88544C43.3171 3.88544 41.9513 3.88544 40.4712 3.88544C40.9265 3.56503 41.3772 3.52917 41.7607 3.33648C42.0186 2.98917 42.373 3.03846 42.7318 3.09448C43.5392 2.99141 44.3443 2.8861 45.1516 2.78302C45.3535 2.77854 45.5531 2.76958 45.7549 2.77182C46.4838 2.77854 46.4053 2.64186 46.4075 3.39473C46.4165 5.00579 46.412 6.61685 46.412 8.2279C46.412 12.9132 46.412 17.5985 46.4075 22.2815C46.4075 22.4272 46.3851 22.5728 46.3739 22.7185H46.3672Z" fill="#FAC320"/>
<path d="M58.3049 23.9688C58.2981 23.6887 58.2667 23.4041 58.2936 23.1263C58.3228 22.8148 58.2017 22.7409 57.9079 22.7431C56.4053 22.7566 54.905 22.7498 53.4024 22.7498C51.8594 22.7498 50.3187 22.7498 48.7758 22.7521C48.1994 22.7521 48.1658 22.7073 48.3138 22.1247C48.4394 22.1224 48.5672 22.118 48.6928 22.1157C49.4845 22.1247 50.2739 22.1381 51.0655 22.1381C53.5482 22.1426 56.0285 22.1426 58.5112 22.1471C58.6278 22.1471 58.7534 22.1112 58.861 22.1941C58.7646 22.4563 58.8655 22.7229 58.8476 22.9874C58.713 23.2764 58.805 23.5834 58.7781 23.8814C58.7556 24.1323 58.6614 24.2847 58.3766 24.2085C58.3766 24.1211 58.3676 24.0338 58.3004 23.9665L58.3049 23.9688Z" fill="#DBD34B"/>
<path d="M58.2914 54.3346C58.2914 47.3548 58.2937 40.3773 58.2959 33.3976C58.2959 33.2362 58.3049 33.0749 58.3094 32.9158C58.3318 32.9158 58.3542 32.9158 58.3789 32.9136C58.5919 33.0435 58.5493 33.2631 58.5493 33.4536C58.5538 34.3857 58.565 35.3178 58.5404 36.2432C58.5785 36.0774 58.6009 35.8915 58.8498 35.9139C58.8543 42.1183 58.8543 48.3228 58.8678 54.5273C58.8678 54.9127 58.6772 54.9172 58.3923 54.9172C49.5562 54.9127 40.7224 54.9127 31.8863 54.9104C30.1236 54.9104 28.3631 54.906 26.6003 54.9037C26.6205 54.6819 26.7977 54.6774 26.948 54.6774C27.558 54.6774 28.1657 54.6147 28.7757 54.5945C28.603 54.6057 28.4281 54.59 28.2554 54.6124C28.1254 54.6304 27.9773 54.6617 27.9706 54.4533C32.6735 54.4489 37.3763 54.4466 42.0792 54.4444C47.3338 54.4421 52.5861 54.4399 57.8406 54.4354C57.9932 54.4354 58.1681 54.4959 58.2892 54.3391L58.2914 54.3346Z" fill="#E7CB69"/>
<path d="M27.9704 54.4511C28.3741 54.6124 28.8114 54.4443 29.2308 54.5497C29.1792 54.6998 29.0716 54.6751 28.9863 54.6751C28.235 54.6684 27.5039 54.9306 26.7482 54.8477C26.7011 54.8432 26.6495 54.8835 26.6024 54.9037C22.9895 54.9059 19.3765 54.9082 15.7636 54.9104C15.6223 54.9104 15.4451 54.944 15.4631 54.702C15.481 54.4757 15.2411 54.5698 15.1042 54.4062C15.3689 54.534 15.712 54.2292 15.7726 54.7244C15.7927 54.8902 16.035 54.8409 16.0484 54.6819C16.0731 54.3682 16.2794 54.4466 16.4476 54.4466C18.4615 54.4421 20.4777 54.4421 22.4916 54.4443C24.3171 54.4443 26.1449 54.4511 27.9704 54.4533V54.4511Z" fill="#DCC35A"/>
<path d="M58.8474 35.9139C58.6523 36.0237 58.7017 36.2142 58.7017 36.3822C58.7017 36.5929 58.6501 36.7654 58.3765 36.9514C58.3765 35.551 58.3765 34.2334 58.3765 32.9137C58.4527 32.4879 58.3765 32.0331 58.6568 31.6454C58.7241 31.5536 58.6972 31.3855 58.6972 31.2533C58.6994 30.2898 58.6972 29.3241 58.7017 28.3606C58.7017 28.2194 58.6568 28.067 58.8586 27.8452C58.8586 29.277 58.8968 30.6147 58.8474 31.9479C58.7981 33.2722 58.9147 34.5942 58.8474 35.9162V35.9139Z" fill="#CEBC44"/>
<path d="M58.3811 24.2104C58.63 24.123 58.704 23.946 58.7108 23.6861C58.7175 23.4531 58.5785 23.1752 58.8498 22.9893C58.8543 24.0334 58.8498 25.0776 58.8655 26.1217C58.87 26.431 58.5717 26.6035 58.5717 26.9217C58.5717 27.1009 58.6009 27.3228 58.3811 27.493V24.2104Z" fill="#CEBC44"/>
<path d="M34.6469 8.40928C34.2028 9.08148 33.8148 9.79402 33.2071 10.343C32.9223 10.4842 32.9267 10.1996 32.8303 10.1032C32.929 10.2713 33.0299 10.464 32.8841 10.6813H32.8886C32.633 10.8091 32.4446 10.6522 32.3033 10.4931C32.1934 10.3721 32.0543 10.2601 31.9938 10.0965C31.9377 9.7761 32.1642 9.54082 32.2562 9.26746C32.9581 7.17465 32.9626 5.13787 31.8211 3.1795C31.7673 3.08539 31.7269 2.9868 31.709 2.87925C31.6933 2.80083 31.7179 2.72016 31.709 2.64174C31.6731 2.24887 31.86 2.05318 32.2696 2.05468C32.4266 2.05468 32.5926 2.0838 32.7653 1.9516C32.6509 1.86422 32.4513 1.83285 32.5029 1.63567C32.5522 1.44969 32.6957 1.35558 32.855 1.27716C32.9694 1.22114 33.0905 1.23906 33.2093 1.24131C33.3416 1.27492 33.4538 1.33765 33.521 1.46089L33.5143 1.48778L33.539 1.47434C34.1961 1.88662 34.5773 2.52746 34.9564 3.17278C34.99 3.2288 35.0326 3.28033 35.0707 3.33411C35.5327 4.43653 35.5148 5.57256 35.2928 6.71979C35.2726 6.73548 35.2681 6.75565 35.2793 6.78029C35.2928 6.96403 35.295 7.14329 35.1403 7.27997C35.1178 7.30013 35.1111 7.32478 35.1178 7.35391C35.0147 7.73035 34.9294 8.11575 34.6469 8.41152V8.40928Z" fill="#FDB905"/>
<path d="M36.5869 2.23184C36.4456 2.17134 36.3043 2.11084 36.1631 2.05034C36.0195 2.0369 35.8737 2.0369 35.7796 1.90021C35.2009 1.72096 34.6425 1.46776 34.0392 1.36469C34.0258 1.36245 34.0123 1.36021 34.0011 1.35348C33.1377 0.730573 32.1868 0.291397 31.1597 0.00682974C32.9224 -0.0222992 34.6605 0.112142 36.3873 0.39671C36.5062 0.416876 36.625 0.425839 36.7461 0.439283C37.0893 0.533392 37.4414 0.584928 37.7957 0.59165C38.1074 0.443764 38.4057 0.419117 38.6771 0.681278C38.6883 0.688 38.6995 0.696962 38.713 0.699203C39.2766 0.812731 39.5256 1.169 39.4598 1.76801C39.3947 2.36852 39.3162 2.96678 39.3431 3.57177C39.5024 3.76223 39.3902 3.98182 39.4037 4.18572C39.4261 4.5151 39.3902 4.84896 39.4239 5.18058C39.4373 5.31054 39.4127 5.41586 39.314 5.50324C39.2826 5.66009 39.2579 5.81694 39.2153 5.96931C39.1862 6.07462 39.1256 6.16649 38.9911 6.16201C38.8587 6.15753 38.7937 6.07238 38.7758 5.96035C38.7511 5.80126 38.7444 5.63993 38.7399 5.48084C38.686 3.97061 37.8428 2.6979 36.5869 2.23184Z" fill="#FCC706"/>
<path d="M39.7266 15.1805C39.5673 16.1059 39.3745 17.0156 38.8811 17.8402C38.2688 18.8664 38.2913 18.8687 37.4794 18.0127C37.2507 17.773 37.2036 17.6117 37.4278 17.3159C38.4325 15.9872 38.9798 14.4545 39.3363 12.8457C39.4081 12.6777 39.4799 12.5096 39.5942 12.2407C39.7781 12.7942 39.7669 13.2759 39.814 13.7487C39.8611 14.2327 39.7131 14.701 39.7243 15.1805H39.7266Z" fill="#FAE642"/>
<path d="M33.2072 1.24114C33.0682 1.32181 32.9269 1.39799 32.7923 1.48314C32.7026 1.53691 32.5591 1.60189 32.6152 1.71393C32.6937 1.87302 32.8125 1.75874 32.9112 1.69376C32.9404 1.67584 32.9807 1.67808 33.0233 1.67135C32.8596 2.23601 32.6802 2.36149 32.0186 2.22705C31.7136 2.16431 31.6912 2.20016 31.8258 2.44663C31.8908 2.56539 31.8863 2.67294 31.8078 2.78274C31.6037 2.83875 31.4737 2.70879 31.3548 2.58556C30.4532 1.63326 29.3229 1.24114 28.0401 1.15824C27.3516 1.11342 26.6744 1.14255 25.9971 1.23218C25.8378 1.25235 25.6696 1.26579 25.5911 1.44504C25.479 1.81924 25.4857 2.20464 25.479 2.59004C25.3332 3.11884 25.2391 3.65213 25.2413 4.20558C25.2435 4.72542 25.1449 4.84193 24.638 4.98758C24.5416 5.01671 24.4765 5.07272 24.4048 5.13322C24.1895 5.31472 23.9989 5.31696 23.8374 5.04808C23.8329 5.30576 23.8598 5.55671 23.8262 5.80543C23.8105 5.92643 23.7723 6.05415 23.6378 6.08552C23.5032 6.11913 23.4113 6.02502 23.335 5.92867C23.2431 5.80991 23.1803 5.67099 23.1915 5.52086C23.2364 4.87778 22.9874 4.25487 23.0637 3.60955C23.0682 3.56698 23.0502 3.53337 23.0211 3.502C22.9964 3.28689 22.974 3.07179 22.9493 2.85668C23.0031 2.39062 22.9403 1.93352 22.8439 1.4809C22.7699 1.12239 22.512 0.891594 22.2204 0.694413C22.0612 0.566694 21.8549 0.533084 21.6799 0.434493C21.6037 0.394161 21.5342 0.353828 21.5454 0.259719C21.5566 0.16561 21.6328 0.132 21.7181 0.120797C21.7988 0.109593 21.8795 0.109593 21.9603 0.114075C24.0235 0.226109 26.0868 0.127519 28.15 0.109593C29.074 0.102871 29.9823 0.252997 30.8973 0.349347C31.7383 0.463622 32.512 0.752672 33.2072 1.24338V1.24114Z" fill="#FDEC03"/>
<path d="M18.0109 9.69792C17.9706 9.2565 18.1859 8.85318 18.1903 8.41849C18.4505 7.75076 18.6165 7.04942 18.9237 6.39738C18.9237 6.26742 18.8273 6.09489 19.0672 6.068C19.5696 5.31961 20.0159 4.53313 20.6393 3.86764C21.2247 3.24025 21.8436 2.65991 22.5591 2.19385C22.6981 2.29692 22.6129 2.44705 22.6936 2.53891C22.8484 3.58532 22.4761 4.4435 21.9064 5.31961C21.1193 6.53183 20.9129 7.95914 20.812 9.38646C20.8053 9.49178 20.7851 9.59709 20.7717 9.7024C20.6954 9.77186 20.6259 9.74049 20.5451 9.68C20.6281 9.92423 20.6236 10.164 20.5945 10.3993C20.5564 10.6928 20.4128 10.7533 20.1482 10.6144C19.6548 10.3567 19.2511 10.4575 18.9484 10.9124C18.8183 11.1073 18.6703 11.2014 18.4505 11.0446C18.4169 11.0222 18.381 10.9751 18.3518 10.9818C17.8607 11.0939 17.9907 10.7376 17.9863 10.4934C17.9795 10.2267 17.975 9.96008 18.0132 9.69568L18.0109 9.69792Z" fill="#FDDA03"/>
<path d="M13.826 5.35097C13.6062 5.42044 13.669 5.60865 13.6667 5.75654C13.66 6.8007 13.6622 7.84262 13.6555 8.88678C13.6555 8.99658 13.6981 9.15119 13.5277 9.18031C13.4066 9.20048 13.3505 9.08621 13.2765 9.00778C13.1913 8.92039 13.2339 8.6784 13.0567 8.73666C12.9087 8.78371 12.8504 8.96969 12.8526 9.14446C12.8526 9.2072 12.8437 9.2677 12.8212 9.33044C12.6508 7.15473 12.7315 4.97678 12.6912 2.80107C13.7228 2.66887 14.7544 2.73161 15.7793 2.86605C16.8491 3.00721 17.8897 3.26265 18.8697 3.72871C18.9123 3.74888 18.9527 3.77801 19.0917 3.86091C18.8495 3.87212 18.7127 3.88332 18.5737 3.88332C17.1227 3.88332 15.6717 3.89228 14.2207 3.8766C13.9157 3.87436 13.8192 3.96399 13.8372 4.26424C13.8573 4.62499 13.8327 4.98798 13.826 5.34873V5.35097Z" fill="#FAFB08"/>
<path d="M12.6869 22.0172C12.6779 21.4683 12.6644 20.9193 12.6622 20.3703C12.6577 18.533 12.6577 16.6934 12.6577 14.856C12.6577 14.6969 12.6757 14.5356 12.6846 14.3765C12.8685 14.6745 12.8349 14.3429 12.9044 14.2958C13.1018 14.3563 13.0479 14.6342 13.2744 14.7104C13.3529 14.2196 13.7992 13.8477 13.6669 13.2965C13.6445 13.1979 13.7095 13.1172 13.8172 13.0903C13.8239 14.0561 13.8374 15.0218 13.8374 15.9875C13.8374 17.5986 13.8239 19.2074 13.8172 20.8185C13.6579 21.0672 13.4314 21.298 13.3574 21.5691C13.2767 21.8626 13.3395 22.1965 13.2969 22.5147C13.0793 22.2749 13.2587 21.9635 13.1197 21.6901C12.9694 21.8021 12.8282 21.9097 12.6846 22.0172H12.6869Z" fill="#F6B810"/>
<path d="M30.8971 0.344872C29.9731 0.425537 29.0738 0.14321 28.1431 0.17682C26.5172 0.235078 24.8867 0.14321 23.263 0.228356C22.7226 0.255244 22.1821 0.0849516 21.6169 0.235078C21.7919 0.463628 22.1215 0.425537 22.2202 0.689938C21.7156 0.542053 21.2043 0.447944 20.6773 0.450184C20.5539 0.450184 20.4104 0.438981 20.3947 0.288855C20.3723 0.107359 20.5337 0.0849517 20.666 0.0603041C20.758 0.0446192 20.8544 0.0378971 20.9464 0.0423785C23.429 0.154413 25.9094 0.0737482 28.392 0.0603041C29.233 0.0558227 30.0807 0.0939144 30.8993 0.347112L30.8971 0.344872Z" fill="#E7E333"/>
<path d="M45.3802 39.7366C45.2838 39.6357 45.3219 39.508 45.3219 39.3915C45.3219 37.4712 45.3309 35.5532 45.3219 33.6329C45.3219 33.3237 45.3892 33.2117 45.7211 33.2139C48.1813 33.2251 50.6415 33.2229 53.0994 33.2139C53.3708 33.2139 53.4897 33.2811 53.4717 33.5747C53.4493 33.922 53.4493 34.2737 53.4717 34.6211C53.4942 34.9325 53.373 34.9997 53.0793 34.9975C51.4264 34.984 49.7736 35.002 48.1207 34.9818C47.7641 34.9773 47.6565 35.0804 47.6677 35.4299C47.6924 36.1402 47.6901 36.8528 47.6677 37.5631C47.6587 37.8768 47.7776 37.9418 48.0669 37.9395C49.9216 37.9283 51.7763 37.9306 53.631 37.9328C53.7745 37.9328 53.927 37.8902 54.0615 37.9821C53.9046 38.2218 53.6556 38.1569 53.4381 38.1591C51.774 38.1681 50.1077 38.1681 48.4437 38.1591C47.9682 38.1569 47.569 38.1927 47.4457 38.7798C47.3829 39.0733 47.0532 39.1898 46.7505 39.033C46.432 38.8694 46.2817 38.9837 46.1494 39.2503C46.0508 39.4497 45.9745 39.7388 45.6897 39.6604C45.4161 39.5842 45.425 39.2951 45.425 39.0487C45.425 38.0045 45.425 36.9581 45.425 36.3867C45.425 36.9581 45.4385 38.0045 45.4138 39.0487C45.4094 39.2727 45.6314 39.517 45.3824 39.7276L45.3802 39.7366Z" fill="#D0B840"/>
<path d="M45.3152 28.9094C45.461 28.8937 45.6067 28.8668 45.7547 28.8668C48.3361 28.8668 50.9174 28.8713 53.4987 28.8623C53.788 28.8623 53.918 28.925 53.8956 29.2387C53.8597 29.7339 53.927 30.2314 53.8508 30.7243C51.8907 30.7243 49.9283 30.7243 47.9683 30.7131C47.7417 30.7131 47.6543 30.7848 47.6655 31.0134C47.679 31.3069 47.6498 31.6049 47.6722 31.8984C47.6947 32.192 47.6049 32.304 47.2955 32.2906C46.7595 32.2682 46.2212 32.2704 45.6852 32.2906C45.4027 32.3018 45.3174 32.2032 45.3219 31.9253C45.3331 30.9193 45.3219 29.9132 45.3197 28.9071L45.3152 28.9094Z" fill="#D3C140"/>
<path d="M45.3804 39.7366V35.7168H45.4633C45.4633 36.2635 45.4633 36.8125 45.4633 37.3615C45.4633 37.8723 45.479 38.381 45.4589 38.8896C45.4476 39.1787 45.5508 39.3983 45.7392 39.6515C45.8939 39.3602 46.0285 39.1047 46.1675 38.8493C46.3043 38.5961 46.4703 38.5849 46.6834 38.7686C47.0512 39.0868 47.2306 39.0196 47.3292 38.5356C47.4055 38.1547 47.6275 37.9933 48.0985 37.9933C49.7648 37.9911 51.4311 37.9933 53.0951 37.9933C53.4181 37.9933 53.7388 37.9866 54.0617 37.9844C54.2053 38.5244 54.1133 39.0711 54.1155 39.6156C54.1155 39.8643 53.8801 39.7837 53.7388 39.7837C52.3842 39.7881 51.0296 39.7859 49.6751 39.7837C48.3878 39.7837 47.1005 39.7837 45.8132 39.7837C45.6697 39.7837 45.5172 39.8217 45.3826 39.7321L45.3804 39.7366Z" fill="#DCC051"/>
<path d="M52.1622 44.2852C51.7518 44.6213 51.4311 44.3188 51.0969 44.1329C51.0879 44.1284 51.1126 44.0656 51.1216 44.0298C51.4804 44.0634 51.8258 44.1553 52.1622 44.2852Z" fill="#EDCB67"/>
<path d="M49.9128 43.5364C49.6034 43.7314 49.7402 43.2407 49.5271 43.2877C49.5293 43.1578 49.6325 43.095 49.7088 43.0166C49.7245 43.0659 49.7379 43.1152 49.7536 43.1645C49.7267 43.3236 49.8343 43.4244 49.9128 43.5387V43.5364Z" fill="#EDCB67"/>
<path d="M50.386 43.8054C50.1752 43.9085 50.0025 43.9309 49.989 43.6172C50.1213 43.6799 50.2536 43.7427 50.386 43.8054Z" fill="#EDCB67"/>
<path d="M50.9466 43.9779C50.7986 44.0092 50.608 44.1975 50.5564 43.8726C50.6865 43.9084 50.8165 43.9443 50.9466 43.9779Z" fill="#EDCB67"/>
<path d="M15.0259 46.1001C15.0416 46.118 15.0595 46.1337 15.0797 46.1516C15.073 46.1628 15.0618 46.174 15.0505 46.1852C15.0416 46.1561 15.0326 46.1292 15.0259 46.1001Z" fill="#0E0E0E"/>
<path d="M18.6657 43.4002C18.641 43.4091 18.6164 43.4114 18.5962 43.4114C18.6007 43.389 18.6096 43.3688 18.6209 43.3486C18.6343 43.3666 18.65 43.3822 18.6657 43.4002Z" fill="#0E0E0E"/>
<path d="M50.9309 44.4329C51.0341 44.3432 51.1193 44.2783 51.2269 44.3589C51.2426 44.3701 51.2382 44.4441 51.218 44.462C51.1372 44.5382 51.0498 44.5225 50.9309 44.4329Z" fill="#EDCB67"/>
<path d="M50.128 44.4148C50.0697 44.4148 50.0226 44.3946 50.0181 44.3318C50.0136 44.2512 50.0652 44.2176 50.1392 44.2153C50.193 44.2153 50.2491 44.2265 50.2513 44.2938C50.2536 44.3699 50.1998 44.4035 50.128 44.4148Z" fill="#EDCB67"/>
<path d="M12.1239 30.3905C12.0364 30.4622 11.9983 30.4958 11.9579 30.5227C11.8166 30.6168 11.765 30.8744 11.5161 30.7714C11.46 30.749 11.4466 30.6728 11.487 30.6369C11.6462 30.4958 11.774 30.2717 12.1239 30.3905Z" fill="#FBE039"/>
<path d="M10.5696 30.5921C10.8275 30.4689 10.9845 30.4845 11.193 30.5383C11.0047 30.6997 10.8409 30.6638 10.5696 30.5921Z" fill="#FBE039"/>
<path d="M18.206 23.1509C18.493 23.18 18.7667 23.2652 19.038 23.357C18.7083 23.4892 18.4146 23.3772 18.1297 23.2226C18.1252 23.2226 18.1297 23.1912 18.1365 23.1867C18.1589 23.171 18.1836 23.1643 18.2082 23.1531L18.206 23.1509Z" fill="#F9E33F"/>
<path d="M24.8823 25.2614C25.0483 25.1494 25.2075 25.1718 25.3645 25.2524C25.2008 25.3533 25.0393 25.3421 24.8823 25.2614Z" fill="#F9E33F"/>
<path d="M24.1536 25.4968C24.2186 25.3131 24.3397 25.3086 24.4967 25.3938C24.4182 25.5618 24.2679 25.4722 24.1558 25.4991L24.1536 25.4968Z" fill="#F9E33F"/>
<path d="M18.0109 9.69768C18.0961 10.092 17.9525 10.4998 18.0602 10.9032C18.2441 10.8359 18.1252 10.6343 18.2553 10.5671C18.2867 10.5805 18.3159 10.5828 18.3338 10.5984C18.4684 10.7194 18.4482 11.0264 18.6657 10.9995C18.8698 10.9749 18.8317 10.6948 18.9169 10.5357C18.955 10.4618 18.9976 10.3676 19.0784 10.3721C19.5134 10.399 20.0136 10.036 20.3791 10.6477C20.4868 10.3497 20.4352 10.101 20.4441 9.85901C20.4531 9.61701 20.4441 9.37502 20.4441 9.05908C20.7133 9.27867 20.4688 9.61029 20.7738 9.69992C20.7873 10.7329 20.7828 11.7658 21.0295 12.7786C21.3278 14.0043 21.801 15.1493 22.5545 16.1666C22.6666 16.3167 22.7003 16.4713 22.6958 16.6528C22.6823 17.5513 22.6599 18.4498 22.5612 19.3461C22.5141 19.7651 22.4984 19.7808 22.1598 19.5366C20.7648 18.5238 19.6749 17.2555 18.9371 15.6915C18.0871 13.8855 17.8157 11.9809 17.9481 10.0047C17.9548 9.90158 17.9929 9.79851 18.0153 9.69544L18.0109 9.69768Z" fill="#FDB509"/>
<path d="M25.3579 2.60813C25.405 2.18016 25.2816 1.74323 25.4386 1.32422C25.6719 1.63792 25.6203 2.00763 25.6203 2.35718C25.6292 4.93173 25.6248 7.50404 25.6248 10.0786C25.6248 10.9906 25.6808 11.0511 26.5869 11.2281C27.475 11.4006 28.3743 11.3894 29.2713 11.3916C29.5629 11.4096 29.8611 11.6247 30.1482 11.3715C30.2155 11.3267 30.2895 11.302 30.3702 11.302C30.5855 11.3513 30.8098 11.358 31.0229 11.4253C30.7537 11.181 31.2045 11.1362 31.1552 10.9525C31.2112 10.8203 31.3099 10.7306 31.4422 10.6791C31.6844 10.6836 31.7674 10.4954 31.8683 10.3273C31.902 10.3049 31.9379 10.2937 31.9782 10.2892C32.198 10.5088 32.6465 10.5447 32.568 11.0085C32.2294 11.0712 32.0141 11.2774 31.7898 11.5395C31.5005 11.8734 31.0542 11.9451 30.6147 11.9115C30.4958 11.9025 30.3792 11.8734 30.2581 11.898C30.1527 11.9204 30.0518 11.9541 29.9553 12.0034C30.0495 11.9563 30.146 11.9227 30.2514 11.9003C30.433 11.8622 30.6012 11.8644 30.7178 12.0347C30.8008 12.1557 30.812 12.2857 30.7313 12.4112C30.6169 12.5882 30.4555 12.5814 30.2693 12.5389C30.0383 12.4851 29.7961 12.5904 29.5629 12.503C28.2778 12.4179 26.9905 12.4605 25.7055 12.4336C25.4139 12.4268 25.4319 12.6151 25.4341 12.8078C25.4386 14.2261 25.4409 15.6445 25.4431 17.0651C25.4431 17.1861 25.4364 17.3048 25.4319 17.4258C25.1493 17.3676 25.2076 17.1368 25.1987 16.9508C25.1583 16.0926 25.2816 15.2367 25.2457 14.4681C25.2413 14.8513 25.2502 15.3241 25.2099 15.7968C25.1628 16.3413 25.1314 16.3973 24.5909 16.478C24.4339 16.5004 24.4384 16.6483 24.3666 16.7357C24.1356 17.0247 23.954 17.0539 23.7454 16.8186C23.7118 17.0158 23.6512 17.2062 23.5167 17.3608C23.4337 17.4572 23.326 17.5267 23.1982 17.4572C23.0883 17.3989 23.0704 17.2869 23.104 17.1749C23.1713 16.9396 23.1332 16.6954 23.1623 16.3839C23.1623 16.4018 23.0771 16.4601 23.1287 16.4489C23.1354 16.4489 23.1421 16.4556 23.1399 16.4713C23.1197 16.6617 23.2206 16.8656 23.0748 17.0427C23.0704 17.0471 23.0524 17.0427 23.0457 17.0382C23.0345 17.0315 23.0278 17.018 23.021 17.0068C23.0188 15.696 23.0143 14.383 23.0121 13.0722C23.0098 11.0488 23.0076 9.02547 23.0076 7.00213C23.0076 6.85648 23.0255 6.7086 23.0345 6.56295C23.326 6.60777 23.27 6.84528 23.2767 7.02902C23.3014 7.68554 23.2587 8.34206 23.3529 8.99859C23.3843 9.21369 23.4337 9.41759 23.492 9.62374C23.5368 9.78507 23.5144 9.94416 23.4449 10.0965C23.5301 9.93968 23.4763 9.63942 23.6422 9.62598C23.9315 9.59909 23.9674 9.33245 24.1603 9.23386C24.2321 9.19801 24.3083 9.17112 24.3823 9.13751C24.5573 9.05908 24.8219 9.24954 24.9071 9.06132C25.0461 8.75211 25.2076 8.44065 25.2009 8.07094C25.1852 7.09176 25.1762 6.11033 25.2009 5.13115C25.2233 4.28865 25.2323 3.44615 25.3601 2.61038L25.3579 2.60813Z" fill="#FCB40B"/>
<path d="M23.0187 17.0113C23.2048 16.794 23.0366 16.5161 23.1869 16.2831C23.1869 16.5789 23.1869 16.8769 23.1869 17.1727C23.1869 17.2489 23.1734 17.3519 23.2721 17.3743C23.3708 17.3945 23.3955 17.2981 23.4291 17.2264C23.5749 16.9083 23.7162 16.5878 23.6803 16.18C23.8776 16.3145 23.8081 16.4467 23.8305 16.5542C23.8552 16.664 23.7633 16.8298 23.9158 16.8702C24.057 16.906 24.1468 16.7604 24.2342 16.6618C24.3307 16.5542 24.297 16.4041 24.3441 16.2809C24.371 16.2047 24.4024 16.124 24.4921 16.1061C24.5908 16.0859 24.6289 16.1644 24.6738 16.2316C24.7209 16.3033 24.7141 16.4422 24.8465 16.4108C24.9519 16.3839 24.9519 16.2674 24.9721 16.1778C25.0819 15.6804 25.147 15.1762 25.1223 14.6653C25.1089 14.4054 25.1537 14.1612 25.3645 13.8564C25.3645 14.7729 25.3555 15.6042 25.369 16.4355C25.3735 16.7649 25.3017 17.1032 25.4318 17.4281C25.4879 18.1899 25.5215 18.9563 25.6045 19.7159C25.7144 20.7197 26.0777 21.0513 27.0734 21.1342C27.4076 21.1611 27.744 21.1835 28.0781 21.2082C28.1858 21.2171 28.3136 21.2261 28.3293 21.3583C28.3495 21.5129 28.2239 21.5622 28.0983 21.5801C27.9795 21.598 27.8584 21.616 27.7395 21.6137C25.6292 21.5689 23.5166 21.4972 21.4062 21.616C21.3658 21.6182 21.3232 21.6227 21.2851 21.6137C21.1259 21.5779 20.8725 21.6294 20.868 21.4009C20.8635 21.1499 21.1169 21.2283 21.2761 21.2014C21.4623 21.1701 21.6484 21.1454 21.8346 21.123C22.2741 21.0715 22.5298 20.8138 22.6666 20.406C22.8841 19.7607 22.8953 19.0862 22.9424 18.4185C22.9761 17.9502 22.994 17.4819 23.0187 17.0136V17.0113Z" fill="#FBD42C"/>
<path d="M36.0216 16.8678C36.8693 17.7461 37.6363 18.7007 38.5536 19.5118C39.4439 20.2983 40.4419 20.8809 41.6282 21.096C41.6776 21.1049 41.7247 21.1318 41.8166 21.1677C41.5228 21.3716 41.2178 21.3761 40.9263 21.4119C40.0315 21.5239 39.1389 21.5777 38.2396 21.4142C37.3627 21.2551 36.6159 20.8742 35.9678 20.2781C35.3241 19.6866 34.7478 19.0345 34.2342 18.3287C34.1243 17.7775 34.214 17.6364 34.7612 17.5176C34.9092 17.4862 35.0326 17.4705 35.0617 17.2666C35.12 16.8342 35.3421 16.6975 35.7525 16.8185C35.8444 16.8454 35.9341 16.8476 36.0238 16.8678H36.0216Z" fill="#FBED46"/>
<path d="M25.8938 19.104C26.5173 19.3953 27.116 19.6664 27.753 19.83C30.0696 20.4283 32.3684 20.5246 34.6357 19.6014C34.6985 19.5768 34.7703 19.5275 34.8218 19.579C35.1089 19.8614 35.4094 20.1325 35.6628 20.4439C35.7907 20.6008 35.5642 20.6232 35.4767 20.6613C34.315 21.1811 33.0995 21.5127 31.8301 21.6181C30.877 21.6965 29.9239 21.7099 28.9685 21.6337C28.7891 21.6203 28.6366 21.6427 28.6455 21.3649C28.6568 21.031 28.4078 20.919 28.1051 20.8988C27.7036 20.8697 27.2999 20.8473 26.9008 20.7957C26.2706 20.7151 26.0396 20.482 25.9409 19.8479C25.905 19.6261 25.831 19.4043 25.8938 19.104Z" fill="#FAE843"/>
<path d="M25.3579 2.6084C25.3579 4.48834 25.3579 6.36828 25.3668 8.25046C25.3668 8.63586 25.0618 8.92715 25.0932 9.32823C25.1067 9.49404 24.9183 9.42458 24.8062 9.37752C24.3419 9.18034 24.0863 9.33495 24.0706 9.8167C24.0661 9.95338 24.0347 10.0811 23.8979 10.1931C23.7678 10.0273 23.8844 9.82566 23.7925 9.63072C23.5548 9.97355 23.5166 10.3567 23.4628 10.7623C23.3103 10.6682 23.3596 10.5539 23.3507 10.4598C23.2273 9.21395 23.0232 7.97261 23.095 6.71334C23.0972 6.66629 23.0546 6.61699 23.0322 6.56994C22.9986 5.54818 22.9784 4.52419 23.0232 3.50243C23.0389 3.52484 23.0703 3.54725 23.0681 3.56741C23.0008 4.23066 23.4269 4.81996 23.3552 5.48545C23.3327 5.69607 23.4381 5.86188 23.6377 6.01649C23.7297 5.48096 23.6063 4.96112 23.7162 4.45249C23.8665 4.4973 23.8373 4.61382 23.8687 4.69224C24.0526 5.15382 24.0504 5.15606 24.4047 4.82892C24.4653 4.77291 24.5326 4.71017 24.6155 4.75722C24.9564 4.94544 25.0215 4.69896 25.0551 4.46369C25.1201 4.01331 25.1515 3.56069 25.2121 3.11031C25.2345 2.94002 25.3063 2.77869 25.3556 2.61288L25.3579 2.6084Z" fill="#FBCB09"/>
<path d="M36.0217 16.8678C35.8849 16.9888 36.08 17.0829 36.0464 17.2129C35.9028 17.2174 35.8468 17.1053 35.7862 17.0135C35.6292 16.7715 35.4386 16.944 35.2861 16.9888C35.082 17.0493 35.2054 17.177 35.2659 17.3025C35.3938 17.5624 35.1291 17.6431 35.0058 17.6364C34.4944 17.6095 34.2904 17.8761 34.2343 18.3287C33.9629 18.1047 33.8059 17.791 33.5862 17.5266C33.5772 17.363 33.4718 17.2756 33.3372 17.2106C32.5994 16.3525 31.8638 15.492 31.2471 14.5397C31.3525 14.2395 31.5947 14.2283 31.8167 14.3381C32.0342 14.4434 32.0365 14.6473 31.8974 14.8602C32.3146 14.6137 32.8214 14.533 33.1488 14.1252C33.2475 14.002 33.3978 13.9213 33.575 13.9728C34.111 14.7123 34.8107 15.3128 35.3287 16.0679C35.3467 16.3659 35.6292 16.46 35.7817 16.6549C35.8871 16.6975 35.9948 16.7379 36.0195 16.8701L36.0217 16.8678Z" fill="#FBD930"/>
<path d="M33.5772 13.9707C33.2184 14.1567 33.1152 14.7326 32.5658 14.6362C32.5456 14.6317 32.4963 14.6609 32.4985 14.6698C32.6084 15.239 32.1105 14.8289 31.9423 14.9992C31.8145 15.1292 31.7203 14.8491 31.5925 14.7998C31.6261 14.5936 31.9423 14.8805 31.8706 14.5914C31.819 14.3853 31.6934 14.3539 31.5095 14.4704C31.4377 14.5175 31.3346 14.5175 31.2449 14.5399C30.7941 14.0805 30.4599 13.5271 30.0406 13.0408C29.8836 12.8594 29.7221 12.6823 29.5606 12.5031C29.8499 12.4717 30.1123 12.1177 30.4353 12.4403C30.5003 12.5053 30.5833 12.4269 30.6304 12.3574C30.6909 12.2678 30.6797 12.1804 30.6147 12.0998C30.5317 11.9944 30.4241 11.9384 30.2985 12.0012C30.0069 12.1446 29.7109 12.1468 29.3879 12.0236C29.666 11.9474 29.9396 11.8331 30.22 11.8062C30.5519 11.7749 30.8748 11.7614 31.2023 11.6583C31.7203 11.497 31.9177 11.3066 31.9222 10.7441C32.0971 10.9951 32.3326 10.9973 32.5636 11.0018C32.4559 11.208 32.272 11.3491 32.0948 11.4813C31.8033 11.6987 31.8459 11.8645 32.0657 12.1177C32.586 12.7204 33.0726 13.3501 33.575 13.9685L33.5772 13.9707Z" fill="#FCC61E"/>
<path d="M32.5656 11.0062C32.4423 10.679 32.0633 10.6096 31.8928 10.3317C31.8278 10.1704 31.8928 10.0942 32.0565 10.083C32.3817 10.2152 32.5253 10.5984 32.8886 10.679C32.8235 10.8292 32.7226 10.9434 32.5656 11.0039V11.0062Z" fill="#FCC61E"/>
<path d="M32.8842 10.6838C32.9067 10.4709 32.7631 10.3118 32.6891 10.1326C32.5792 9.86367 32.568 9.86815 32.8057 9.5791C32.9268 9.85023 32.9134 10.1863 33.2072 10.3454C33.1332 10.4888 33.0367 10.6121 32.8842 10.6838Z" fill="#FCC61E"/>
<path d="M35.7841 16.653C35.4409 16.6059 35.2929 16.4087 35.331 16.0659C35.4634 16.2765 35.7527 16.3639 35.7841 16.653Z" fill="#FBED46"/>
<path d="M33.3372 17.2085C33.5951 17.1772 33.7094 17.2578 33.5861 17.5245C33.4784 17.4371 33.3843 17.3407 33.3372 17.2085Z" fill="#FBED46"/>
<path d="M33.5368 1.47214C33.5346 1.57521 33.7274 1.65812 33.5772 1.77239C33.5278 1.81049 33.4448 1.7948 33.4067 1.73206C33.3237 1.59538 33.4022 1.51695 33.5211 1.46094L33.5368 1.47214Z" fill="#FDEC03"/>
<path d="M13.0881 20.3477C13.1891 20.6614 13.2182 20.975 13.0881 21.403C12.976 20.9728 13.0298 20.6591 13.0881 20.3477Z" fill="#F9CF26"/>
<path d="M13.115 15.4203C12.985 15.2635 13.0231 15.1021 13.05 14.8579C13.2384 15.0887 13.1599 15.259 13.115 15.4203Z" fill="#F4CE0E"/>
<path d="M30.3723 11.4165C30.6706 11.2753 30.9711 11.1341 31.2694 10.9907C31.0025 11.5061 30.9083 11.5509 30.3723 11.4165Z" fill="#FCC61E"/>
<path d="M31.4937 10.751C31.6035 10.5897 31.7246 10.4373 31.8951 10.332C31.8727 10.5785 31.8906 10.8608 31.4937 10.751Z" fill="#FCC61E"/>
<path d="M29.4304 11.5958C29.6794 11.5039 29.9574 11.5958 30.1997 11.4658C30.2826 11.6025 30.1862 11.6294 30.0875 11.6294C29.8677 11.6294 29.6457 11.6675 29.4304 11.5958Z" fill="#FCC61E"/>
<path d="M32.7295 15.3532C32.7295 15.2703 32.7654 15.2076 32.8618 15.2053C32.9538 15.2009 33.0076 15.2524 33.0098 15.3465C33.0098 15.4227 32.9672 15.4742 32.8977 15.4832C32.8102 15.4966 32.7452 15.4585 32.7295 15.3532Z" fill="#FCC61E"/>
<path d="M33.3283 14.8108C33.3283 14.9117 33.2587 14.9498 33.1802 14.9744C33.1219 14.9923 33.0591 14.9655 33.0816 14.9005C33.0995 14.8445 33.1578 14.7929 33.2094 14.7548C33.261 14.719 33.3103 14.7459 33.3283 14.8086V14.8108Z" fill="#FCC61E"/>
<path d="M27.6632 1.31094C27.0756 1.48796 26.488 1.66721 25.9004 1.84199C25.7771 1.87784 25.7277 1.81734 25.721 1.69858C25.7143 1.54173 25.721 1.41402 25.9296 1.3804C26.5015 1.28854 27.0801 1.28406 27.6632 1.3087V1.31094Z" fill="#CEC733"/>
</g>
<defs>
<clipPath id="clip0_112_4766">
<rect width="59" height="55" fill="white"/>
</clipPath>
</defs>
</svg>
