<svg width="90" height="23" viewBox="0 0 90 23" fill="none" xmlns="http://www.w3.org/2000/svg">
<g clip-path="url(#clip0_112_3736)">
<path d="M0.0085393 9.16794C0.0085393 6.25325 0.014913 3.33934 -0.000224475 0.424656C-0.00181789 0.0800664 0.0929903 -0.00201563 0.441151 -0.000466911C3.93152 0.0126972 7.4211 0.0119228 10.9115 0.00340488C11.2142 0.00340488 11.3353 0.0800664 11.4134 0.382841C11.7098 1.53121 12.038 2.67262 12.3806 3.8086C12.481 4.14003 12.3894 4.19423 12.0659 4.19269C9.82317 4.18107 7.58044 4.19269 5.33771 4.17952C5.01664 4.17797 4.90112 4.25076 4.91546 4.58064C4.94334 5.21174 4.94414 5.84517 4.91546 6.47549C4.90032 6.81157 5.02142 6.87429 5.3417 6.87197C7.34541 6.85725 9.34913 6.87042 11.3536 6.85648C11.6835 6.85416 11.7879 6.89055 11.6811 7.24598C11.3473 8.35796 11.0469 9.48001 10.7458 10.6013C10.6733 10.8723 10.5577 10.9885 10.2391 10.9846C8.59385 10.9652 6.94786 10.9807 5.30266 10.9683C5.02222 10.966 4.90908 11.0163 4.91705 11.323C4.94016 12.1732 4.93378 13.025 4.91705 13.876C4.91227 14.144 4.99035 14.2222 5.27158 14.2206C7.69995 14.2098 10.1291 14.2206 12.5575 14.2067C12.9112 14.2044 12.9686 14.2663 12.865 14.6086C12.5208 15.7446 12.2117 16.8906 11.9113 18.0374C11.8484 18.2767 11.744 18.3325 11.5066 18.3317C7.79077 18.3247 4.07493 18.3224 0.35909 18.3348C0.0316438 18.3356 0.00455577 18.214 0.00535247 17.9507C0.0141162 15.0236 0.0109294 12.0958 0.0101327 9.16871L0.0085393 9.16794Z" fill="#006839"/>
<path d="M50.9192 9.19945H50.9216C50.9216 6.25843 50.9168 3.31819 50.928 0.377952C50.9295 0.0929878 50.8578 6.47769e-05 50.5567 0.00316221C49.3353 0.017875 48.114 0.0163263 46.8934 0.00161349C46.6018 -0.0022583 46.5118 0.0682083 46.5158 0.365562C46.5341 1.69359 46.5277 3.02161 46.5222 4.35041C46.5198 4.87852 46.6218 4.82897 46.0051 4.83516C45.0761 4.84445 44.1464 4.82664 43.219 4.86613C40.5325 4.98229 38.7742 6.43731 38.4101 8.8928C37.995 11.689 38.9184 14.0973 40.9054 16.0928C42.4183 17.6136 44.3264 18.3485 46.5253 18.3291C47.8519 18.3167 49.18 18.3175 50.5065 18.3353C50.8244 18.3392 50.9303 18.2796 50.9288 17.9427C50.9128 15.028 50.9192 12.1134 50.9192 9.19945ZM46.1421 14.6323C44.5121 14.2823 43.5767 13.2253 43.0445 11.7672C42.8717 11.2933 42.8015 10.7915 42.8047 10.2851C42.8127 9.14447 43.2485 8.63571 44.4045 8.52421C45.0355 8.46303 45.6761 8.50407 46.3126 8.48781C46.5827 8.48162 46.5214 8.66282 46.5222 8.80375C46.5254 9.73143 46.5238 10.6591 46.5238 11.5868C46.5238 12.5145 46.5094 13.4174 46.5309 14.3319C46.5381 14.6502 46.4345 14.6951 46.1421 14.6323Z" fill="#006839"/>
<path d="M89.9275 8.98969C89.7203 7.37747 88.934 6.12611 87.378 5.40983C86.6371 5.06911 85.8475 4.87784 85.0349 4.86855C82.6336 4.8399 80.2323 4.85151 77.8319 4.83061C77.4933 4.82751 77.5243 5.00484 77.5243 5.21856C77.5267 8.10614 77.5259 10.9937 77.5251 13.8821C77.5251 16.7952 77.5283 19.7091 77.5195 22.623C77.5187 22.891 77.5578 23.0048 77.8781 23.0002C79.1122 22.9792 80.3463 22.98 81.5796 22.9986C81.8879 23.0033 81.9524 22.9103 81.9492 22.63C81.9341 21.4313 81.9516 20.2326 81.9349 19.0331C81.9317 18.742 82.0026 18.6196 82.3205 18.5437C84.5425 18.0172 86.5255 17.091 88.017 15.3232C89.5817 13.4686 90.2318 11.3623 89.9275 8.98969ZM82.7276 14.4838C82.2034 14.6681 81.9413 14.4931 81.9413 13.9587V11.5621C81.9413 10.66 81.9516 9.75785 81.9349 8.85572C81.9301 8.58237 81.9795 8.4608 82.299 8.48248C82.9451 8.52662 83.5984 8.42905 84.2398 8.58392C85.1106 8.79377 85.434 9.16701 85.4922 10.0389C85.6228 12.0097 84.4644 13.8728 82.7276 14.4838Z" fill="#006839"/>
<path d="M37.2866 8.64258C37.0324 6.3257 35.2637 5.03871 33.6767 4.71038C32.7191 4.51292 31.7527 4.52144 30.7074 4.52764C29.6828 4.51834 28.5722 4.46646 27.5062 4.79247C25.8275 5.30664 24.7074 6.35357 24.3082 8.06491C24.0214 9.29536 24.0764 10.5258 24.3138 11.7501C24.7185 13.8401 25.516 15.7512 27.1174 17.2682C28.7865 18.8486 31.1703 19.1855 33.209 18.0959C34.416 17.4517 35.2677 16.4582 35.9043 15.2788C37.0292 13.1958 37.5447 10.9997 37.2866 8.64258ZM32.8728 10.2308C32.821 11.572 32.5717 12.8683 31.7869 14.0089C31.0404 15.0945 30.3903 15.0852 29.6637 13.981C28.8973 12.8164 28.6535 11.5108 28.6104 10.3508C28.5945 8.84004 29.2271 8.20739 30.5775 8.18338C30.6707 8.18183 30.7631 8.18183 30.8564 8.18338C32.2729 8.20661 32.9254 8.85785 32.8728 10.2308Z" fill="#006839"/>
<path d="M20.1026 4.8353C20.6738 4.8353 21.2443 4.84227 21.8147 4.8322C22.0075 4.82833 22.0952 4.89105 22.1486 5.07302C22.4561 6.12538 22.7716 7.17618 23.0958 8.22389C23.1771 8.48562 23.0433 8.49492 22.8425 8.49337C21.9534 8.48795 21.0634 8.48872 20.1743 8.49027C19.909 8.49027 19.6469 8.50188 19.3848 8.56383C18.4064 8.79459 18.122 9.10821 18.0399 10.0669C17.887 11.8626 19.1314 13.8597 20.7846 14.4877C21.4761 14.7502 22.1964 14.6658 22.9086 14.6782C23.4026 14.6867 23.4018 14.6797 23.2663 15.1273C22.9755 16.0906 22.6784 17.0524 22.3995 18.0195C22.3374 18.2356 22.2641 18.3269 22.0059 18.3339C19.6278 18.399 17.5619 17.6362 15.9765 15.9357C13.8612 13.6684 12.9673 11.0093 13.8795 7.97532C14.4301 6.14629 15.8315 5.23177 17.7181 4.94061C18.51 4.81826 19.3059 4.84072 20.101 4.83452L20.1026 4.8353Z" fill="#006839"/>
<path d="M57.6425 5.57689C58.4599 4.89313 59.3626 4.60972 60.3513 4.53305C60.6334 4.5106 60.7114 4.58494 60.7074 4.86061C60.6923 5.93077 60.6915 7.00171 60.7098 8.07187C60.7146 8.34987 60.615 8.40794 60.3521 8.42808C59.4654 8.49777 58.6758 8.7897 58.0759 9.46727C57.8855 9.68177 57.8066 9.9133 57.8074 10.2045C57.8178 12.7707 57.8074 15.3377 57.821 17.9039C57.8226 18.2353 57.7485 18.3437 57.386 18.3368C56.1917 18.312 54.9966 18.3197 53.8024 18.3321C53.514 18.3352 53.3961 18.2926 53.3969 17.962C53.4096 13.7061 53.4072 9.44946 53.3953 5.19358C53.3945 4.89391 53.4845 4.82654 53.7753 4.82963C54.9034 4.84435 56.0324 4.85364 57.1597 4.82421C57.5533 4.81415 57.6871 4.92875 57.6258 5.2927C57.6154 5.3531 57.6322 5.41815 57.6433 5.57612L57.6425 5.57689Z" fill="#006839"/>
<path d="M70.9365 12.8746C71.0791 13.2471 71.2066 13.5174 71.2822 13.8008C71.3388 14.013 71.4225 14.0346 71.6169 13.9673C72.4359 13.6808 73.2597 13.4059 74.0723 13.1294C74.0779 12.973 73.9719 12.9242 73.8946 12.8615C72.7824 11.9516 71.675 11.0355 70.5493 10.1404C70.2808 9.92666 70.2521 9.80199 70.515 9.55575C71.1922 8.92232 71.8248 8.24553 72.412 7.53157C72.6024 7.30004 72.733 7.30468 72.9442 7.50292C73.9632 8.46158 75.1064 9.27852 76.1908 10.1621C76.7708 10.6344 76.8098 11.257 76.6783 11.8935C76.4138 13.1805 76.1015 14.4582 75.8147 15.7405C75.7733 15.9272 75.6649 16.0139 75.4841 16.0758C74.5734 16.3895 73.67 16.7224 72.7585 17.036C72.4908 17.1282 72.3618 17.2273 72.5084 17.527C72.635 17.7864 72.6996 18.0745 72.7267 18.3904C71.8224 17.7028 70.9197 17.0144 70.0131 16.3298C69.8984 16.2431 69.8968 16.1479 69.927 16.024C70.1836 14.9848 70.5835 13.9905 70.9349 12.8754L70.9365 12.8746Z" fill="#00A759"/>
<path d="M67.3344 9.21649C67.575 8.94469 67.8092 8.66747 68.0594 8.40418C68.1669 8.29113 68.1574 8.24467 68.0387 8.13471C67.4507 7.59188 66.7504 7.19231 66.1266 6.69672C65.9377 6.5465 65.9123 6.70137 65.8852 6.83533C65.6159 8.20053 65.3402 9.56417 65.0813 10.9309C64.9785 11.4706 64.9952 11.4699 64.4423 11.3963C63.5492 11.2771 62.6569 11.1539 61.7622 11.0517C61.5041 11.0223 61.4316 10.9541 61.485 10.6885C61.7375 9.43795 61.9917 8.18659 62.1916 6.92671C62.3231 6.09737 62.778 5.57158 63.5556 5.27655C64.467 4.93041 65.384 4.59589 66.2963 4.2513C66.7026 4.09798 67.1081 3.94156 67.5041 3.765C67.72 3.66898 67.8745 3.70847 68.0363 3.86025C68.7079 4.48748 69.5269 4.92731 70.2519 5.48718C70.4336 5.62733 70.5491 5.6343 70.7044 5.44149C70.906 5.19137 71.1506 4.97378 71.4653 4.65242C71.3888 5.17046 71.3315 5.577 71.2677 5.98277C71.1665 6.63168 71.0582 7.27982 70.9602 7.9295C70.9331 8.10683 70.8901 8.23537 70.6805 8.29655C69.5787 8.61713 68.4816 8.95166 67.383 9.28153C67.367 9.26062 67.3503 9.23972 67.3344 9.21881V9.21649Z" fill="#00A759"/>
<path d="M59.6135 13.5188C60.4572 13.1905 61.3296 12.9171 62.1359 12.5168C62.888 12.1435 63.4019 12.2922 63.9484 12.8676C64.4758 13.4228 65.0989 13.8913 65.6789 14.3992C65.6932 14.4116 65.6892 14.4442 65.6988 14.4937C65.3299 14.4519 64.9674 14.4147 64.6073 14.369C64.4153 14.345 64.3237 14.3954 64.291 14.6021C64.1803 15.3153 64.0584 16.0269 63.9181 16.7347C63.856 17.0491 63.942 17.0476 64.2105 16.9523C65.6398 16.4451 67.0866 15.9805 68.4737 15.3687C68.8243 15.2139 68.9382 15.3169 69.0497 15.6429C69.3246 16.4482 69.6242 17.2466 69.9524 18.0325C70.0711 18.3183 69.9962 18.4058 69.7309 18.4956C68.943 18.762 68.1558 19.0307 67.383 19.3342C66.8444 19.5456 66.3051 19.757 65.7657 19.9669C64.9817 20.272 64.2727 20.1628 63.652 19.637C62.7127 18.8425 61.681 18.1657 60.7249 17.3929C60.4636 17.1815 60.3521 17.0026 60.4262 16.6503C60.6038 15.8063 60.7122 14.9483 60.8556 14.0972C60.893 13.8758 60.8492 13.772 60.5839 13.7573C60.2628 13.7395 59.9458 13.659 59.6263 13.6055C59.6223 13.5761 59.6175 13.5475 59.6135 13.518V13.5188Z" fill="#00A759"/>
</g>
<defs>
<clipPath id="clip0_112_3736">
<rect width="90" height="23" fill="white"/>
</clipPath>
</defs>
</svg>
