<svg width="62" height="50" viewBox="0 0 62 50" fill="none" xmlns="http://www.w3.org/2000/svg">
<g clip-path="url(#clip0_112_4277)">
<path d="M27.3895 28.9113C28.7798 28.9795 30.0552 28.7799 31.3375 28.7057C31.94 28.6706 32.1937 28.2403 32.3661 27.4359C32.4315 27.131 32.4038 26.804 32.4038 26.4861C32.4058 21.1893 32.4097 15.8915 32.3958 10.5947C32.3949 10.1735 32.4969 9.95684 32.8953 9.76427C35.0249 8.72818 37.1347 7.65197 39.2484 6.58379C39.6497 6.38118 39.626 6.62993 39.625 6.90575C39.621 10.1143 39.6299 13.3229 39.6121 16.5304C39.6091 16.9657 39.6943 17.1423 40.164 17.1463C41.3374 17.1563 42.4879 17.1392 43.6245 16.7421C44.9356 16.2837 45.6887 15.3469 46.1832 14.1022C46.8511 12.4202 47.0008 10.666 46.8125 8.89668C46.6539 7.41627 46.2318 6.00105 45.1298 4.90178C44.6898 4.46347 44.1715 4.16358 43.5938 3.95997C42.7287 3.65506 41.8348 3.57382 40.9231 3.57582C36.3003 3.58485 31.6774 3.58485 27.0545 3.57883C24.3472 3.57482 21.6399 3.54774 18.9335 3.54874C18.5649 3.54874 18.4519 3.46148 18.4826 3.07032C18.5421 2.29902 18.6699 1.56884 19.0633 0.881796C19.2863 0.49063 19.5489 0.358236 19.974 0.359239C23.2105 0.370272 26.4471 0.404373 29.6816 0.353221C32.9964 0.300062 36.3112 0.176695 39.625 0.0493152C41.7734 -0.0339329 43.9178 -0.0459687 46.0474 0.280003C47.8609 0.557831 49.6159 1.0493 51.141 2.13854C52.2311 2.91686 53.0407 3.95094 53.5768 5.18161C54.659 7.663 54.8046 10.2628 54.2507 12.8715C53.7929 15.029 52.6572 16.8253 50.8735 18.1613C48.2841 20.1001 45.3111 20.743 42.1688 20.8112C41.4592 20.8262 40.7487 20.8302 40.0392 20.8112C39.73 20.8032 39.6061 20.8714 39.6121 21.2194C39.6378 22.756 39.5883 24.2956 39.6616 25.8301C39.7062 26.7689 39.8489 27.7328 40.6704 28.3848C41.1937 28.801 41.817 28.9524 42.4591 29.0237C43.0002 29.0838 43.5452 29.1119 44.0893 29.13C44.3251 29.138 44.4024 29.2162 44.3995 29.4559C44.3895 30.3536 44.0734 31.139 43.5968 31.8772C43.4412 32.1189 43.2182 32.0417 43.018 32.0417C39.8975 32.0467 36.7769 32.0457 33.6564 32.0457C28.868 32.0457 24.0806 32.0406 19.2923 32.0487C17.6304 32.0517 16.0062 31.827 14.4474 31.2413C14.0243 31.0828 13.6844 31.15 13.3276 31.3586C13.1582 31.4579 12.9867 31.5542 12.8143 31.6495C12.0235 32.0878 12.0205 32.0898 11.4844 31.3757C9.91174 29.2804 8.88212 26.9816 8.65717 24.3136C8.5333 22.8402 8.48276 21.3889 8.68988 19.9245C8.73447 19.6126 8.83753 19.4963 9.15266 19.4983C11.1336 19.5083 13.1155 19.5093 15.0965 19.4953C15.4562 19.4923 15.4622 19.6397 15.3977 19.9225C15.1302 21.084 15.0469 22.2615 15.1599 23.45C15.2739 24.6546 15.5414 25.8151 16.253 26.8141C17.0566 27.9414 18.5163 28.3125 19.8928 28.0157C21.6597 27.6335 22.4108 26.2133 22.4663 24.5222C22.5189 22.9365 22.4852 21.3478 22.4862 19.7601C22.4862 15.4653 22.4852 11.1715 22.4842 6.87666C22.4842 6.30997 22.4921 6.29292 22.9886 6.54367C24.8912 7.50453 26.7592 8.54062 28.6995 9.41422C29.5082 9.77831 29.6489 10.2327 29.639 11.03C29.5964 14.4552 29.6211 17.8805 29.6211 21.3057C29.6211 23.084 29.4437 24.8322 28.8036 26.5092C28.4776 27.3637 28.0009 28.127 27.3905 28.9093L27.3895 28.9113Z" fill="#0A1A32"/>
<path d="M30.7726 49.8714C29.8163 49.8714 28.977 49.8755 28.1386 49.8694C27.875 49.8674 27.765 49.6317 27.6263 49.4612C26.6858 48.3098 25.7474 47.1564 24.8228 45.9919C24.6415 45.7632 24.5275 45.7361 24.3283 45.9628C24.0241 46.3098 23.6981 46.6378 23.371 46.9628C23.2006 47.1313 23.1699 47.3289 23.1719 47.5525C23.1778 48.2045 23.1619 48.8564 23.1808 49.5074C23.1887 49.7912 23.1035 49.8885 22.8191 49.8795C22.2413 49.8604 21.6636 49.8624 21.0859 49.8785C20.8044 49.8855 20.7242 49.7832 20.7242 49.5013C20.7321 46.1754 20.7311 42.8505 20.7212 39.5246C20.7212 39.2307 20.8233 39.1545 21.0928 39.1615C21.6705 39.1756 22.2493 39.1796 22.826 39.1565C23.1164 39.1455 23.1828 39.2548 23.1798 39.5266C23.1689 40.8797 23.1748 42.2337 23.1738 43.5877C23.1738 43.7522 23.1738 43.9167 23.1738 44.1584C23.7427 43.7332 24.1153 43.2086 24.5473 42.7502C25.5997 41.6309 26.6303 40.4905 27.6639 39.3541C27.7581 39.2508 27.8403 39.1665 27.99 39.1665C28.7926 39.1696 29.5963 39.1676 30.4803 39.1676C29.9967 39.8546 29.4447 40.3721 28.9492 40.9358C28.0999 41.9007 27.2348 42.8505 26.3618 43.7943C26.1715 44 26.2439 44.1313 26.3826 44.3049C27.6084 45.8404 28.8303 47.38 30.0502 48.9196C30.2731 49.2014 30.4842 49.4933 30.7716 49.8735L30.7726 49.8714Z" fill="#0A1A31"/>
<path d="M40.066 40.5538C39.1662 39.5829 37.9938 39.2218 36.7353 39.1777C35.235 39.1245 33.7307 39.1727 32.2284 39.1556C31.8964 39.1516 31.8171 39.268 31.8201 39.5859C31.833 41.2228 31.8261 42.8607 31.8261 44.4986H31.8241V46.9549C31.8241 47.7733 31.8459 48.5928 31.8142 49.4102C31.7993 49.7974 31.9242 49.8997 32.2869 49.8806C32.8309 49.8515 33.3769 49.8595 33.921 49.8776C34.2044 49.8876 34.2896 49.7943 34.2817 49.5075C34.2628 48.7723 34.2896 48.0371 34.2698 47.3019C34.2619 46.98 34.3461 46.8566 34.684 46.8716C35.2935 46.8987 35.9049 46.8797 36.5163 46.8807C37.4339 46.8827 38.308 46.6971 39.1265 46.2638C41.1085 45.2147 41.6059 42.2178 40.066 40.5538ZM37.1703 44.8025C36.2765 45.0322 35.3678 44.8717 34.467 44.9138C34.2242 44.9248 34.2777 44.7303 34.2757 44.5949C34.2698 44.0623 34.2728 43.5287 34.2728 42.9951H34.2777C34.2777 42.4946 34.2866 41.9941 34.2737 41.4946C34.2658 41.2088 34.3372 41.0693 34.6602 41.0904C35.4936 41.1446 36.334 41.0172 37.1634 41.2459C38.0137 41.4806 38.4893 42.0804 38.5042 43.0252C38.5191 43.957 38.0523 44.5768 37.1703 44.8025Z" fill="#0A1A32"/>
<path d="M52.351 49.4042C51.6237 47.8255 50.927 46.2318 50.2284 44.64C49.4624 42.8969 48.7023 41.1506 47.9511 39.4014C47.858 39.1838 47.7083 39.1597 47.5181 39.1607C46.9403 39.1627 46.3626 39.1738 45.7849 39.1577C45.5361 39.1507 45.4063 39.2189 45.3122 39.4706C45.1388 39.933 44.9089 40.3723 44.7097 40.8257C43.9972 42.4495 43.2866 44.0754 42.5751 45.7002C42.0261 46.957 41.486 48.2177 40.9212 49.4674C40.7567 49.8315 40.8726 49.8887 41.2066 49.8777C41.7675 49.8606 42.3304 49.8636 42.8912 49.8766C43.1192 49.8827 43.25 49.8195 43.3372 49.5898C43.5304 49.0793 43.7871 48.5908 43.9536 48.0733C44.0764 47.6911 44.2578 47.5417 44.6591 47.5497C45.7651 47.5728 46.873 47.5898 47.9779 47.5457C48.6844 47.5166 49.2899 47.5206 49.3662 48.4464C49.3752 48.5497 49.4951 48.64 49.5228 48.7473C49.7596 49.652 50.2244 50.1876 51.2382 49.8736C51.5028 49.8736 51.7683 49.8556 52.0309 49.8777C52.4372 49.9128 52.5492 49.8335 52.351 49.4042ZM45.2696 45.5969C44.9316 45.6019 45.0248 45.4073 45.0892 45.2479C45.3736 44.5397 45.6709 43.8366 45.9662 43.1336C46.1654 42.6611 46.3676 42.1907 46.6282 41.5789C47.197 42.9701 47.7192 44.2459 48.2702 45.5919C47.2089 45.5919 46.2397 45.5829 45.2696 45.5969Z" fill="#0A1A33"/>
<path d="M19.5093 49.5097C18.9801 48.3322 18.4757 47.1436 17.9545 45.9621C16.9972 43.7977 16.028 41.6392 15.0856 39.4688C14.9895 39.2471 14.9053 39.1538 14.6714 39.1578C14.0609 39.1689 13.4505 39.1649 12.8411 39.1598C12.6647 39.1588 12.5477 39.1799 12.4635 39.3845C12.1177 40.225 11.7421 41.0535 11.3774 41.886C10.8125 43.1738 10.2487 44.4626 9.68284 45.7505C9.12988 47.0102 8.58485 48.274 8.01702 49.5277C7.8664 49.8607 8.00414 49.8808 8.2717 49.8758C8.81575 49.8647 9.36276 49.8377 9.90383 49.8848C10.2854 49.9179 10.439 49.7323 10.5539 49.4304C10.7372 48.951 10.9295 48.4746 11.1079 47.9932C11.2248 47.6772 11.4042 47.5378 11.7678 47.5478C12.8728 47.5759 13.9777 47.5579 15.0836 47.5579C15.8414 47.5572 16.3531 47.922 16.6186 48.6521C16.9146 49.4659 17.4904 49.8731 18.3459 49.8738C18.659 49.8738 18.9732 49.8597 19.2853 49.8778C19.6153 49.8978 19.6371 49.7935 19.5093 49.5097ZM12.08 45.574C12.631 44.252 13.1661 42.9712 13.7518 41.568C14.3374 42.9883 14.8636 44.262 15.4047 45.574H12.08Z" fill="#091A33"/>
<path d="M51.4849 39.1625C52.3361 39.1625 53.0774 39.1745 53.8176 39.1555C54.0703 39.1494 54.1575 39.2969 54.2576 39.4724C55.0603 40.8716 55.865 42.2697 56.6726 43.6659C56.7291 43.7632 56.8173 43.8404 56.9134 43.9517C57.7904 42.4503 58.6575 40.9819 59.5038 39.4995C59.6485 39.2467 59.8031 39.1484 60.0855 39.1575C60.6454 39.1755 61.2073 39.1625 61.7682 39.1595C62.004 39.1595 62.0645 39.2297 61.9297 39.4553C60.8148 41.3319 59.7198 43.2206 58.5921 45.0881C58.1888 45.7551 57.8994 46.4151 57.9698 47.2305C58.0332 47.9597 57.9658 48.6989 57.9926 49.4331C58.0054 49.7931 57.8816 49.8945 57.5427 49.8774C57.0323 49.8523 56.519 49.8513 56.0096 49.8784C55.6668 49.8965 55.5508 49.7891 55.5607 49.4321C55.5835 48.5314 55.5231 47.6267 55.5825 46.729C55.6321 45.9828 55.199 45.4773 54.872 44.9156C53.769 43.021 52.6502 41.1354 51.4859 39.1605L51.4849 39.1625Z" fill="#0A1A33"/>
<path d="M7.06753 43.2199C7.06753 44.3884 7.11212 45.5589 7.05762 46.7244C6.96942 48.5839 6.00124 49.6601 4.18083 49.9309C2.70231 50.1506 1.33873 49.8637 0.188218 48.8126C-0.0347498 48.609 -0.0674517 48.4766 0.142634 48.2459C0.454789 47.9049 0.745143 47.5428 1.02361 47.1727C1.1891 46.953 1.28324 46.8778 1.49432 47.1506C1.76881 47.5047 2.1434 47.7705 2.55763 47.94C3.66949 48.3963 4.68326 47.7454 4.71893 46.4937C4.7665 44.8087 4.72884 43.1216 4.73974 41.4346C4.74172 41.1217 4.58614 41.0926 4.33642 41.0956C3.38013 41.1056 2.42285 41.0866 1.46558 41.1056C1.12964 41.1126 0.988922 41.0214 1.01469 40.6603C1.04243 40.2782 1.02757 39.892 1.00973 39.5089C0.996849 39.2501 1.08604 39.1568 1.34666 39.1578C3.16113 39.1648 4.97658 39.1668 6.79105 39.1548C7.11609 39.1528 7.11609 39.3183 7.1141 39.563C7.10519 40.7817 7.11014 42.0003 7.11014 43.2199C7.09627 43.2199 7.08338 43.2199 7.06951 43.2199H7.06753Z" fill="#0A1A35"/>
</g>
<defs>
<clipPath id="clip0_112_4277">
<rect width="62" height="50" fill="white"/>
</clipPath>
</defs>
</svg>
